<svg width="65" height="64" viewBox="0 0 65 64" fill="none" xmlns="http://www.w3.org/2000/svg">
<path d="M2.58 43.6081C2.615 44.0481 2.934 44.4131 3.366 44.5061L6.851 45.2581C6.974 45.8521 7.13 46.4381 7.319 47.0101L4.681 49.4001C4.354 49.6961 4.26 50.1721 4.45 50.5711C4.932 51.5851 5.469 52.5221 6.046 53.3561C6.296 53.7181 6.754 53.8741 7.175 53.7391L10.562 52.6481C10.967 53.1021 11.398 53.5331 11.852 53.9381L10.761 57.3251C10.626 57.7441 10.781 58.2031 11.144 58.4541C11.978 59.0311 12.915 59.5681 13.929 60.0501C14.329 60.2401 14.804 60.1451 15.1 59.8191L17.49 57.1811C18.063 57.3691 18.649 57.5261 19.243 57.6491L19.995 61.1341C20.088 61.5651 20.453 61.8841 20.892 61.9201C21.424 61.9621 21.957 62.0001 22.5 62.0001C23.043 62.0001 23.576 61.9621 24.108 61.9201C24.548 61.8851 24.913 61.5661 25.006 61.1341L25.758 57.6491C26.352 57.5261 26.939 57.3701 27.511 57.1811L29.901 59.8191C30.198 60.1461 30.674 60.2411 31.072 60.0501C32.086 59.5681 33.023 59.0301 33.857 58.4541C34.22 58.2031 34.375 57.7441 34.24 57.3251L33.149 53.9381C33.603 53.5331 34.034 53.1021 34.439 52.6491L37.826 53.7401C38.245 53.8761 38.704 53.7201 38.955 53.3571C39.532 52.5231 40.069 51.5861 40.551 50.5721C40.741 50.1731 40.647 49.6971 40.32 49.4011L37.682 47.0111C37.87 46.4381 38.027 45.8521 38.15 45.2581L41.635 44.5061C42.066 44.4131 42.385 44.0481 42.421 43.6091C42.462 43.0761 42.5 42.5431 42.5 42.0001C42.5 41.4571 42.462 40.9241 42.42 40.3921C42.385 39.9521 42.066 39.5871 41.634 39.4941L38.149 38.7421C38.026 38.1481 37.87 37.5611 37.681 36.9891L40.319 34.5991C40.646 34.3031 40.74 33.8271 40.55 33.4281C40.068 32.4141 39.53 31.4771 38.954 30.6431C38.703 30.2801 38.244 30.1241 37.825 30.2601L34.438 31.3511C34.033 30.8971 33.602 30.4661 33.148 30.0611L34.239 26.6741C34.374 26.2551 34.219 25.7961 33.856 25.5451C33.022 24.9681 32.085 24.4311 31.071 23.9491C30.671 23.7581 30.196 23.8531 29.9 24.1801L27.51 26.8181C26.937 26.6301 26.351 26.4731 25.757 26.3501L25.005 22.8651C24.912 22.4341 24.547 22.1151 24.108 22.0791C23.043 21.9931 21.956 21.9951 20.891 22.0791C20.451 22.1141 20.086 22.4331 19.993 22.8651L19.241 26.3501C18.647 26.4731 18.061 26.6291 17.489 26.8181L15.099 24.1801C14.803 23.8531 14.328 23.7591 13.928 23.9491C12.914 24.4311 11.977 24.9681 11.143 25.5451C10.78 25.7961 10.625 26.2551 10.76 26.6741L11.851 30.0611C11.397 30.4661 10.966 30.8971 10.561 31.3511L7.175 30.2601C6.755 30.1241 6.296 30.2801 6.046 30.6431C5.469 31.4771 4.932 32.4141 4.45 33.4281C4.26 33.8271 4.354 34.3031 4.681 34.5991L7.319 36.9891C7.131 37.5621 6.974 38.1481 6.851 38.7421L3.366 39.4941C2.935 39.5871 2.616 39.9521 2.58 40.3911C2.538 40.9241 2.5 41.4571 2.5 42.0001C2.5 42.5431 2.538 43.0761 2.58 43.6081ZM4.521 41.2911L7.923 40.5561C8.325 40.4691 8.633 40.1451 8.699 39.7391C8.849 38.8171 9.091 37.9121 9.418 37.0481C9.564 36.6641 9.459 36.2291 9.154 35.9531L6.585 33.6251C6.809 33.1961 7.043 32.7851 7.285 32.3961L10.581 33.4581C10.971 33.5831 11.401 33.4581 11.662 33.1401C12.252 32.4181 12.918 31.7531 13.64 31.1621C13.958 30.9021 14.085 30.4731 13.958 30.0811L12.896 26.7851C13.285 26.5421 13.695 26.3081 14.125 26.0851L16.453 28.6551C16.73 28.9601 17.166 29.0651 17.549 28.9191C18.411 28.5921 19.316 28.3501 20.239 28.2001C20.645 28.1341 20.969 27.8261 21.056 27.4241L21.79 24.0221C22.261 23.9971 22.74 23.9961 23.209 24.0221L23.944 27.4241C24.031 27.8261 24.355 28.1341 24.761 28.2001C25.683 28.3501 26.588 28.5921 27.452 28.9191C27.834 29.0651 28.27 28.9611 28.547 28.6551L30.875 26.0861C31.304 26.3101 31.715 26.5441 32.104 26.7861L31.042 30.0821C30.916 30.4741 31.042 30.9021 31.36 31.1631C32.082 31.7531 32.747 32.4191 33.338 33.1411C33.599 33.4601 34.028 33.5871 34.419 33.4591L37.715 32.3971C37.958 32.7861 38.192 33.1961 38.415 33.6251L35.845 35.9531C35.54 36.2291 35.435 36.6641 35.581 37.0491C35.908 37.9111 36.15 38.8161 36.3 39.7391C36.366 40.1451 36.674 40.4691 37.076 40.5561L40.478 41.2901C40.491 41.5251 40.5 41.7621 40.5 42.0001C40.5 42.2381 40.492 42.4751 40.479 42.7091L37.077 43.4441C36.675 43.5311 36.367 43.8551 36.301 44.2611C36.151 45.1831 35.909 46.0881 35.582 46.9521C35.436 47.3361 35.541 47.7711 35.846 48.0471L38.415 50.3751C38.191 50.8041 37.957 51.2151 37.715 51.6041L34.419 50.5421C34.026 50.4141 33.599 50.5411 33.338 50.8601C32.749 51.5801 32.083 52.2461 31.36 52.8381C31.042 53.0981 30.916 53.5271 31.042 53.9181L32.104 57.2141C31.715 57.4571 31.305 57.6911 30.876 57.9141L28.548 55.3441C28.272 55.0391 27.837 54.9361 27.452 55.0801C26.59 55.4071 25.685 55.6491 24.762 55.7991C24.356 55.8651 24.032 56.1731 23.945 56.5751L23.211 59.9771C22.74 60.0021 22.261 60.0031 21.792 59.9771L21.057 56.5751C20.97 56.1731 20.646 55.8651 20.24 55.7991C19.318 55.6491 18.413 55.4071 17.549 55.0801C17.166 54.9341 16.73 55.0381 16.454 55.3441L14.126 57.9131C13.697 57.6891 13.286 57.4551 12.897 57.2131L13.959 53.9171C14.085 53.5251 13.959 53.0971 13.641 52.8361C12.919 52.2461 12.254 51.5801 11.663 50.8581C11.402 50.5391 10.972 50.4131 10.582 50.5401L7.286 51.6021C7.043 51.2131 6.809 50.8031 6.586 50.3731L9.156 48.0451C9.461 47.7691 9.566 47.3341 9.42 46.9491C9.093 46.0871 8.851 45.1821 8.701 44.2591C8.635 43.8531 8.327 43.5291 7.925 43.4421L4.521 42.7101C4.509 42.4751 4.5 42.2381 4.5 42.0001C4.5 41.7621 4.508 41.5251 4.521 41.2911Z" fill="white"/>
<path d="M54.719 16.235C55.095 16.117 55.367 15.788 55.412 15.396C55.472 14.891 55.5 14.434 55.5 14C55.5 13.566 55.472 13.109 55.413 12.604C55.368 12.212 55.096 11.883 54.72 11.765L51.947 10.894C51.864 10.667 51.772 10.444 51.671 10.226L53.015 7.65099C53.197 7.30199 53.157 6.87799 52.913 6.56799C52.334 5.83599 51.668 5.16999 50.934 4.58899C50.624 4.34399 50.2 4.30499 49.851 4.48599L47.274 5.82999C47.056 5.72999 46.833 5.63799 46.606 5.55499L45.735 2.78199C45.617 2.40599 45.288 2.13399 44.896 2.08899C43.884 1.97099 43.115 1.97099 42.103 2.08899C41.711 2.13399 41.382 2.40599 41.264 2.78199L40.393 5.55499C40.166 5.63799 39.943 5.72999 39.725 5.83099L37.15 4.48699C36.801 4.30599 36.378 4.34499 36.067 4.58899C35.335 5.16799 34.669 5.83399 34.088 6.56799C33.843 6.87799 33.803 7.30099 33.985 7.65099L35.328 10.226C35.228 10.444 35.136 10.667 35.053 10.894L32.28 11.765C31.904 11.883 31.632 12.212 31.587 12.604C31.528 13.109 31.5 13.566 31.5 14C31.5 14.434 31.528 14.891 31.587 15.396C31.632 15.788 31.904 16.117 32.28 16.235L35.053 17.106C35.136 17.333 35.228 17.556 35.329 17.774L33.985 20.349C33.803 20.698 33.843 21.122 34.087 21.432C34.666 22.164 35.332 22.83 36.066 23.411C36.375 23.656 36.8 23.695 37.149 23.514L39.724 22.171C39.942 22.271 40.165 22.363 40.392 22.446L41.263 25.219C41.381 25.595 41.71 25.867 42.102 25.912C42.609 25.972 43.066 26 43.5 26C43.934 26 44.391 25.972 44.896 25.913C45.288 25.868 45.617 25.596 45.735 25.22L46.606 22.447C46.833 22.364 47.056 22.272 47.274 22.171L49.849 23.515C50.198 23.697 50.622 23.658 50.932 23.413C51.664 22.834 52.33 22.168 52.911 21.434C53.156 21.124 53.196 20.701 53.014 20.351L51.67 17.776C51.771 17.558 51.863 17.335 51.946 17.108L54.719 16.235ZM50.859 15.351C50.543 15.451 50.297 15.7 50.201 16.018C50.065 16.47 49.885 16.905 49.667 17.312C49.51 17.604 49.507 17.955 49.661 18.248L50.93 20.68C50.693 20.943 50.442 21.194 50.18 21.43L47.748 20.161C47.454 20.007 47.103 20.011 46.812 20.167C46.405 20.385 45.97 20.565 45.518 20.701C45.201 20.796 44.951 21.043 44.851 21.359L44.027 23.983C43.662 24.005 43.339 24.005 42.973 23.983L42.149 21.359C42.049 21.043 41.8 20.797 41.482 20.701C41.029 20.565 40.594 20.385 40.189 20.167C39.897 20.01 39.546 20.007 39.252 20.161L36.82 21.43C36.557 21.193 36.306 20.942 36.07 20.68L37.339 18.248C37.492 17.955 37.49 17.603 37.333 17.312C37.115 16.905 36.935 16.47 36.799 16.018C36.704 15.701 36.457 15.451 36.141 15.351L33.517 14.527C33.505 14.344 33.5 14.169 33.5 14C33.5 13.831 33.505 13.656 33.517 13.473L36.141 12.649C36.457 12.549 36.703 12.3 36.799 11.982C36.935 11.529 37.115 11.094 37.333 10.689C37.49 10.397 37.493 10.046 37.339 9.75199L36.07 7.31999C36.307 7.05699 36.558 6.80599 36.82 6.56999L39.252 7.83899C39.545 7.99199 39.897 7.98899 40.188 7.83299C40.595 7.61499 41.03 7.43499 41.482 7.29899C41.799 7.20399 42.049 6.95699 42.149 6.64099L42.973 4.01699C43.338 3.99499 43.661 3.99499 44.027 4.01699L44.851 6.64099C44.951 6.95699 45.2 7.20299 45.518 7.29899C45.971 7.43499 46.406 7.61499 46.811 7.83299C47.103 7.98999 47.454 7.99299 47.748 7.83899L50.18 6.56999C50.443 6.80699 50.694 7.05799 50.93 7.31999L49.661 9.75199C49.508 10.045 49.51 10.397 49.667 10.688C49.885 11.095 50.065 11.53 50.201 11.982C50.296 12.299 50.543 12.549 50.859 12.649L53.483 13.473C53.495 13.656 53.5 13.831 53.5 14C53.5 14.169 53.495 14.344 53.483 14.527L50.859 15.351Z" fill="white"/>
<path d="M61.762 34.964L60.044 34.354C59.946 34.075 59.834 33.802 59.707 33.537L60.488 31.892C60.651 31.55 60.606 31.146 60.372 30.848C59.872 30.209 59.294 29.63 58.653 29.128C58.354 28.894 57.948 28.85 57.608 29.012L55.962 29.793C55.698 29.667 55.425 29.554 55.146 29.457L54.535 27.739C54.408 27.382 54.089 27.127 53.713 27.081C52.822 26.974 52.177 26.974 51.286 27.081C50.91 27.126 50.591 27.381 50.464 27.739L49.854 29.457C49.575 29.555 49.302 29.667 49.037 29.794L47.392 29.013C47.052 28.851 46.647 28.896 46.348 29.129C45.709 29.629 45.13 30.207 44.628 30.848C44.395 31.146 44.35 31.551 44.512 31.893L45.293 33.539C45.167 33.803 45.054 34.076 44.957 34.355L43.239 34.966C42.882 35.093 42.627 35.412 42.581 35.788C42.526 36.231 42.5 36.628 42.5 37C42.5 37.372 42.526 37.768 42.58 38.213C42.625 38.589 42.88 38.908 43.238 39.035L44.956 39.645C45.054 39.924 45.166 40.197 45.293 40.462L44.512 42.107C44.349 42.449 44.394 42.853 44.628 43.151C45.128 43.79 45.706 44.369 46.347 44.871C46.645 45.104 47.051 45.149 47.392 44.987L49.038 44.206C49.302 44.332 49.575 44.445 49.854 44.542L50.465 46.26C50.592 46.617 50.911 46.872 51.287 46.918C51.732 46.974 52.128 47 52.5 47C52.872 47 53.268 46.974 53.713 46.92C54.089 46.875 54.408 46.62 54.535 46.262L55.145 44.544C55.424 44.446 55.697 44.334 55.962 44.207L57.607 44.988C57.948 45.151 58.354 45.107 58.651 44.872C59.29 44.372 59.869 43.794 60.371 43.153C60.604 42.855 60.649 42.45 60.487 42.108L59.706 40.462C59.832 40.198 59.945 39.925 60.042 39.646L61.76 39.035C62.117 38.908 62.372 38.589 62.418 38.213C62.474 37.768 62.5 37.372 62.5 37C62.5 36.628 62.474 36.232 62.42 35.787C62.375 35.41 62.12 35.092 61.762 34.964ZM60.49 37.365L58.905 37.928C58.598 38.037 58.363 38.289 58.276 38.603C58.145 39.078 57.958 39.531 57.721 39.95C57.561 40.233 57.549 40.577 57.688 40.871L58.406 42.384C58.24 42.566 58.066 42.74 57.885 42.905L56.372 42.187C56.08 42.048 55.735 42.06 55.451 42.22C55.031 42.458 54.578 42.644 54.105 42.775C53.791 42.862 53.539 43.097 53.429 43.404L52.866 44.989C52.624 45.002 52.378 45.002 52.136 44.989L51.573 43.404C51.464 43.097 51.212 42.862 50.898 42.775C50.423 42.644 49.97 42.457 49.551 42.22C49.268 42.061 48.925 42.049 48.63 42.187L47.117 42.905C46.935 42.739 46.761 42.565 46.596 42.384L47.314 40.871C47.454 40.577 47.441 40.233 47.281 39.95C47.043 39.53 46.857 39.077 46.726 38.604C46.639 38.29 46.404 38.038 46.097 37.928L44.512 37.365C44.504 37.244 44.5 37.123 44.5 37C44.5 36.877 44.504 36.755 44.51 36.635L46.095 36.071C46.402 35.962 46.637 35.71 46.723 35.396C46.855 34.92 47.042 34.468 47.279 34.049C47.439 33.766 47.451 33.422 47.312 33.128L46.594 31.615C46.76 31.433 46.934 31.259 47.115 31.094L48.628 31.812C48.922 31.952 49.266 31.94 49.549 31.779C49.969 31.541 50.422 31.355 50.895 31.224C51.209 31.137 51.461 30.902 51.571 30.595L52.134 29.01C52.376 28.997 52.622 28.997 52.864 29.01L53.427 30.595C53.536 30.902 53.788 31.137 54.102 31.224C54.577 31.355 55.03 31.542 55.449 31.779C55.733 31.94 56.076 31.952 56.37 31.812L57.883 31.094C58.065 31.26 58.239 31.434 58.404 31.615L57.686 33.128C57.546 33.422 57.559 33.766 57.719 34.049C57.957 34.469 58.143 34.922 58.274 35.395C58.361 35.709 58.596 35.961 58.903 36.071L60.488 36.634C60.496 36.756 60.5 36.877 60.5 37C60.5 37.123 60.496 37.244 60.49 37.365Z" fill="white"/>
<path d="M22.5 53C28.565 53 33.5 48.065 33.5 42C33.5 35.935 28.565 31 22.5 31C16.435 31 11.5 35.935 11.5 42C11.5 48.065 16.435 53 22.5 53ZM22.5 33C27.462 33 31.5 37.038 31.5 42C31.5 46.962 27.462 51 22.5 51C17.538 51 13.5 46.962 13.5 42C13.5 37.038 17.538 33 22.5 33Z" fill="white"/>
<path d="M2.52246 25.359L4.05846 26.64C8.63746 21.149 15.3585 18 22.5005 18C23.0095 18 23.5175 18.029 24.0255 18.061L22.7935 19.293L24.2075 20.707L27.2075 17.707C27.5985 17.316 27.5985 16.684 27.2075 16.293L24.2075 13.293L22.7935 14.707L24.1525 16.066C23.6025 16.031 23.0515 16 22.5005 16C14.7645 16 7.48246 19.411 2.52246 25.359Z" fill="white"/>
<path d="M43.5 9C40.743 9 38.5 11.243 38.5 14C38.5 16.757 40.743 19 43.5 19C46.257 19 48.5 16.757 48.5 14C48.5 11.243 46.257 9 43.5 9ZM43.5 17C41.846 17 40.5 15.654 40.5 14C40.5 12.346 41.846 11 43.5 11C45.154 11 46.5 12.346 46.5 14C46.5 15.654 45.154 17 43.5 17Z" fill="white"/>
<path d="M52.5 33C50.294 33 48.5 34.794 48.5 37C48.5 39.206 50.294 41 52.5 41C54.706 41 56.5 39.206 56.5 37C56.5 34.794 54.706 33 52.5 33ZM52.5 39C51.397 39 50.5 38.103 50.5 37C50.5 35.897 51.397 35 52.5 35C53.603 35 54.5 35.897 54.5 37C54.5 38.103 53.603 39 52.5 39Z" fill="white"/>
<path d="M61.6956 5.02009L56.6956 4.02009C56.1516 3.91009 55.6266 4.26309 55.5186 4.80409L54.5186 9.80409L56.4796 10.1971L57.0186 7.50509C57.9876 9.52109 58.4996 11.7431 58.4996 14.0001C58.4996 17.4481 57.3616 20.6901 55.2096 23.3751L56.7706 24.6261C59.1756 21.6251 60.4996 17.8521 60.4996 14.0001C60.4996 11.3811 59.8946 8.79909 58.7436 6.46909L61.3036 6.98109L61.6956 5.02009Z" fill="white"/>
</svg>
