<svg width="62" height="63" viewBox="0 0 62 63" fill="none" xmlns="http://www.w3.org/2000/svg">
<path d="M24.2919 38.4644H20.4821V34.7778C20.4821 34.0992 19.9134 33.5488 19.2121 33.5488C18.5108 33.5488 17.9422 34.0992 17.9422 34.7778V38.4644H14.1323C13.431 38.4644 12.8623 39.0147 12.8623 39.6932C12.8623 40.3717 13.431 40.9222 14.1323 40.9222H17.9422V44.6088C17.9422 45.2874 18.5109 45.8378 19.2121 45.8378C19.9132 45.8378 20.4821 45.2874 20.4821 44.6088V40.9222H24.2919C24.9932 40.9222 25.562 40.3719 25.562 39.6932C25.562 39.0146 24.9934 38.4644 24.2919 38.4644Z" fill="white"/>
<path d="M60.6387 39.5704C57.8313 34.8652 51.6239 33.2549 46.7606 35.9721L41.602 38.854V28.1823C41.602 26.863 41.1511 25.5538 40.3321 24.4956L33.9823 16.3033V12.8148C35.4603 12.3075 36.5222 10.9416 36.5222 9.33944V3.68662C36.522 1.6538 34.8129 0 32.7121 0H9.85272C7.75196 0 6.04276 1.6538 6.04276 3.68662V9.33956C6.04276 10.9415 7.10463 12.3076 8.58269 12.8149V16.3034L2.23241 24.4963C1.41375 25.5539 0.962891 26.863 0.962891 28.1823V51.9822C0.962891 55.3703 3.81144 58.1266 7.31266 58.1266H27.7223C30.5698 62.7454 36.7099 64.2912 41.523 61.602L56.9203 52.9997C61.7407 50.306 63.4602 44.3012 60.6387 39.5704ZM8.58269 3.68662C8.58269 3.00897 9.15243 2.45766 9.85259 2.45766H32.712C33.4123 2.45766 33.982 3.00897 33.982 3.68662V9.33956C33.982 10.0172 33.4123 10.5684 32.712 10.5684H9.85272C9.15242 10.5684 8.58282 10.0171 8.58282 9.33956V3.68662H8.58269ZM4.26497 25.9701L10.8686 17.4503C11.0335 17.2377 11.1226 16.9789 11.1226 16.7129V13.0263H31.4421V15.4841H20.0125C19.3111 15.4841 18.7424 16.0344 18.7424 16.713C18.7424 17.3917 19.3111 17.942 20.0125 17.942H32.0771L38.2994 25.9698C38.706 26.4952 38.9586 27.1238 39.035 27.7731H3.52988C3.60608 27.1236 3.85869 26.495 4.26497 25.9701ZM7.31279 55.6688C5.21203 55.6688 3.50295 54.015 3.50295 51.9822V50.7411H26.5762C26.1735 52.3344 26.1762 54.0363 26.6373 55.6689H7.31279V55.6688ZM27.5723 48.2955H3.50282V30.2307H39.0619V40.2728L31.3631 44.5744C29.7579 45.4717 28.4604 46.7489 27.5723 48.2955ZM40.2532 59.4734C36.6086 61.5099 31.9514 60.3055 29.8454 56.7764C27.7294 53.2131 29.0118 48.7269 32.6334 46.7027L39.5267 42.8514L47.1465 55.6221L40.2532 59.4734ZM55.6503 50.8712L49.3462 54.3933L41.7263 41.6224L48.0305 38.1007C51.6775 36.0633 56.333 37.2698 58.439 40.7991C60.5542 44.3461 59.2679 48.8497 55.6503 50.8712Z" fill="white"/>
</svg>
