<svg width="60" height="60" viewBox="0 0 60 60" fill="none" xmlns="http://www.w3.org/2000/svg">
<path d="M27.1875 16.875H32.8125C33.33 16.875 33.75 16.455 33.75 15.9375V6.5625C33.75 6.045 33.33 5.625 32.8125 5.625H27.1875C26.67 5.625 26.25 6.045 26.25 6.5625V15.9375C26.25 16.455 26.67 16.875 27.1875 16.875ZM28.125 7.5H31.875V15H28.125V7.5Z" fill="white"/>
<path d="M36.5625 16.875H42.1875C42.705 16.875 43.125 16.455 43.125 15.9375V6.5625C43.125 6.045 42.705 5.625 42.1875 5.625H36.5625C36.045 5.625 35.625 6.045 35.625 6.5625V15.9375C35.625 16.455 36.045 16.875 36.5625 16.875ZM37.5 7.5H41.25V15H37.5V7.5Z" fill="white"/>
<path d="M17.8125 16.875H23.4375C23.955 16.875 24.375 16.455 24.375 15.9375V6.5625C24.375 6.045 23.955 5.625 23.4375 5.625H17.8125C17.295 5.625 16.875 6.045 16.875 6.5625V15.9375C16.875 16.455 17.295 16.875 17.8125 16.875ZM18.75 7.5H22.5V15H18.75V7.5Z" fill="white"/>
<path d="M27.1875 30H32.8125C33.33 30 33.75 29.58 33.75 29.0625V19.6875C33.75 19.17 33.33 18.75 32.8125 18.75H27.1875C26.67 18.75 26.25 19.17 26.25 19.6875V29.0625C26.25 29.58 26.67 30 27.1875 30ZM28.125 20.625H31.875V28.125H28.125V20.625Z" fill="white"/>
<path d="M36.5625 30H42.1875C42.705 30 43.125 29.58 43.125 29.0625V19.6875C43.125 19.17 42.705 18.75 42.1875 18.75H36.5625C36.045 18.75 35.625 19.17 35.625 19.6875V29.0625C35.625 29.58 36.045 30 36.5625 30ZM37.5 20.625H41.25V28.125H37.5V20.625Z" fill="white"/>
<path d="M17.8125 30H23.4375C23.955 30 24.375 29.58 24.375 29.0625V19.6875C24.375 19.17 23.955 18.75 23.4375 18.75H17.8125C17.295 18.75 16.875 19.17 16.875 19.6875V29.0625C16.875 29.58 17.295 30 17.8125 30ZM18.75 20.625H22.5V28.125H18.75V20.625Z" fill="white"/>
<path d="M13.1251 40.7569V56.25C13.1251 57.2841 13.9661 58.125 15.0001 58.125H45.0001C46.0342 58.125 46.8751 57.2841 46.8751 56.25V42.8662L48.617 43.1147C49.1167 43.1878 49.5817 42.8503 49.6717 42.3544L51.5467 32.0428C51.6086 31.7044 51.4801 31.3575 51.2101 31.1419L46.8751 27.675V3.75C46.8751 2.71594 46.0342 1.875 45.0001 1.875H15.0001C13.9661 1.875 13.1251 2.71594 13.1251 3.75V27.6562L9.75012 30.1875C9.49699 30.3778 9.35637 30.6825 9.37699 30.9984C9.38355 31.0969 9.40512 31.1925 9.44074 31.2816L13.1251 40.7569ZM23.7751 39.5859L17.2276 46.1334L15.0001 40.4053V40.3125H14.9645L12.1361 33.0384L23.7751 39.5859ZM22.5001 36.7172L18.7501 34.6078V33.75H22.5001V36.7172ZM15.0001 56.25V53.4375H45.0001V56.25H15.0001ZM45.0001 51.5625H15.0001V45.5775L16.0014 48.1519C16.1167 48.4472 16.3726 48.6647 16.6829 48.7294C16.7467 48.7434 16.8114 48.75 16.8751 48.75C17.1207 48.75 17.3607 48.6525 17.5379 48.4753L25.4317 40.5816L36.0423 47.655C36.2017 47.7609 36.3826 47.8125 36.5626 47.8125C36.8045 47.8125 37.0445 47.7188 37.2264 47.5378L42.5195 42.2447L45.0001 42.5991V51.5625ZM31.8751 36.4528L28.1251 37.5638V33.75H31.8751V36.4528ZM47.9889 41.1319L42.3198 40.3219C42.0264 40.2797 41.7329 40.3781 41.5239 40.5872L36.4426 45.6684L27.497 39.705L49.4289 33.2072L47.9889 41.1319ZM37.5001 34.7859V33.75H40.9961L37.5001 34.7859ZM48.6376 31.4859L46.8751 32.0081V30.075L48.6376 31.4859ZM45.0001 3.75V32.5641L43.1251 33.12V32.8125C43.1251 32.295 42.7051 31.875 42.1876 31.875H36.5626C36.0451 31.875 35.6251 32.295 35.6251 32.8125V35.3419L33.7501 35.8978V32.8125C33.7501 32.295 33.3301 31.875 32.8126 31.875H27.1876C26.6701 31.875 26.2501 32.295 26.2501 32.8125V38.1197L25.4261 38.3634L24.3751 37.7719V32.8125C24.3751 32.295 23.9551 31.875 23.4376 31.875H17.8126C17.2951 31.875 16.8751 32.295 16.8751 32.8125V33.5531L15.0001 32.4984V3.75H45.0001ZM13.1251 30V31.4438L12.0254 30.825L13.1251 30Z" fill="white"/>
</svg>
