<svg width="80" height="80" viewBox="0 0 80 80" fill="none" xmlns="http://www.w3.org/2000/svg">
<g clip-path="url(#clip0)">
<path d="M43.937 5.33325H35.9371C34.4644 5.33325 33.2705 6.5271 33.2705 7.99988V10.6665C33.2705 12.1393 34.4644 13.3331 35.9371 13.3331H43.937C45.4098 13.3331 46.6036 12.1393 46.6036 10.6665V7.99988C46.6036 6.5271 45.4098 5.33325 43.937 5.33325ZM35.9371 10.6665V7.99988H43.937V10.6665H35.9371Z" fill="#00A6FB"/>
<path d="M47.9376 0H31.9373C29.7284 0 27.9376 1.79077 27.9376 4.00024V16.2549C20.9906 17.5458 15.9491 23.6011 15.9375 30.6665V60C15.943 64.9561 18.4503 69.574 22.6044 72.2772V74.6667C22.6044 77.6123 24.9921 80 27.9376 80H51.9373C54.8828 80 57.2711 77.6123 57.2711 74.6667V72.2772C61.4246 69.574 63.9325 64.9561 63.9374 60V30.6665C63.9264 23.6011 58.8843 17.5458 51.9373 16.2549V4.00024C51.9373 1.79077 50.1465 0 47.9376 0ZM30.6042 4.00024C30.6042 3.26355 31.2012 2.66663 31.9373 2.66663H47.9376C48.6737 2.66663 49.2706 3.26355 49.2706 4.00024V15.9998H30.6042V4.00024ZM54.6039 73.6652V74.6667C54.6039 76.1395 53.41 77.3334 51.9373 77.3334H27.9376C26.4648 77.3334 25.271 76.1395 25.271 74.6667V73.6652C25.4626 73.7402 25.6616 73.7988 25.8575 73.8629C26.0535 73.9264 26.2122 73.9893 26.391 74.0442C26.6577 74.1211 26.9147 74.1772 27.179 74.2468C27.3761 74.2944 27.5696 74.3469 27.7679 74.3799C28.0524 74.436 28.3405 74.472 28.6267 74.5135C28.808 74.5386 28.9868 74.5721 29.1705 74.5905C29.6454 74.6362 30.1227 74.6625 30.6012 74.6625H49.2706C49.7498 74.6625 50.2271 74.6362 50.7013 74.5905C50.8856 74.5721 51.0645 74.5386 51.2457 74.5135C51.532 74.4745 51.8201 74.4385 52.1039 74.3799C52.3029 74.3402 52.4963 74.2877 52.6935 74.2468C52.9602 74.184 53.2269 74.1211 53.4814 74.0442C53.6627 73.9893 53.8403 73.924 54.0149 73.8629C54.1895 73.8013 54.4122 73.7402 54.6039 73.6652ZM61.2708 30.6665V60C61.2451 64.8236 58.3575 69.1718 53.9215 71.0669C53.819 71.1096 53.7109 71.1414 53.6084 71.181C53.2666 71.3147 52.9218 71.4331 52.5696 71.5332C52.4231 71.5747 52.2748 71.6107 52.1252 71.6479C51.792 71.7291 51.4551 71.7963 51.1133 71.8494C50.9802 71.8695 50.8466 71.8945 50.7043 71.9122C50.2283 71.9696 49.7498 71.9989 49.2706 72.0001H30.6042C30.1251 71.9971 29.6466 71.9659 29.1705 71.9067C29.0375 71.889 28.8977 71.864 28.7616 71.8439C28.4204 71.7908 28.0829 71.7236 27.7496 71.6425C27.6001 71.6052 27.4524 71.5692 27.3053 71.5277C26.9537 71.4282 26.6083 71.308 26.2671 71.1761C26.1639 71.1359 26.0559 71.1041 25.9534 71.0614C21.5192 69.1675 18.6322 64.8218 18.6041 60V30.6665C18.6121 24.0424 23.9801 18.6749 30.6042 18.6664H49.2706C55.8948 18.6749 61.2628 24.0424 61.2708 30.6665Z" fill="#00A6FB"/>
<path d="M44.1442 40.6385C41.7443 38.7111 39.6709 37.0387 39.6709 35.0386C39.7753 34.336 40.1958 33.719 40.8123 33.3656C41.3683 32.9798 41.5886 32.2639 41.3451 31.6322C41.101 30.9925 40.4534 30.6013 39.7734 30.6825C34.9736 31.2562 32.7318 36.9416 32.7318 40.6025C32.8368 42.375 33.4331 44.0834 34.4536 45.536C34.9199 46.1732 35.2422 46.9038 35.3984 47.6777C35.3984 48.8777 35.0109 48.8777 34.5989 48.8777C34.0038 48.8777 33.7041 48.7532 33.6199 48.636C33.4734 48.1611 33.51 47.6484 33.7224 47.1986C33.9312 46.5901 33.6992 45.9175 33.1603 45.5665C32.6146 45.2394 31.9213 45.2955 31.436 45.7069C29.3193 47.657 28.0614 50.3663 27.9375 53.2417C27.9375 59.1426 32.423 62.6667 39.9376 62.6667C47.4523 62.6667 51.9371 59.1426 51.9371 53.2417C51.9371 46.9026 47.6158 43.4297 44.1442 40.6385ZM39.9376 60.0001C36.4519 60.0001 30.6041 59.1212 30.6041 53.2417C30.6182 52.1498 30.8922 51.0774 31.4043 50.1136C31.4202 50.1374 31.4348 50.16 31.4519 50.1814C32.2051 51.1384 33.391 51.6493 34.6038 51.54C36.2798 51.54 38.0706 50.5269 38.0706 47.6735C37.9534 46.4094 37.498 45.2003 36.7522 44.1737C35.9905 43.1239 35.5254 41.8885 35.4039 40.5976C35.4418 38.755 36.0009 36.9606 37.0159 35.4225C37.2161 38.4895 39.7722 40.5482 42.4736 42.7174C45.8147 45.4042 49.2736 48.1843 49.2736 53.2417C49.2705 59.1212 43.4227 60.0001 39.9376 60.0001Z" fill="#00A6FB"/>
<g filter="url(#filter0_f)">
<path d="M43.937 5.33325H35.9371C34.4644 5.33325 33.2705 6.5271 33.2705 7.99988V10.6665C33.2705 12.1393 34.4644 13.3331 35.9371 13.3331H43.937C45.4098 13.3331 46.6036 12.1393 46.6036 10.6665V7.99988C46.6036 6.5271 45.4098 5.33325 43.937 5.33325ZM35.9371 10.6665V7.99988H43.937V10.6665H35.9371Z" fill="#4BC2FF"/>
<path d="M47.9376 0H31.9373C29.7284 0 27.9376 1.79077 27.9376 4.00024V16.2549C20.9906 17.5458 15.9491 23.6011 15.9375 30.6665V60C15.943 64.9561 18.4503 69.574 22.6044 72.2772V74.6667C22.6044 77.6123 24.9921 80 27.9376 80H51.9373C54.8828 80 57.2711 77.6123 57.2711 74.6667V72.2772C61.4246 69.574 63.9325 64.9561 63.9374 60V30.6665C63.9264 23.6011 58.8843 17.5458 51.9373 16.2549V4.00024C51.9373 1.79077 50.1465 0 47.9376 0ZM30.6042 4.00024C30.6042 3.26355 31.2012 2.66663 31.9373 2.66663H47.9376C48.6737 2.66663 49.2706 3.26355 49.2706 4.00024V15.9998H30.6042V4.00024ZM54.6039 73.6652V74.6667C54.6039 76.1395 53.41 77.3334 51.9373 77.3334H27.9376C26.4648 77.3334 25.271 76.1395 25.271 74.6667V73.6652C25.4626 73.7402 25.6616 73.7988 25.8575 73.8629C26.0535 73.9264 26.2122 73.9893 26.391 74.0442C26.6577 74.1211 26.9147 74.1772 27.179 74.2468C27.3761 74.2944 27.5696 74.3469 27.7679 74.3799C28.0524 74.436 28.3405 74.472 28.6267 74.5135C28.808 74.5386 28.9868 74.5721 29.1705 74.5905C29.6454 74.6362 30.1227 74.6625 30.6012 74.6625H49.2706C49.7498 74.6625 50.2271 74.6362 50.7013 74.5905C50.8856 74.5721 51.0645 74.5386 51.2457 74.5135C51.532 74.4745 51.8201 74.4385 52.1039 74.3799C52.3029 74.3402 52.4963 74.2877 52.6935 74.2468C52.9602 74.184 53.2269 74.1211 53.4814 74.0442C53.6627 73.9893 53.8403 73.924 54.0149 73.8629C54.1895 73.8013 54.4122 73.7402 54.6039 73.6652ZM61.2708 30.6665V60C61.2451 64.8236 58.3575 69.1718 53.9215 71.0669C53.819 71.1096 53.7109 71.1414 53.6084 71.181C53.2666 71.3147 52.9218 71.4331 52.5696 71.5332C52.4231 71.5747 52.2748 71.6107 52.1252 71.6479C51.792 71.7291 51.4551 71.7963 51.1133 71.8494C50.9802 71.8695 50.8466 71.8945 50.7043 71.9122C50.2283 71.9696 49.7498 71.9989 49.2706 72.0001H30.6042C30.1251 71.9971 29.6466 71.9659 29.1705 71.9067C29.0375 71.889 28.8977 71.864 28.7616 71.8439C28.4204 71.7908 28.0829 71.7236 27.7496 71.6425C27.6001 71.6052 27.4524 71.5692 27.3053 71.5277C26.9537 71.4282 26.6083 71.308 26.2671 71.1761C26.1639 71.1359 26.0559 71.1041 25.9534 71.0614C21.5192 69.1675 18.6322 64.8218 18.6041 60V30.6665C18.6121 24.0424 23.9801 18.6749 30.6042 18.6664H49.2706C55.8948 18.6749 61.2628 24.0424 61.2708 30.6665Z" fill="#4BC2FF"/>
<path d="M44.1442 40.6385C41.7443 38.7111 39.6709 37.0387 39.6709 35.0386C39.7753 34.336 40.1958 33.719 40.8123 33.3656C41.3683 32.9798 41.5886 32.2639 41.3451 31.6322C41.101 30.9925 40.4534 30.6013 39.7734 30.6825C34.9736 31.2562 32.7318 36.9416 32.7318 40.6025C32.8368 42.375 33.4331 44.0834 34.4536 45.536C34.9199 46.1732 35.2422 46.9038 35.3984 47.6777C35.3984 48.8777 35.0109 48.8777 34.5989 48.8777C34.0038 48.8777 33.7041 48.7532 33.6199 48.636C33.4734 48.1611 33.51 47.6484 33.7224 47.1986C33.9312 46.5901 33.6992 45.9175 33.1603 45.5665C32.6146 45.2394 31.9213 45.2955 31.436 45.7069C29.3193 47.657 28.0614 50.3663 27.9375 53.2417C27.9375 59.1426 32.423 62.6667 39.9376 62.6667C47.4523 62.6667 51.9371 59.1426 51.9371 53.2417C51.9371 46.9026 47.6158 43.4297 44.1442 40.6385ZM39.9376 60.0001C36.4519 60.0001 30.6041 59.1212 30.6041 53.2417C30.6182 52.1498 30.8922 51.0774 31.4043 50.1136C31.4202 50.1374 31.4348 50.16 31.4519 50.1814C32.2051 51.1384 33.391 51.6493 34.6038 51.54C36.2798 51.54 38.0706 50.5269 38.0706 47.6735C37.9534 46.4094 37.498 45.2003 36.7522 44.1737C35.9905 43.1239 35.5254 41.8885 35.4039 40.5976C35.4418 38.755 36.0009 36.9606 37.0159 35.4225C37.2161 38.4895 39.7722 40.5482 42.4736 42.7174C45.8147 45.4042 49.2736 48.1843 49.2736 53.2417C49.2705 59.1212 43.4227 60.0001 39.9376 60.0001Z" fill="#4BC2FF"/>
</g>
</g>
<defs>
<filter id="filter0_f" x="-4" y="-4" width="88" height="88" filterUnits="userSpaceOnUse" color-interpolation-filters="sRGB">
<feFlood flood-opacity="0" result="BackgroundImageFix"/>
<feBlend mode="normal" in="SourceGraphic" in2="BackgroundImageFix" result="shape"/>
<feGaussianBlur stdDeviation="2" result="effect1_foregroundBlur"/>
</filter>
<clipPath id="clip0">
<rect width="80" height="80" fill="white"/>
</clipPath>
</defs>
</svg>
