<svg width="80" height="80" viewBox="0 0 80 80" fill="none" xmlns="http://www.w3.org/2000/svg">
<path d="M64.8646 69.1892H15.1349C13.988 69.1892 12.8881 68.7336 12.0771 67.9226C11.2661 67.1116 10.8105 66.0117 10.8105 64.8648V15.1351C10.8105 13.9882 11.2661 12.8883 12.0771 12.0774C12.8881 11.2664 13.988 10.8108 15.1349 10.8108H64.8646C66.0115 10.8108 67.1114 11.2664 67.9224 12.0774C68.7333 12.8883 69.1889 13.9882 69.1889 15.1351V64.8648C69.1889 66.0117 68.7333 67.1116 67.9224 67.9226C67.1114 68.7336 66.0115 69.1892 64.8646 69.1892ZM15.1349 12.973C14.5614 12.973 14.0115 13.2008 13.606 13.6062C13.2005 14.0117 12.9727 14.5617 12.9727 15.1351V64.8648C12.9727 65.4383 13.2005 65.9882 13.606 66.3937C14.0115 66.7992 14.5614 67.027 15.1349 67.027H64.8646C65.438 67.027 65.988 66.7992 66.3935 66.3937C66.799 65.9882 67.0268 65.4383 67.0268 64.8648V15.1351C67.0268 14.5617 66.799 14.0117 66.3935 13.6062C65.988 13.2008 65.438 12.973 64.8646 12.973H15.1349Z" fill="black"/>
<path d="M18.378 50.8778C18.0912 50.8778 17.8163 50.7639 17.6135 50.5612C17.4108 50.3584 17.2969 50.0834 17.2969 49.7967V47.7708C17.2969 47.4841 17.4108 47.2091 17.6135 47.0063C17.8163 46.8036 18.0912 46.6897 18.378 46.6897C18.6647 46.6897 18.9397 46.8036 19.1424 47.0063C19.3451 47.2091 19.459 47.4841 19.459 47.7708V49.7967C19.459 50.0834 19.3451 50.3584 19.1424 50.5612C18.9397 50.7639 18.6647 50.8778 18.378 50.8778Z" fill="black"/>
<path d="M60.5401 62.7028H19.459C18.8856 62.7028 18.3356 62.475 17.9302 62.0695C17.5247 61.664 17.2969 61.1141 17.2969 60.5406V55.2022C17.2969 54.9155 17.4108 54.6405 17.6135 54.4378C17.8163 54.235 18.0912 54.1212 18.378 54.1212C18.6647 54.1212 18.9397 54.235 19.1424 54.4378C19.3451 54.6405 19.459 54.9155 19.459 55.2022V60.5406H60.5401V19.4595H19.459V42.3655C19.459 42.6522 19.3451 42.9272 19.1424 43.1299C18.9397 43.3327 18.6647 43.4466 18.378 43.4466C18.0912 43.4466 17.8163 43.3327 17.6135 43.1299C17.4108 42.9272 17.2969 42.6522 17.2969 42.3655V19.4595C17.2969 18.8861 17.5247 18.3361 17.9302 17.9306C18.3356 17.5252 18.8856 17.2974 19.459 17.2974H60.5401C61.1136 17.2974 61.6635 17.5252 62.069 17.9306C62.4745 18.3361 62.7023 18.8861 62.7023 19.4595V60.5406C62.7023 61.1141 62.4745 61.664 62.069 62.0695C61.6635 62.475 61.1136 62.7028 60.5401 62.7028Z" fill="black"/>
<path d="M59.459 12.9729C59.1723 12.9729 58.8973 12.859 58.6946 12.6563C58.4918 12.4535 58.3779 12.1786 58.3779 11.8918V3.24319C58.3779 2.95647 58.4918 2.68149 58.6946 2.47875C58.8973 2.27601 59.1723 2.16211 59.459 2.16211C59.7457 2.16211 60.0207 2.27601 60.2235 2.47875C60.4262 2.68149 60.5401 2.95647 60.5401 3.24319V11.8918C60.5401 12.1786 60.4262 12.4535 60.2235 12.6563C60.0207 12.859 59.7457 12.9729 59.459 12.9729Z" fill="black"/>
<path d="M51.6758 12.9729C51.3891 12.9729 51.1141 12.859 50.9114 12.6563C50.7086 12.4535 50.5947 12.1786 50.5947 11.8918V3.24319C50.5947 2.95647 50.7086 2.68149 50.9114 2.47875C51.1141 2.27601 51.3891 2.16211 51.6758 2.16211C51.9625 2.16211 52.2375 2.27601 52.4403 2.47875C52.643 2.68149 52.7569 2.95647 52.7569 3.24319V11.8918C52.7569 12.1786 52.643 12.4535 52.4403 12.6563C52.2375 12.859 51.9625 12.9729 51.6758 12.9729Z" fill="black"/>
<path d="M43.8916 12.9729C43.6049 12.9729 43.3299 12.859 43.1272 12.6563C42.9244 12.4535 42.8105 12.1786 42.8105 11.8918V3.24319C42.8105 2.95647 42.9244 2.68149 43.1272 2.47875C43.3299 2.27601 43.6049 2.16211 43.8916 2.16211C44.1784 2.16211 44.4533 2.27601 44.6561 2.47875C44.8588 2.68149 44.9727 2.95647 44.9727 3.24319V11.8918C44.9727 12.1786 44.8588 12.4535 44.6561 12.6563C44.4533 12.859 44.1784 12.9729 43.8916 12.9729Z" fill="black"/>
<path d="M36.1084 12.9729C35.8217 12.9729 35.5467 12.859 35.344 12.6563C35.1412 12.4535 35.0273 12.1786 35.0273 11.8918V3.24319C35.0273 2.95647 35.1412 2.68149 35.344 2.47875C35.5467 2.27601 35.8217 2.16211 36.1084 2.16211C36.3951 2.16211 36.6701 2.27601 36.8729 2.47875C37.0756 2.68149 37.1895 2.95647 37.1895 3.24319V11.8918C37.1895 12.1786 37.0756 12.4535 36.8729 12.6563C36.6701 12.859 36.3951 12.9729 36.1084 12.9729Z" fill="black"/>
<path d="M28.3242 12.9729C28.0375 12.9729 27.7625 12.859 27.5598 12.6563C27.3571 12.4535 27.2432 12.1786 27.2432 11.8918V3.24319C27.2432 2.95647 27.3571 2.68149 27.5598 2.47875C27.7625 2.27601 28.0375 2.16211 28.3242 2.16211C28.611 2.16211 28.8859 2.27601 29.0887 2.47875C29.2914 2.68149 29.4053 2.95647 29.4053 3.24319V11.8918C29.4053 12.1786 29.2914 12.4535 29.0887 12.6563C28.8859 12.859 28.611 12.9729 28.3242 12.9729Z" fill="black"/>
<path d="M20.5401 12.9729C20.2533 12.9729 19.9784 12.859 19.7756 12.6563C19.5729 12.4535 19.459 12.1786 19.459 11.8918V3.24319C19.459 2.95647 19.5729 2.68149 19.7756 2.47875C19.9784 2.27601 20.2533 2.16211 20.5401 2.16211C20.8268 2.16211 21.1018 2.27601 21.3045 2.47875C21.5072 2.68149 21.6211 2.95647 21.6211 3.24319V11.8918C21.6211 12.1786 21.5072 12.4535 21.3045 12.6563C21.1018 12.859 20.8268 12.9729 20.5401 12.9729Z" fill="black"/>
<path d="M59.459 77.8379C59.1723 77.8379 58.8973 77.724 58.6946 77.5213C58.4918 77.3185 58.3779 77.0435 58.3779 76.7568V68.1082C58.3779 67.8215 58.4918 67.5465 58.6946 67.3437C58.8973 67.141 59.1723 67.0271 59.459 67.0271C59.7457 67.0271 60.0207 67.141 60.2235 67.3437C60.4262 67.5465 60.5401 67.8215 60.5401 68.1082V76.7568C60.5401 77.0435 60.4262 77.3185 60.2235 77.5213C60.0207 77.724 59.7457 77.8379 59.459 77.8379Z" fill="black"/>
<path d="M51.6758 77.8379C51.3891 77.8379 51.1141 77.724 50.9114 77.5213C50.7086 77.3185 50.5947 77.0435 50.5947 76.7568V68.1082C50.5947 67.8215 50.7086 67.5465 50.9114 67.3437C51.1141 67.141 51.3891 67.0271 51.6758 67.0271C51.9625 67.0271 52.2375 67.141 52.4403 67.3437C52.643 67.5465 52.7569 67.8215 52.7569 68.1082V76.7568C52.7569 77.0435 52.643 77.3185 52.4403 77.5213C52.2375 77.724 51.9625 77.8379 51.6758 77.8379Z" fill="black"/>
<path d="M43.8916 77.8379C43.6049 77.8379 43.3299 77.724 43.1272 77.5213C42.9244 77.3185 42.8105 77.0435 42.8105 76.7568V68.1082C42.8105 67.8215 42.9244 67.5465 43.1272 67.3437C43.3299 67.141 43.6049 67.0271 43.8916 67.0271C44.1784 67.0271 44.4533 67.141 44.6561 67.3437C44.8588 67.5465 44.9727 67.8215 44.9727 68.1082V76.7568C44.9727 77.0435 44.8588 77.3185 44.6561 77.5213C44.4533 77.724 44.1784 77.8379 43.8916 77.8379Z" fill="black"/>
<path d="M36.1084 77.8379C35.8217 77.8379 35.5467 77.724 35.344 77.5213C35.1412 77.3185 35.0273 77.0435 35.0273 76.7568V68.1082C35.0273 67.8215 35.1412 67.5465 35.344 67.3437C35.5467 67.141 35.8217 67.0271 36.1084 67.0271C36.3951 67.0271 36.6701 67.141 36.8729 67.3437C37.0756 67.5465 37.1895 67.8215 37.1895 68.1082V76.7568C37.1895 77.0435 37.0756 77.3185 36.8729 77.5213C36.6701 77.724 36.3951 77.8379 36.1084 77.8379Z" fill="black"/>
<path d="M28.3242 77.8379C28.0375 77.8379 27.7625 77.724 27.5598 77.5213C27.3571 77.3185 27.2432 77.0435 27.2432 76.7568V68.1082C27.2432 67.8215 27.3571 67.5465 27.5598 67.3437C27.7625 67.141 28.0375 67.0271 28.3242 67.0271C28.611 67.0271 28.8859 67.141 29.0887 67.3437C29.2914 67.5465 29.4053 67.8215 29.4053 68.1082V76.7568C29.4053 77.0435 29.2914 77.3185 29.0887 77.5213C28.8859 77.724 28.611 77.8379 28.3242 77.8379Z" fill="black"/>
<path d="M20.5401 77.8379C20.2533 77.8379 19.9784 77.724 19.7756 77.5213C19.5729 77.3185 19.459 77.0435 19.459 76.7568V68.1082C19.459 67.8215 19.5729 67.5465 19.7756 67.3437C19.9784 67.141 20.2533 67.0271 20.5401 67.0271C20.8268 67.0271 21.1018 67.141 21.3045 67.3437C21.5072 67.5465 21.6211 67.8215 21.6211 68.1082V76.7568C21.6211 77.0435 21.5072 77.3185 21.3045 77.5213C21.1018 77.724 20.8268 77.8379 20.5401 77.8379Z" fill="black"/>
<path d="M76.7571 60.5406H68.1084C67.8217 60.5406 67.5467 60.4267 67.344 60.2239C67.1412 60.0212 67.0273 59.7462 67.0273 59.4595C67.0273 59.1728 67.1412 58.8978 67.344 58.6951C67.5467 58.4923 67.8217 58.3784 68.1084 58.3784H76.7571C77.0438 58.3784 77.3188 58.4923 77.5215 58.6951C77.7242 58.8978 77.8381 59.1728 77.8381 59.4595C77.8381 59.7462 77.7242 60.0212 77.5215 60.2239C77.3188 60.4267 77.0438 60.5406 76.7571 60.5406Z" fill="black"/>
<path d="M76.7571 52.7566H68.1084C67.8217 52.7566 67.5467 52.6427 67.344 52.44C67.1412 52.2373 67.0273 51.9623 67.0273 51.6756C67.0273 51.3888 67.1412 51.1139 67.344 50.9111C67.5467 50.7084 67.8217 50.5945 68.1084 50.5945H76.7571C77.0438 50.5945 77.3188 50.7084 77.5215 50.9111C77.7242 51.1139 77.8381 51.3888 77.8381 51.6756C77.8381 51.9623 77.7242 52.2373 77.5215 52.44C77.3188 52.6427 77.0438 52.7566 76.7571 52.7566Z" fill="black"/>
<path d="M76.7571 44.973H68.1084C67.8217 44.973 67.5467 44.8591 67.344 44.6563C67.1412 44.4536 67.0273 44.1786 67.0273 43.8919C67.0273 43.6052 67.1412 43.3302 67.344 43.1274C67.5467 42.9247 67.8217 42.8108 68.1084 42.8108H76.7571C77.0438 42.8108 77.3188 42.9247 77.5215 43.1274C77.7242 43.3302 77.8381 43.6052 77.8381 43.8919C77.8381 44.1786 77.7242 44.4536 77.5215 44.6563C77.3188 44.8591 77.0438 44.973 76.7571 44.973Z" fill="black"/>
<path d="M76.7571 37.189H68.1084C67.8217 37.189 67.5467 37.0751 67.344 36.8724C67.1412 36.6696 67.0273 36.3947 67.0273 36.1079C67.0273 35.8212 67.1412 35.5462 67.344 35.3435C67.5467 35.1408 67.8217 35.0269 68.1084 35.0269H76.7571C77.0438 35.0269 77.3188 35.1408 77.5215 35.3435C77.7242 35.5462 77.8381 35.8212 77.8381 36.1079C77.8381 36.3947 77.7242 36.6696 77.5215 36.8724C77.3188 37.0751 77.0438 37.189 76.7571 37.189Z" fill="black"/>
<path d="M76.7571 29.4056H68.1084C67.8217 29.4056 67.5467 29.2917 67.344 29.0889C67.1412 28.8862 67.0273 28.6112 67.0273 28.3245C67.0273 28.0378 67.1412 27.7628 67.344 27.56C67.5467 27.3573 67.8217 27.2434 68.1084 27.2434H76.7571C77.0438 27.2434 77.3188 27.3573 77.5215 27.56C77.7242 27.7628 77.8381 28.0378 77.8381 28.3245C77.8381 28.6112 77.7242 28.8862 77.5215 29.0889C77.3188 29.2917 77.0438 29.4056 76.7571 29.4056Z" fill="black"/>
<path d="M76.7571 21.6216H68.1084C67.8217 21.6216 67.5467 21.5077 67.344 21.305C67.1412 21.1023 67.0273 20.8273 67.0273 20.5406C67.0273 20.2538 67.1412 19.9789 67.344 19.7761C67.5467 19.5734 67.8217 19.4595 68.1084 19.4595H76.7571C77.0438 19.4595 77.3188 19.5734 77.5215 19.7761C77.7242 19.9789 77.8381 20.2538 77.8381 20.5406C77.8381 20.8273 77.7242 21.1023 77.5215 21.305C77.3188 21.5077 77.0438 21.6216 76.7571 21.6216Z" fill="black"/>
<path d="M11.8918 60.5406H3.24319C2.95647 60.5406 2.68149 60.4267 2.47875 60.2239C2.27601 60.0212 2.16211 59.7462 2.16211 59.4595C2.16211 59.1728 2.27601 58.8978 2.47875 58.6951C2.68149 58.4923 2.95647 58.3784 3.24319 58.3784H11.8918C12.1786 58.3784 12.4535 58.4923 12.6563 58.6951C12.859 58.8978 12.9729 59.1728 12.9729 59.4595C12.9729 59.7462 12.859 60.0212 12.6563 60.2239C12.4535 60.4267 12.1786 60.5406 11.8918 60.5406Z" fill="black"/>
<path d="M11.8918 52.7566H3.24319C2.95647 52.7566 2.68149 52.6427 2.47875 52.44C2.27601 52.2373 2.16211 51.9623 2.16211 51.6756C2.16211 51.3888 2.27601 51.1139 2.47875 50.9111C2.68149 50.7084 2.95647 50.5945 3.24319 50.5945H11.8918C12.1786 50.5945 12.4535 50.7084 12.6563 50.9111C12.859 51.1139 12.9729 51.3888 12.9729 51.6756C12.9729 51.9623 12.859 52.2373 12.6563 52.44C12.4535 52.6427 12.1786 52.7566 11.8918 52.7566Z" fill="black"/>
<path d="M11.8918 44.973H3.24319C2.95647 44.973 2.68149 44.8591 2.47875 44.6563C2.27601 44.4536 2.16211 44.1786 2.16211 43.8919C2.16211 43.6052 2.27601 43.3302 2.47875 43.1274C2.68149 42.9247 2.95647 42.8108 3.24319 42.8108H11.8918C12.1786 42.8108 12.4535 42.9247 12.6563 43.1274C12.859 43.3302 12.9729 43.6052 12.9729 43.8919C12.9729 44.1786 12.859 44.4536 12.6563 44.6563C12.4535 44.8591 12.1786 44.973 11.8918 44.973Z" fill="black"/>
<path d="M11.8918 37.189H3.24319C2.95647 37.189 2.68149 37.0751 2.47875 36.8724C2.27601 36.6696 2.16211 36.3947 2.16211 36.1079C2.16211 35.8212 2.27601 35.5462 2.47875 35.3435C2.68149 35.1408 2.95647 35.0269 3.24319 35.0269H11.8918C12.1786 35.0269 12.4535 35.1408 12.6563 35.3435C12.859 35.5462 12.9729 35.8212 12.9729 36.1079C12.9729 36.3947 12.859 36.6696 12.6563 36.8724C12.4535 37.0751 12.1786 37.189 11.8918 37.189Z" fill="black"/>
<path d="M11.8918 29.4056H3.24319C2.95647 29.4056 2.68149 29.2917 2.47875 29.0889C2.27601 28.8862 2.16211 28.6112 2.16211 28.3245C2.16211 28.0378 2.27601 27.7628 2.47875 27.56C2.68149 27.3573 2.95647 27.2434 3.24319 27.2434H11.8918C12.1786 27.2434 12.4535 27.3573 12.6563 27.56C12.859 27.7628 12.9729 28.0378 12.9729 28.3245C12.9729 28.6112 12.859 28.8862 12.6563 29.0889C12.4535 29.2917 12.1786 29.4056 11.8918 29.4056Z" fill="black"/>
<path d="M11.8918 21.6216H3.24319C2.95647 21.6216 2.68149 21.5077 2.47875 21.305C2.27601 21.1023 2.16211 20.8273 2.16211 20.5406C2.16211 20.2538 2.27601 19.9789 2.47875 19.7761C2.68149 19.5734 2.95647 19.4595 3.24319 19.4595H11.8918C12.1786 19.4595 12.4535 19.5734 12.6563 19.7761C12.859 19.9789 12.9729 20.2538 12.9729 20.5406C12.9729 20.8273 12.859 21.1023 12.6563 21.305C12.4535 21.5077 12.1786 21.6216 11.8918 21.6216Z" fill="black"/>
<path d="M32.432 28.1082H18.378C18.0912 28.1082 17.8163 27.9943 17.6135 27.7916C17.4108 27.5888 17.2969 27.3138 17.2969 27.0271C17.2969 26.7404 17.4108 26.4654 17.6135 26.2627C17.8163 26.0599 18.0912 25.946 18.378 25.946H32.432C32.7187 25.946 32.9937 26.0599 33.1965 26.2627C33.3992 26.4654 33.5131 26.7404 33.5131 27.0271C33.5131 27.3138 33.3992 27.5888 33.1965 27.7916C32.9937 27.9943 32.7187 28.1082 32.432 28.1082Z" fill="black"/>
<path d="M35.4391 31.1146C34.6307 31.1146 33.8404 30.8749 33.1682 30.4257C32.496 29.9766 31.9721 29.3382 31.6627 28.5913C31.3533 27.8444 31.2724 27.0225 31.4301 26.2296C31.5878 25.4367 31.9771 24.7083 32.5488 24.1367C33.1204 23.565 33.8488 23.1757 34.6417 23.018C35.4346 22.8603 36.2565 22.9412 37.0034 23.2506C37.7503 23.56 38.3887 24.0839 38.8378 24.7561C39.287 25.4283 39.5267 26.2186 39.5267 27.027C39.5256 28.1108 39.0945 29.1498 38.3282 29.9161C37.5619 30.6824 36.5229 31.1134 35.4391 31.1146ZM35.4391 25.1016C35.0583 25.1016 34.6861 25.2145 34.3694 25.4261C34.0528 25.6377 33.806 25.9384 33.6603 26.2902C33.5146 26.642 33.4764 27.0292 33.5507 27.4027C33.625 27.7761 33.8084 28.1192 34.0777 28.3885C34.3469 28.6578 34.69 28.8411 35.0635 28.9154C35.437 28.9897 35.8241 28.9516 36.176 28.8059C36.5278 28.6601 36.8285 28.4134 37.0401 28.0967C37.2516 27.7801 37.3645 27.4078 37.3645 27.027C37.364 26.5165 37.1609 26.0271 36.8 25.6662C36.439 25.3052 35.9496 25.1022 35.4391 25.1016Z" fill="black"/>
<path d="M61.6214 50.8108H51.416C51.1293 50.8108 50.8543 50.6969 50.6516 50.4942C50.4489 50.2915 50.335 50.0165 50.335 49.7298C50.335 49.443 50.4489 49.1681 50.6516 48.9653C50.8543 48.7626 51.1293 48.6487 51.416 48.6487H61.6214C61.9082 48.6487 62.1831 48.7626 62.3859 48.9653C62.5886 49.1681 62.7025 49.443 62.7025 49.7298C62.7025 50.0165 62.5886 50.2915 62.3859 50.4942C62.1831 50.6969 61.9082 50.8108 61.6214 50.8108Z" fill="black"/>
<path d="M48.4118 53.8172C47.6033 53.8172 46.8131 53.5775 46.1409 53.1283C45.4687 52.6792 44.9447 52.0408 44.6354 51.2939C44.326 50.547 44.245 49.7251 44.4028 48.9322C44.5605 48.1393 44.9498 47.411 45.5214 46.8393C46.0931 46.2677 46.8214 45.8784 47.6143 45.7206C48.4072 45.5629 49.2291 45.6439 49.976 45.9532C50.7229 46.2626 51.3613 46.7865 51.8105 47.4587C52.2596 48.1309 52.4993 48.9212 52.4993 49.7297C52.4982 50.8134 52.0672 51.8524 51.3009 52.6187C50.5345 53.3851 49.4955 53.8161 48.4118 53.8172ZM48.4118 47.8043C48.031 47.8043 47.6587 47.9172 47.3421 48.1287C47.0255 48.3403 46.7787 48.641 46.6329 48.9928C46.4872 49.3447 46.4491 49.7318 46.5234 50.1053C46.5977 50.4788 46.781 50.8219 47.0503 51.0911C47.3196 51.3604 47.6627 51.5438 48.0362 51.6181C48.4096 51.6924 48.7968 51.6542 49.1486 51.5085C49.5004 51.3628 49.8011 51.116 50.0127 50.7994C50.2243 50.4827 50.3372 50.1105 50.3372 49.7297C50.3366 49.2192 50.1336 48.7298 49.7726 48.3688C49.4117 48.0079 48.9223 47.8048 48.4118 47.8043Z" fill="black"/>
<path d="M30.0339 40.8529C29.2254 40.8529 28.4351 40.6131 27.7629 40.164C27.0907 39.7148 26.5668 39.0764 26.2574 38.3295C25.9481 37.5826 25.8671 36.7608 26.0248 35.9679C26.1826 35.1749 26.5719 34.4466 27.1435 33.875C27.7152 33.3033 28.4435 32.914 29.2364 32.7563C30.0293 32.5986 30.8512 32.6795 31.5981 32.9889C32.345 33.2983 32.9834 33.8222 33.4326 34.4944C33.8817 35.1666 34.1214 35.9569 34.1214 36.7653C34.1203 37.849 33.6893 38.8881 32.9229 39.6544C32.1566 40.4207 31.1176 40.8517 30.0339 40.8529ZM30.0339 34.8399C29.6531 34.8399 29.2808 34.9528 28.9642 35.1644C28.6475 35.376 28.4007 35.6767 28.255 36.0285C28.1093 36.3803 28.0712 36.7674 28.1455 37.1409C28.2197 37.5144 28.4031 37.8575 28.6724 38.1268C28.9417 38.396 29.2847 38.5794 29.6582 38.6537C30.0317 38.728 30.4189 38.6899 30.7707 38.5441C31.1225 38.3984 31.4232 38.1516 31.6348 37.835C31.8463 37.5184 31.9593 37.1461 31.9593 36.7653C31.959 36.2547 31.756 35.7652 31.395 35.4042C31.034 35.0431 30.5444 34.8402 30.0339 34.8399Z" fill="black"/>
<path d="M27.0266 37.8379H18.378C18.0912 37.8379 17.8163 37.724 17.6135 37.5213C17.4108 37.3186 17.2969 37.0436 17.2969 36.7569C17.2969 36.4701 17.4108 36.1952 17.6135 35.9924C17.8163 35.7897 18.0912 35.6758 18.378 35.6758H27.0266C27.3133 35.6758 27.5883 35.7897 27.791 35.9924C27.9938 36.1952 28.1077 36.4701 28.1077 36.7569C28.1077 37.0436 27.9938 37.3186 27.791 37.5213C27.5883 37.724 27.3133 37.8379 27.0266 37.8379Z" fill="black"/>
<path d="M27.568 54.6618C26.8196 54.6618 26.088 54.4399 25.4658 54.0241C24.8436 53.6084 24.3586 53.0174 24.0722 52.326C23.7858 51.6346 23.7109 50.8738 23.8569 50.1398C24.0029 49.4059 24.3633 48.7317 24.8924 48.2025C25.4216 47.6733 26.0958 47.3129 26.8298 47.1669C27.5638 47.0209 28.3246 47.0959 29.016 47.3823C29.7074 47.6686 30.2983 48.1536 30.7141 48.7759C31.1298 49.3981 31.3518 50.1297 31.3518 50.878C31.3518 51.8815 30.9531 52.844 30.2435 53.5536C29.5339 54.2632 28.5715 54.6618 27.568 54.6618ZM27.568 49.2564C27.2472 49.2564 26.9337 49.3515 26.667 49.5297C26.4004 49.7079 26.1925 49.9611 26.0698 50.2575C25.947 50.5538 25.9149 50.8798 25.9775 51.1944C26.0401 51.5089 26.1945 51.7979 26.4213 52.0247C26.6481 52.2515 26.937 52.4059 27.2516 52.4685C27.5662 52.5311 27.8922 52.4989 28.1885 52.3762C28.4848 52.2535 28.7381 52.0456 28.9163 51.7789C29.0945 51.5123 29.1896 51.1987 29.1896 50.878C29.1896 50.4479 29.0187 50.0355 28.7146 49.7314C28.4105 49.4272 27.998 49.2564 27.568 49.2564Z" fill="black"/>
<path d="M32.1952 62.7026C31.9085 62.7026 31.6335 62.5887 31.4308 62.3859C31.228 62.1832 31.1141 61.9082 31.1141 61.6215V55.3663L28.9736 53.2291C28.8703 53.1293 28.788 53.01 28.7313 52.8781C28.6747 52.7462 28.6448 52.6044 28.6436 52.4608C28.6423 52.3173 28.6697 52.1749 28.7241 52.0421C28.7784 51.9092 28.8587 51.7885 28.9602 51.687C29.0617 51.5855 29.1824 51.5052 29.3153 51.4509C29.4481 51.3965 29.5905 51.3692 29.734 51.3704C29.8776 51.3716 30.0194 51.4015 30.1513 51.4581C30.2832 51.5148 30.4025 51.5972 30.5022 51.7004L32.9563 54.1545C33.159 54.3571 33.273 54.6321 33.2731 54.9188V61.6215C33.2731 61.9076 33.1596 62.1821 32.9576 62.3848C32.7555 62.5874 32.4814 62.7017 32.1952 62.7026Z" fill="black"/>
<path d="M48.7154 33.3276C47.9671 33.3276 47.2355 33.1057 46.6133 32.6899C45.991 32.2741 45.5061 31.6832 45.2197 30.9918C44.9333 30.3004 44.8583 29.5396 45.0043 28.8056C45.1503 28.0716 45.5107 27.3974 46.0399 26.8683C46.5691 26.3391 47.2433 25.9787 47.9772 25.8327C48.7112 25.6867 49.472 25.7616 50.1634 26.048C50.8548 26.3344 51.4458 26.8194 51.8615 27.4416C52.2773 28.0639 52.4992 28.7954 52.4992 29.5438C52.4978 30.5469 52.0987 31.5085 51.3894 32.2178C50.6801 32.927 49.7185 33.3261 48.7154 33.3276ZM48.7154 27.9222C48.3947 27.9222 48.0812 28.0173 47.8145 28.1955C47.5478 28.3737 47.34 28.6269 47.2172 28.9232C47.0945 29.2195 47.0624 29.5456 47.125 29.8602C47.1875 30.1747 47.342 30.4637 47.5688 30.6905C47.7956 30.9172 48.0845 31.0717 48.3991 31.1343C48.7136 31.1968 49.0397 31.1647 49.336 31.042C49.6323 30.9192 49.8856 30.7114 50.0638 30.4447C50.2419 30.178 50.337 29.8645 50.337 29.5438C50.337 29.1137 50.1662 28.7012 49.8621 28.3971C49.558 28.093 49.1455 27.9222 48.7154 27.9222Z" fill="black"/>
<path d="M50.3025 28.4507C50.0887 28.4506 49.8798 28.3872 49.702 28.2684C49.5243 28.1496 49.3858 27.9808 49.304 27.7833C49.2222 27.5858 49.2007 27.3684 49.2424 27.1588C49.2841 26.9491 49.3871 26.7565 49.5382 26.6053L51.9923 24.1512C52.195 23.9485 52.4699 23.8345 52.7566 23.8345H61.6214C61.9082 23.8345 62.1831 23.9484 62.3859 24.1511C62.5886 24.3539 62.7025 24.6288 62.7025 24.9156C62.7025 25.2023 62.5886 25.4773 62.3859 25.68C62.1831 25.8827 61.9082 25.9966 61.6214 25.9966H53.2041L51.0669 28.1339C50.9667 28.2347 50.8476 28.3145 50.7164 28.3689C50.5852 28.4233 50.4445 28.4511 50.3025 28.4507Z" fill="black"/>
<path d="M48.9527 43.6896C48.2044 43.6896 47.4728 43.4677 46.8506 43.052C46.2283 42.6362 45.7434 42.0452 45.457 41.3538C45.1706 40.6624 45.0957 39.9017 45.2417 39.1677C45.3876 38.4337 45.748 37.7595 46.2772 37.2303C46.8064 36.7011 47.4806 36.3408 48.2145 36.1948C48.9485 36.0488 49.7093 36.1237 50.4007 36.4101C51.0921 36.6965 51.6831 37.1815 52.0988 37.8037C52.5146 38.4259 52.7365 39.1575 52.7365 39.9059C52.7365 40.9094 52.3379 41.8718 51.6283 42.5814C50.9187 43.291 49.9562 43.6896 48.9527 43.6896ZM48.9527 38.2842C48.632 38.2842 48.3185 38.3793 48.0518 38.5575C47.7851 38.7357 47.5773 38.989 47.4545 39.2853C47.3318 39.5816 47.2997 39.9077 47.3623 40.2222C47.4248 40.5368 47.5793 40.8257 47.8061 41.0525C48.0329 41.2793 48.3218 41.4337 48.6364 41.4963C48.9509 41.5589 49.277 41.5268 49.5733 41.404C49.8696 41.2813 50.1229 41.0735 50.3011 40.8068C50.4792 40.5401 50.5743 40.2266 50.5743 39.9059C50.5743 39.4758 50.4035 39.0633 50.0994 38.7592C49.7953 38.4551 49.3828 38.2842 48.9527 38.2842Z" fill="black"/>
<path d="M50.5408 38.8108C50.327 38.8108 50.1181 38.7473 49.9403 38.6285C49.7626 38.5097 49.624 38.3409 49.5422 38.1434C49.4604 37.9459 49.439 37.7285 49.4807 37.5189C49.5224 37.3092 49.6253 37.1166 49.7765 36.9654L52.2305 34.5113C52.4332 34.3086 52.7082 34.1946 52.9949 34.1946H61.6219C61.9086 34.1946 62.1836 34.3085 62.3863 34.5112C62.5891 34.714 62.703 34.9889 62.703 35.2757C62.703 35.5624 62.5891 35.8374 62.3863 36.0401C62.1836 36.2428 61.9086 36.3567 61.6219 36.3567H53.4424L51.3051 38.494C51.1024 38.6968 50.8275 38.8107 50.5408 38.8108Z" fill="black"/>
<path d="M37.6305 48.4119C36.8221 48.4119 36.0318 48.1722 35.3596 47.7231C34.6874 47.2739 34.1635 46.6355 33.8541 45.8886C33.5447 45.1417 33.4638 44.3198 33.6215 43.5269C33.7792 42.734 34.1685 42.0057 34.7402 41.434C35.3118 40.8624 36.0402 40.4731 36.8331 40.3154C37.626 40.1576 38.4479 40.2386 39.1948 40.548C39.9417 40.8573 40.5801 41.3813 41.0292 42.0535C41.4784 42.7256 41.7181 43.5159 41.7181 44.3244C41.717 45.4081 41.2859 46.4471 40.5196 47.2135C39.7533 47.9798 38.7143 48.4108 37.6305 48.4119ZM37.6305 42.399C37.2497 42.399 36.8775 42.5119 36.5608 42.7235C36.2442 42.935 35.9974 43.2357 35.8517 43.5876C35.706 43.9394 35.6678 44.3265 35.7421 44.7C35.8164 45.0735 35.9998 45.4166 36.2691 45.6859C36.5383 45.9551 36.8814 46.1385 37.2549 46.2128C37.6284 46.2871 38.0155 46.249 38.3674 46.1032C38.7192 45.9575 39.0199 45.7107 39.2314 45.3941C39.443 45.0775 39.5559 44.7052 39.5559 44.3244C39.5554 43.8139 39.3523 43.3245 38.9914 42.9635C38.6304 42.6026 38.141 42.3996 37.6305 42.399Z" fill="black"/>
<path d="M41.0808 62.7028C40.7941 62.7028 40.5191 62.5889 40.3164 62.3862C40.1136 62.1835 39.9997 61.9085 39.9997 61.6218V56.2099L36.8646 53.0747C36.6619 52.872 36.5479 52.5971 36.5479 52.3104V47.3299C36.5479 47.0431 36.6617 46.7682 36.8645 46.5654C37.0672 46.3627 37.3422 46.2488 37.6289 46.2488C37.9157 46.2488 38.1906 46.3627 38.3934 46.5654C38.5961 46.7682 38.71 47.0431 38.71 47.3299V51.8704L41.8451 55.0055C42.0461 55.2064 42.1598 55.4782 42.1619 55.7623V61.6218C42.1619 61.9085 42.048 62.1835 41.8453 62.3862C41.6425 62.5889 41.3675 62.7028 41.0808 62.7028Z" fill="black"/>
</svg>
