<svg width="80" height="80" viewBox="0 0 80 80" fill="none" xmlns="http://www.w3.org/2000/svg">
<g clip-path="url(#clip0)">
<path d="M28.31 11.122C26.94 8.35195 25.8599 6.16519 28.2433 2.58855C28.7533 1.82181 28.5433 0.788507 27.78 0.278496C27.0232 -0.228233 25.9832 -0.0247915 25.4699 0.741787C22.0166 5.91518 23.8499 9.62198 25.3232 12.5988C26.7 15.3855 27.6965 17.3989 25.4699 20.7422C24.9566 21.509 25.1666 22.5423 25.9299 23.0523C26.2132 23.2423 26.5367 23.3323 26.8567 23.3323C27.3934 23.3323 27.92 23.0723 28.24 22.589C31.5368 17.6489 29.75 14.0288 28.31 11.122Z" fill="#00A6FB"/>
<path d="M41.5902 11.122C40.2169 8.35195 39.1368 6.16519 41.5202 2.58855C42.0302 1.82181 41.8202 0.788507 41.0569 0.278496C40.3001 -0.228233 39.2568 -0.0247915 38.7468 0.741787C35.2968 5.91862 37.1301 9.62526 38.6001 12.602C39.9769 15.3888 40.9734 17.4021 38.7468 20.7422C38.2368 21.509 38.4468 22.5423 39.2101 23.0523C39.4934 23.2423 39.8134 23.3323 40.1334 23.3323C40.6702 23.3323 41.1967 23.0723 41.5202 22.589C44.817 17.6489 43.0302 14.0288 41.5902 11.122Z" fill="#00A6FB"/>
<path d="M54.8675 11.122C53.4942 8.35195 52.4142 6.16519 54.7975 2.58855C55.3075 1.82181 55.0975 0.788507 54.3342 0.278496C53.5775 -0.228233 52.5342 -0.0247915 52.0242 0.741787C48.5741 5.91862 50.4074 9.62526 51.8775 12.602C53.2542 15.3888 54.2508 17.4021 52.0242 20.7422C51.5142 21.509 51.7242 22.5423 52.4875 23.0523C52.7708 23.2423 53.0908 23.3323 53.4108 23.3323C53.9508 23.3323 54.4775 23.0723 54.7975 22.589C58.0943 17.6489 56.3076 14.0288 54.8675 11.122Z" fill="#00A6FB"/>
<path d="M68.3334 26.6653H11.6655C7.06867 26.6653 3.33203 30.4054 3.33203 34.9987V64.9994C3.33203 69.5928 7.06883 73.3328 11.6655 73.3328H68.3334C72.9303 73.3328 76.6669 69.5928 76.6669 64.9994V34.9987C76.6669 30.4054 72.9301 26.6653 68.3334 26.6653ZM73.3335 64.9995C73.3335 67.7563 71.0902 69.9997 68.3334 69.9997H11.6655C8.90871 69.9997 6.66538 67.7563 6.66538 64.9995V34.9989C6.66538 32.2421 8.90871 29.9988 11.6655 29.9988H68.3334C71.0902 29.9988 73.3335 32.2421 73.3335 34.9989V64.9995Z" fill="#00A6FB"/>
<path d="M14.9988 33.3323C14.0788 33.3323 13.332 34.079 13.332 34.999V64.9997C13.332 65.9197 14.0788 66.6664 14.9988 66.6664C15.9188 66.6664 16.6655 65.9197 16.6655 64.9997V34.999C16.6655 34.079 15.9188 33.3323 14.9988 33.3323Z" fill="#00A6FB"/>
<path d="M24.9998 33.3323C24.0797 33.3323 23.333 34.079 23.333 34.999V64.9997C23.333 65.9197 24.0797 66.6664 24.9998 66.6664C25.9198 66.6664 26.6665 65.9197 26.6665 64.9997V34.999C26.6665 34.079 25.9198 33.3323 24.9998 33.3323Z" fill="#00A6FB"/>
<path d="M34.9998 33.3323C34.0797 33.3323 33.333 34.079 33.333 34.999V64.9997C33.333 65.9197 34.0797 66.6664 34.9998 66.6664C35.9198 66.6664 36.6665 65.9197 36.6665 64.9997V34.999C36.6665 34.079 35.9198 33.3323 34.9998 33.3323Z" fill="#00A6FB"/>
<path d="M44.9998 33.3323C44.0797 33.3323 43.333 34.079 43.333 34.999V64.9997C43.333 65.9197 44.0797 66.6664 44.9998 66.6664C45.9198 66.6664 46.6665 65.9197 46.6665 64.9997V34.999C46.6665 34.079 45.9198 33.3323 44.9998 33.3323Z" fill="#00A6FB"/>
<path d="M54.9998 33.3323C54.0797 33.3323 53.333 34.079 53.333 34.999V64.9997C53.333 65.9197 54.0797 66.6664 54.9998 66.6664C55.9198 66.6664 56.6665 65.9197 56.6665 64.9997V34.999C56.6665 34.079 55.9198 33.3323 54.9998 33.3323Z" fill="#00A6FB"/>
<path d="M65.0007 33.3323C64.0807 33.3323 63.334 34.079 63.334 34.999V64.9997C63.334 65.9197 64.0807 66.6664 65.0007 66.6664C65.9208 66.6664 66.6675 65.9197 66.6675 64.9997V34.999C66.6675 34.079 65.9208 33.3323 65.0007 33.3323Z" fill="#00A6FB"/>
<path d="M18.3328 69.9998C17.4128 69.9998 16.666 70.7465 16.666 71.6665V78.3334C16.666 79.2534 17.4128 80.0001 18.3328 80.0001C19.2528 80.0001 19.9995 79.2534 19.9995 78.3334V71.6665C19.9994 70.7463 19.2528 69.9998 18.3328 69.9998Z" fill="#00A6FB"/>
<path d="M61.6668 69.9998C60.7467 69.9998 60 70.7465 60 71.6665V78.3334C60 79.2534 60.7467 80.0001 61.6668 80.0001C62.5868 80.0001 63.3335 79.2534 63.3335 78.3334V71.6665C63.3335 70.7463 62.5868 69.9998 61.6668 69.9998Z" fill="#00A6FB"/>
</g>
<defs>
<clipPath id="clip0">
<rect width="80" height="80" fill="white"/>
</clipPath>
</defs>
</svg>
