<svg width="49" height="67" viewBox="0 0 49 67" fill="none" xmlns="http://www.w3.org/2000/svg">
<path d="M44.4999 55.7454H40.3747V53.3581C40.3747 50.8593 39.4816 48.4729 37.8882 46.6275C38.0891 46.4395 38.2862 46.2457 38.4793 46.0463C41.5554 42.8707 43.2497 38.662 43.2497 34.1957C43.2497 31.9624 42.8278 29.7956 41.9962 27.7489C42.0926 27.2995 42.1448 26.8333 42.1448 26.3546C42.1448 24.4361 41.3287 22.7118 40.0371 21.5289L40.4148 20.8533C41.2296 19.3965 41.0192 17.615 40.0173 16.4028L41.5426 13.6755C41.7581 13.6748 41.9751 13.6456 42.1891 13.5863C42.8349 13.4077 43.3742 12.9811 43.7073 12.3854L45.5823 9.03277C45.9276 8.41557 45.7227 7.62636 45.1248 7.27008L33.217 0.172885C32.9298 0.00164911 32.5883 -0.0445472 32.2685 0.0439742C31.9481 0.132625 31.6752 0.348767 31.5095 0.645171L29.6345 3.99776C29.1731 4.82284 29.2066 5.80328 29.6361 6.57559L28.1098 9.3044C27.5675 9.20078 27.0043 9.22246 26.4546 9.37459C25.4851 9.64274 24.6761 10.2823 24.1767 11.1752L17.3017 23.4681C16.8022 24.361 16.6702 25.4039 16.93 26.4048C17.0774 26.9725 17.3407 27.4868 17.6987 27.9198L16.3417 30.3462C16.0085 30.9419 15.9204 31.6373 16.0935 32.3042C16.2666 32.971 16.6797 33.5276 17.2569 33.8715L24.8346 38.3879C25.2273 38.622 25.6565 38.7332 26.0803 38.7332C26.945 38.7332 27.7871 38.2704 28.2496 37.4434L29.6071 35.016C29.829 35.0583 30.0542 35.081 30.2808 35.081C30.6077 35.081 30.9372 35.0366 31.262 34.9467C32.2315 34.6786 33.0405 34.039 33.5398 33.1461L33.9162 32.4731C34.4626 32.6619 35.042 32.7751 35.6433 32.7999C35.7135 33.2604 35.7497 33.7271 35.7497 34.1958C35.7497 36.5945 34.8357 38.8589 33.1763 40.5721C31.517 42.2852 29.3233 43.2285 26.9997 43.2285H22.6245C21.9342 43.2285 21.3745 43.8062 21.3745 44.5189C21.3745 45.2316 21.9342 45.8093 22.6245 45.8093H26.9997C27.689 45.8093 28.2497 46.3882 28.2497 47.0997C28.2497 47.8112 27.689 48.3901 26.9997 48.3901H7.00024C6.31099 48.3901 5.75024 47.8112 5.75024 47.0997C5.75024 46.3882 6.31099 45.8093 7.00024 45.8093H11.3745C12.0647 45.8093 12.6245 45.2316 12.6245 44.5189C12.6245 43.8062 12.0647 43.2285 11.3745 43.2285H7.00024C4.93249 43.2285 3.25025 44.9651 3.25025 47.0997C3.25025 49.2343 4.93249 50.9709 7.00024 50.9709H10.1605V55.7454H4.49999C2.43225 55.7454 0.75 57.482 0.75 59.6166V64.7782C0.75 65.4908 1.30975 66.0685 2 66.0685H46.9999C47.6902 66.0685 48.2499 65.4908 48.2499 64.7782V59.6166C48.2499 57.482 46.5677 55.7454 44.4999 55.7454ZM37.8747 53.3581V55.7454H35.3747V53.3581C35.3747 51.813 34.6877 50.4306 33.6127 49.5187C34.4076 49.1509 35.1742 48.7154 35.9068 48.2157C37.1656 49.6085 37.8747 51.4389 37.8747 53.3581ZM26.9997 50.9709H30.5622C31.8373 50.9709 32.8747 52.0418 32.8747 53.3581V55.7454H23.9103V50.9709H26.9997ZM35.8948 30.2256C33.8271 30.2256 32.1448 28.489 32.1448 26.3544C32.1448 24.2199 33.8271 22.4832 35.8948 22.4832C37.9626 22.4832 39.6448 24.2199 39.6448 26.3544C39.6448 28.489 37.9626 30.2256 35.8948 30.2256ZM30.3818 10.4036L31.632 8.16833L39.2098 12.6847L37.9597 14.92L30.3818 10.4036ZM33.0495 3.05306L42.7922 8.85985L41.5423 11.0948L31.7995 5.28803L33.0495 3.05306ZM18.5069 31.6366L19.757 29.4015L27.3347 33.9179L26.0847 36.153L18.5069 31.6366ZM31.3748 31.8557C31.2093 32.1517 30.9395 32.3641 30.615 32.4539C30.2907 32.5436 29.9542 32.4989 29.6673 32.328L19.9256 26.5218C19.9252 26.5216 19.925 26.5213 19.9246 26.5212C19.9245 26.521 19.9242 26.521 19.924 26.5209C19.6375 26.3499 19.4319 26.0716 19.345 25.7369C19.2581 25.402 19.3013 25.0545 19.467 24.7585L26.342 12.4656C26.5075 12.1696 26.7773 11.9572 27.1018 11.8674C27.426 11.7777 27.7626 11.8224 28.0495 11.9933L37.7923 17.8001C38.3891 18.1559 38.5944 18.9466 38.2498 19.5628L37.8736 20.2356C37.2512 20.0205 36.5865 19.9023 35.895 19.9023C32.4487 19.9023 29.645 22.7967 29.645 26.3543C29.645 28.2728 30.4611 29.9972 31.7527 31.18L31.3748 31.8557ZM30.3148 45.293C32.04 44.7415 33.6245 43.7592 34.9442 42.3969C37.0758 40.1964 38.2497 37.2839 38.2497 34.1958C38.2497 33.5884 38.2024 32.9834 38.1108 32.3862C38.9679 32.0495 39.7349 31.5237 40.3644 30.8581C40.6203 31.9436 40.7497 33.0594 40.7497 34.1957C40.7497 37.9727 39.3156 41.5332 36.7115 44.2214C35.0028 45.9853 32.9305 47.2291 30.6738 47.876C30.7235 47.6251 30.7496 47.3655 30.7496 47.0997C30.7497 46.4475 30.592 45.8328 30.3148 45.293ZM12.6605 50.9709H21.4103V55.7454H12.6605V50.9709ZM45.7499 63.4878H3.25V59.6166C3.25 58.905 3.81075 58.3262 4.49999 58.3262H44.4999C45.1892 58.3262 45.7499 58.905 45.7499 59.6166V63.4878Z" fill="white"/>
<path d="M18.2505 44.5189C18.2505 43.8062 17.6907 43.2285 17.0005 43.2285H16.9995C16.3092 43.2285 15.75 43.8062 15.75 44.5189C15.75 45.2316 16.3101 45.8093 17.0005 45.8093C17.6909 45.8093 18.2505 45.2316 18.2505 44.5189Z" fill="white"/>
</svg>
