<svg width="32" height="37" viewBox="0 0 32 37" fill="none" xmlns="http://www.w3.org/2000/svg">
<path d="M31 15.3182C31 26.4545 16 36 16 36C16 36 1 26.4545 1 15.3182C1 11.5208 2.58035 7.87888 5.3934 5.1937C8.20644 2.50852 12.0218 1 16 1C19.9782 1 23.7936 2.50852 26.6066 5.1937C29.4196 7.87888 31 11.5208 31 15.3182Z" stroke="black" stroke-width="2" stroke-linecap="round" stroke-linejoin="round"/>
<path d="M16 20.0909C18.7614 20.0909 21 17.954 21 15.3181C21 12.6822 18.7614 10.5454 16 10.5454C13.2386 10.5454 11 12.6822 11 15.3181C11 17.954 13.2386 20.0909 16 20.0909Z" stroke="black" stroke-width="2" stroke-linecap="round" stroke-linejoin="round"/>
</svg>
