<svg width="35" height="30" viewBox="0 0 35 30" fill="none" xmlns="http://www.w3.org/2000/svg">
<path d="M27.125 6C28.2853 6 29.3981 6.39509 30.2186 7.09835C31.0391 7.80161 31.5 8.75544 31.5 9.75V21.75C31.5 22.7446 31.0391 23.6984 30.2186 24.4016C29.3981 25.1049 28.2853 25.5 27.125 25.5H7.875C6.71468 25.5 5.60188 25.1049 4.78141 24.4016C3.96094 23.6984 3.5 22.7446 3.5 21.75V9.75C3.5 8.75544 3.96094 7.80161 4.78141 7.09835C5.60188 6.39509 6.71468 6 7.875 6H27.125ZM29.75 11.9415L17.9445 17.8965C17.8329 17.9527 17.7081 17.9869 17.5792 17.9968C17.4503 18.0066 17.3204 17.9918 17.199 17.9535L17.0555 17.8965L5.25 11.9445V21.75C5.25 22.3467 5.52656 22.919 6.01884 23.341C6.51113 23.7629 7.17881 24 7.875 24H27.125C27.8212 24 28.4889 23.7629 28.9811 23.341C29.4734 22.919 29.75 22.3467 29.75 21.75V11.9415ZM27.125 7.5H7.875C7.17881 7.5 6.51113 7.73705 6.01884 8.15901C5.52656 8.58097 5.25 9.15326 5.25 9.75V10.203L17.5 16.38L29.75 10.2V9.75C29.75 9.15326 29.4734 8.58097 28.9811 8.15901C28.4889 7.73705 27.8212 7.5 27.125 7.5Z" fill="black"/>
</svg>
