<svg width="64" height="55" viewBox="0 0 64 55" fill="none" xmlns="http://www.w3.org/2000/svg">
<path d="M43.2064 25.3555C43.2019 25.3555 43.1976 25.3555 43.1932 25.3555H37.8335V20.0732C37.8408 19.0078 36.9682 18.1382 35.8845 18.1311C35.8801 18.1311 35.8757 18.1311 35.8714 18.1311H28.1282C27.0445 18.1311 26.166 18.9948 26.166 20.0602V25.3426H20.8064C19.7227 25.3355 18.8383 26.1932 18.8311 27.2586C18.8311 27.2673 18.8311 27.2759 18.8311 27.2846V34.8845C18.8311 35.9499 19.7096 36.8136 20.7932 36.8136H26.166V42.083C26.1588 43.1484 27.0314 44.018 28.115 44.0251C28.1194 44.0251 28.1239 44.0251 28.1282 44.0251H35.8582C36.9418 44.0251 37.8203 43.1614 37.8203 42.096V36.8136H43.1932C44.2768 36.8207 45.1612 35.9628 45.1685 34.8975C45.1685 34.8931 45.1685 34.8887 45.1685 34.8845V27.2846C45.1685 26.2192 44.2901 25.3555 43.2064 25.3555ZM42.5347 34.2242H36.5166C35.7894 34.2242 35.1998 34.8039 35.1998 35.5189V41.4357H28.7998V35.5189C28.7998 34.8039 28.2101 34.2242 27.4829 34.2242H21.4648V27.9449H27.4829C28.2101 27.9449 28.7998 27.3652 28.7998 26.6502V20.7205H35.1866V26.6373C35.1866 27.3523 35.7762 27.932 36.5035 27.932H42.5347V34.2242Z" fill="white"/>
<path d="M54.9136 8.44665H44.0626V3.8893C44.1309 1.80969 42.4714 0.0692843 40.3562 0.00212163C40.2484 -0.00127696 40.1406 -0.000306079 40.0329 0.00519641H23.9671C21.8535 -0.103073 20.0509 1.49362 19.9406 3.57145C19.935 3.67729 19.9338 3.7833 19.9375 3.8893V8.42076H9.08642C4.89877 8.42076 0 10.7642 0 17.3542V45.514C0 52.104 4.89877 54.4474 9.08642 54.4474H54.9136C59.1012 54.4474 64 52.104 64 45.514V17.3801C64 10.7901 59.1144 8.44665 54.9136 8.44665ZM22.5712 3.8893C22.5712 3.51384 22.5712 2.50397 23.9802 2.50397H40.0329C41.442 2.50397 41.442 3.50089 41.442 3.8893V8.42076H22.5712V3.8893ZM61.3663 45.514C61.3663 51.2366 56.8626 51.858 54.9136 51.858H9.08642C7.15062 51.858 2.63374 51.2366 2.63374 45.514V17.3801C2.63374 11.6575 7.13745 11.0361 9.08642 11.0361H54.9136C56.8494 11.0361 61.3663 11.6575 61.3663 17.3801V45.514Z" fill="white"/>
</svg>
