<svg width="90" height="90" viewBox="0 0 90 90" fill="none" xmlns="http://www.w3.org/2000/svg">
<path d="M10.4916 84.5604C10.5296 84.8549 10.6755 85.1249 10.9012 85.3179C11.1268 85.511 11.416 85.6134 11.7129 85.6055H27.5332C27.7229 85.6139 27.9118 85.5765 28.0839 85.4963C28.2561 85.4162 28.4063 85.2957 28.5219 85.1451C28.6375 84.9944 28.7151 84.8181 28.748 84.6311C28.7809 84.4441 28.7682 84.2519 28.7109 84.0709L26.687 77.4415L32.9924 73.459C33.8025 73.0143 34.751 72.8933 35.6467 73.1204C35.672 73.1269 35.6977 73.1336 35.7236 73.138L48.8911 75.5638C52.5219 76.2135 56.2652 75.6851 59.5743 74.0558C59.6265 74.0302 59.6768 74.0008 59.7247 73.9679L82.4984 58.3312C82.7569 58.1537 82.9379 57.8842 83.0044 57.5778C83.0708 57.2713 83.0178 56.9511 82.8561 56.6824C81.9947 55.2475 80.613 54.2002 78.9986 53.7587C77.3843 53.3172 75.6619 53.5154 74.1901 54.3122L73.9781 54.4266C72.3205 52.5551 69.566 51.856 67.4528 52.9274L67.4254 52.9418L66.6561 53.3561C65.5249 52.4434 64.1442 51.8941 62.6952 51.7802C61.2462 51.6663 59.7967 51.9932 58.5368 52.718L53.661 55.3711H47.1571C45.7725 55.3688 44.4062 55.0552 43.1593 54.4535L42.2563 54.016C39.6435 52.7446 36.7298 52.2211 33.8378 52.5034C30.9458 52.7857 28.1884 53.8629 25.8708 55.6156C25.8438 55.636 25.8181 55.6571 25.7924 55.6794L23.6117 57.6211C22.8772 58.2742 22.0188 58.7728 21.0875 59.0869L19.921 55.2245C19.8459 54.9682 19.6916 54.7423 19.4802 54.5791C19.2688 54.416 19.0111 54.324 18.7441 54.3164H8.19726C8.02073 54.3232 7.84758 54.3669 7.68893 54.4446C7.53028 54.5223 7.38962 54.6324 7.27599 54.7676C7.16048 54.898 7.07399 55.0514 7.02226 55.2177C6.97053 55.384 6.95474 55.5594 6.97593 55.7323L10.4916 84.5604ZM68.5781 55.1171C69.5764 54.6191 70.8105 54.9541 71.6972 55.6581L63.3785 60.146L63.121 60.2819C62.8807 59.6721 62.5639 59.0954 62.1781 58.5656L68.5781 55.1171ZM59.7268 54.871C59.7367 54.8657 59.7465 54.8603 59.756 54.8548C60.4251 54.4678 61.1787 54.2501 61.9511 54.2208C62.7236 54.1915 63.4915 54.3514 64.188 54.6866L60.3384 56.7608C59.6803 56.3002 58.9543 55.9452 58.1866 55.7086L59.7268 54.871ZM25.248 59.4589L27.3901 57.5518C29.3457 56.0842 31.6681 55.1843 34.102 54.9512C36.5359 54.7181 38.9869 55.1608 41.1854 56.2307L42.0886 56.6689C43.6696 57.4316 45.4018 57.8291 47.1571 57.832H55.9159C57.091 57.8332 58.2322 58.2257 59.1595 58.9474C60.0868 59.6691 60.7474 60.6791 61.0371 61.8179L55.0124 61.5445C52.6893 61.4395 50.3615 61.5469 48.0579 61.8653C47.7387 61.9146 47.4517 62.0875 47.2588 62.3465C47.0658 62.6056 46.9826 62.9302 47.0269 63.2502C47.0712 63.5701 47.2395 63.8598 47.4956 64.0568C47.7516 64.2537 48.0748 64.342 48.3954 64.3027C50.5504 64.005 52.7279 63.9043 54.9011 64.0021L62.3718 64.3401C62.3894 64.3401 62.4089 64.3414 62.4274 64.3414C62.7537 64.3414 63.0667 64.2117 63.2974 63.981C63.5282 63.7502 63.6578 63.4373 63.6578 63.1109C63.6578 63.0012 63.6541 62.8922 63.6497 62.7836L64.5355 62.3166L75.3584 56.4778C76.0976 56.0774 76.9433 55.9176 77.7776 56.0205C78.612 56.1234 79.3935 56.484 80.0132 57.0521L58.4051 71.888C55.5896 73.2544 52.4135 73.6938 49.3327 73.1431L36.2054 70.7258C34.7015 70.3566 33.1136 70.5728 31.7632 71.3304C31.744 71.3413 31.7249 71.3526 31.7064 71.3644L25.9408 75.0092L21.8047 61.4426C23.0761 61.0239 24.248 60.3488 25.248 59.4591V59.4589ZM17.8329 56.7773L25.8717 83.1445H12.8024L9.58681 56.7773H17.8329Z" fill="black"/>
<path d="M18.7939 82.7439C19.4545 82.7439 20.1002 82.548 20.6495 82.181C21.1987 81.814 21.6268 81.2924 21.8796 80.6822C22.1323 80.0719 22.1985 79.4003 22.0696 78.7525C21.9407 78.1046 21.6227 77.5095 21.1556 77.0424C20.6885 76.5753 20.0934 76.2573 19.4455 76.1284C18.7977 75.9995 18.1261 76.0657 17.5158 76.3184C16.9056 76.5712 16.384 76.9993 16.017 77.5485C15.65 78.0978 15.4541 78.7435 15.4541 79.4041C15.4551 80.2895 15.8073 81.1384 16.4335 81.7645C17.0596 82.3907 17.9085 82.7429 18.7939 82.7439ZM18.7939 78.5251C18.9678 78.5251 19.1377 78.5767 19.2822 78.6733C19.4268 78.7698 19.5394 78.9071 19.606 79.0677C19.6725 79.2283 19.6899 79.405 19.656 79.5755C19.6221 79.746 19.5383 79.9026 19.4154 80.0255C19.2925 80.1484 19.1359 80.2322 18.9654 80.2661C18.7949 80.3 18.6182 80.2826 18.4576 80.2161C18.297 80.1495 18.1597 80.0369 18.0632 79.8923C17.9666 79.7478 17.915 79.5779 17.915 79.4041C17.9153 79.171 18.008 78.9476 18.1728 78.7829C18.3375 78.6181 18.5609 78.5254 18.7939 78.5251Z" fill="black"/>
<path d="M25.5459 28.9763L28.8847 29.2981C29.2638 30.673 29.8192 31.993 30.5371 33.2253L28.4166 35.7857C28.221 36.0217 28.1204 36.3223 28.1348 36.6286C28.1491 36.9348 28.2773 37.2247 28.4941 37.4414L32.4981 41.4453C32.7147 41.662 33.0045 41.7901 33.3105 41.8045C33.6166 41.8188 33.9171 41.7185 34.1531 41.523L36.7195 39.397C37.9508 40.1128 39.2679 40.6696 40.6394 41.0539L40.9613 44.4044C40.9904 44.7102 41.1319 44.9943 41.3584 45.2017C41.5849 45.4092 41.8804 45.5252 42.1875 45.5273H47.8642C48.1712 45.5248 48.4664 45.4086 48.6926 45.201C48.9189 44.9935 49.0601 44.7094 49.089 44.4037L49.4109 41.0595C50.7857 40.6795 52.1057 40.1233 53.3378 39.4047L55.8984 41.5237C56.1345 41.719 56.435 41.8192 56.741 41.8047C57.0471 41.7902 57.3367 41.6621 57.5532 41.4453L61.5567 37.4414C61.7734 37.2248 61.9016 36.935 61.916 36.6289C61.9304 36.3228 61.83 36.0223 61.6345 35.7862L59.5076 33.2188C60.2237 31.9871 60.7806 30.6695 61.1648 29.2976L64.4548 28.9765C64.759 28.9468 65.0412 28.8049 65.2466 28.5785C65.452 28.3522 65.5657 28.0575 65.5657 27.7518V22.0749C65.5657 21.769 65.4518 21.4741 65.2461 21.2477C65.0405 21.0212 64.7578 20.8795 64.4534 20.8501L61.1146 20.5284C60.7355 19.1536 60.1801 17.8336 59.4622 16.6013L61.5827 14.0407C61.7772 13.8057 61.8775 13.5069 61.8642 13.2022C61.8509 12.8975 61.7249 12.6086 61.5106 12.3915L57.5582 8.38738C57.342 8.16858 57.0517 8.03868 56.7445 8.02329C56.4372 8.00791 56.1354 8.10814 55.8984 8.30423L53.332 10.4312C52.1007 9.71531 50.7836 9.15855 49.4121 8.77427L49.0903 5.47134C49.0594 5.1702 48.9158 4.89185 48.6883 4.69213C48.4608 4.49242 48.1663 4.3861 47.8636 4.39451H42.1875C41.8853 4.38653 41.5913 4.49293 41.3642 4.69242C41.1371 4.89191 40.9937 5.16979 40.9627 5.47046L40.6406 8.7908C39.2662 9.16671 37.9463 9.71898 36.7137 10.4338L34.1529 8.3088C33.9172 8.11306 33.6169 8.01231 33.3108 8.02626C33.0047 8.04021 32.7149 8.16785 32.4979 8.38421L28.4941 12.3869C28.2776 12.6035 28.1497 12.8931 28.1353 13.199C28.121 13.505 28.2212 13.8053 28.4164 14.0412L30.5434 16.6076C29.8275 17.8389 29.2708 19.1561 28.8865 20.5275L25.5466 20.8494C25.2419 20.8786 24.959 21.0204 24.7532 21.247C24.5474 21.4736 24.4334 21.7688 24.4336 22.0749V27.7514C24.4336 28.0574 24.5475 28.3523 24.7532 28.5787C24.9588 28.8052 25.2415 28.9469 25.5459 28.9763ZM26.8945 23.1926L29.9883 22.8937C30.248 22.8687 30.4929 22.7617 30.6879 22.5883C30.8828 22.4149 31.0175 22.184 31.0727 21.929C31.4505 20.2333 32.132 18.6199 33.0841 17.1668C33.2259 16.947 33.294 16.6878 33.2785 16.4268C33.263 16.1658 33.1648 15.9164 32.998 15.715L31.0263 13.3339L33.4461 10.9141L35.8269 12.8858C36.0307 13.0547 36.2836 13.1533 36.5479 13.167C36.8123 13.1808 37.074 13.1089 37.2943 12.9621C38.7388 12.0063 40.3487 11.3278 42.0416 10.9613C42.294 10.9142 42.5243 10.7866 42.6982 10.5977C42.872 10.4088 42.9801 10.1687 43.0063 9.91334L43.3051 6.85474H46.7469L47.0457 9.91334C47.0713 10.1709 47.1788 10.4134 47.3525 10.6054C47.5261 10.7973 47.7567 10.9285 48.0104 10.9796C49.7061 11.3538 51.3201 12.0319 52.7741 12.9812C52.9944 13.1224 53.2539 13.1897 53.5149 13.1734C53.776 13.157 54.0251 13.0579 54.2261 12.8904L56.6014 10.9216L58.9806 13.3298L57.002 15.7148C56.8333 15.9187 56.7347 16.1715 56.7211 16.4358C56.7074 16.7001 56.7793 16.9617 56.9261 17.1819C57.8817 18.6264 58.5601 20.2362 58.9266 21.929C58.9818 22.184 59.1165 22.4149 59.3114 22.5883C59.5064 22.7617 59.7513 22.8687 60.011 22.8937L63.1048 23.1926V26.6352L60.0597 26.9325C59.8003 26.9578 59.5556 27.0648 59.3609 27.2382C59.1662 27.4115 59.0317 27.6422 58.9765 27.897C58.5992 29.5932 57.9179 31.2071 56.9658 32.6607C56.824 32.8804 56.7559 33.1397 56.7713 33.4007C56.7868 33.6618 56.8851 33.9112 57.0519 34.1126L59.0245 36.4922L56.6047 38.912L54.2238 36.9402C54.0199 36.7714 53.767 36.6728 53.5027 36.659C53.2383 36.6453 52.9766 36.7171 52.7563 36.864C51.3118 37.8199 49.702 38.4986 48.009 38.8652C47.7532 38.9228 47.5222 39.0598 47.3489 39.2566C47.1757 39.4533 47.0691 39.6999 47.0443 39.9609L46.7462 43.0664H43.3044L43.0056 39.9609C42.9806 39.7006 42.8738 39.4549 42.7005 39.2591C42.5271 39.0633 42.2962 38.9274 42.0409 38.871C40.3449 38.4925 38.7313 37.8104 37.2781 36.8576C37.0585 36.7156 36.7993 36.6473 36.5382 36.6626C36.2772 36.6779 36.0277 36.7759 35.8262 36.9425L33.4454 38.9136L31.0263 36.4922L32.998 34.1112C33.1669 33.9073 33.2654 33.6544 33.2791 33.39C33.2928 33.1256 33.2209 32.8639 33.0739 32.6436C32.1183 31.1991 31.4399 29.5893 31.0734 27.8965C31.0182 27.6415 30.8835 27.4106 30.6886 27.2372C30.4936 27.0638 30.2487 26.9569 29.989 26.9318L26.8952 26.633L26.8945 23.1926Z" fill="black"/>
<path d="M45.0259 37.1953C47.4552 37.1953 49.8299 36.4749 51.8498 35.1253C53.8697 33.7756 55.444 31.8573 56.3736 29.6129C57.3033 27.3686 57.5465 24.8989 57.0726 22.5163C56.5986 20.1337 55.4288 17.9451 53.711 16.2273C51.9932 14.5096 49.8046 13.3398 47.422 12.8659C45.0394 12.392 42.5697 12.6352 40.3254 13.5649C38.081 14.4946 36.1627 16.0689 34.8131 18.0888C33.4635 20.1087 32.7431 22.4835 32.7432 24.9128C32.7468 28.1692 34.0421 31.2912 36.3448 33.5938C38.6474 35.8965 41.7694 37.1917 45.0259 37.1953ZM45.0259 15.091C46.9684 15.091 48.8674 15.667 50.4826 16.7463C52.0977 17.8255 53.3566 19.3595 54.1 21.1541C54.8434 22.9488 55.0379 24.9237 54.6589 26.8289C54.28 28.7341 53.3445 30.4842 51.9709 31.8578C50.5973 33.2314 48.8473 34.1669 46.942 34.5458C45.0368 34.9248 43.0619 34.7303 41.2672 33.9869C39.4725 33.2435 37.9386 31.9846 36.8594 30.3695C35.7801 28.7543 35.2041 26.8553 35.2041 24.9128C35.2072 22.3089 36.243 19.8125 38.0843 17.9714C39.9256 16.1302 42.422 15.0945 45.0259 15.0915V15.091Z" fill="black"/>
<path d="M42.8303 28.6687C43.0602 28.8931 43.3687 29.0187 43.6899 29.0187C44.0111 29.0187 44.3196 28.8931 44.5495 28.6687L50.4392 22.9184C50.5562 22.8058 50.6498 22.6712 50.7146 22.5224C50.7793 22.3735 50.814 22.2133 50.8166 22.0509C50.8191 21.8886 50.7895 21.7273 50.7295 21.5765C50.6695 21.4256 50.5802 21.2882 50.4668 21.172C50.3533 21.0558 50.2181 20.9632 50.0687 20.8996C49.9194 20.8359 49.7589 20.8024 49.5965 20.8011C49.4342 20.7997 49.2732 20.8305 49.1228 20.8917C48.9724 20.9528 48.8355 21.0431 48.7202 21.1574L43.6899 26.0682L41.2801 23.7155C41.1648 23.6013 41.0279 23.511 40.8775 23.4498C40.7272 23.3886 40.5661 23.3579 40.4038 23.3592C40.2414 23.3606 40.081 23.394 39.9316 23.4577C39.7822 23.5214 39.647 23.614 39.5336 23.7301C39.4201 23.8463 39.3308 23.9838 39.2708 24.1346C39.2108 24.2855 39.1812 24.4467 39.1837 24.6091C39.1863 24.7714 39.221 24.9316 39.2857 25.0805C39.3505 25.2294 39.4441 25.364 39.5611 25.4765L42.8303 28.6687Z" fill="black"/>
</svg>
