<svg width="80" height="80" viewBox="0 0 80 80" fill="none" xmlns="http://www.w3.org/2000/svg">
<path d="M68.75 0H11.25C7.80375 0 5 2.80375 5 6.25V68.75C5 71.3077 6.54484 73.5102 8.75 74.4766V76.25C8.75 78.3177 10.4322 80 12.5 80C14.5678 80 16.25 78.3177 16.25 76.25V75H63.75V76.25C63.75 78.3177 65.4322 80 67.5 80C69.5678 80 71.25 78.3177 71.25 76.25V74.4766C73.4552 73.5102 75 71.3077 75 68.75C75 66.0836 75 11.5789 75 6.25C75 2.80375 72.1963 0 68.75 0ZM7.5 6.25C7.5 4.18234 9.18219 2.5 11.25 2.5H68.75C70.8178 2.5 72.5 4.18234 72.5 6.25V12.5H7.5V6.25ZM13.75 76.25C13.75 76.9392 13.1892 77.5 12.5 77.5C11.8108 77.5 11.25 76.9392 11.25 76.25V75H13.75V76.25ZM68.75 76.25C68.75 76.9392 68.1892 77.5 67.5 77.5C66.8108 77.5 66.25 76.9392 66.25 76.25V75H68.75V76.25ZM72.5 68.75C72.5 70.8177 70.8178 72.5 68.75 72.5C67.0755 72.5 19.1428 72.5 11.25 72.5C9.18219 72.5 7.5 70.8177 7.5 68.75V15H72.5V68.75Z" fill="#00A6FB"/>
<path d="M13.75 26.8273V63.75C13.75 65.8177 15.4322 67.5 17.5 67.5H62.5C64.5678 67.5 66.25 65.8177 66.25 63.75V26.8273C67.743 25.9614 68.75 24.3467 68.75 22.5C68.75 19.743 66.507 17.5 63.75 17.5H16.25C13.493 17.5 11.25 19.743 11.25 22.5C11.25 24.3466 12.257 25.9614 13.75 26.8273ZM62.5 65H17.5C16.8108 65 16.25 64.4392 16.25 63.75V60H63.75V63.75C63.75 64.4392 63.1892 65 62.5 65ZM48.75 52.5H31.25V48.75C31.25 48.0608 31.8108 47.5 32.5 47.5H47.5C48.1892 47.5 48.75 48.0608 48.75 48.75V52.5ZM28.9642 55H51.0358C50.5198 56.4552 49.1297 57.5 47.5 57.5H32.5C30.8703 57.5 29.4802 56.4552 28.9642 55ZM63.75 57.5H52.4966C53.2831 56.4547 53.75 55.1559 53.75 53.75C53.75 53.0597 53.1903 52.5 52.5 52.5H51.25V48.75C51.25 46.6823 49.5678 45 47.5 45H32.5C30.4322 45 28.75 46.6823 28.75 48.75V52.5H27.5C26.8097 52.5 26.25 53.0597 26.25 53.75C26.25 55.1559 26.7169 56.4547 27.5034 57.5H16.25V27.5H63.75V57.5ZM16.25 20H63.75C65.1284 20 66.25 21.1216 66.25 22.5C66.25 23.8784 65.1284 25 63.75 25H16.25C14.8716 25 13.75 23.8784 13.75 22.5C13.75 21.1216 14.8716 20 16.25 20Z" fill="#00A6FB"/>
<path d="M51.25 10C52.6307 10 53.75 8.88071 53.75 7.5C53.75 6.11929 52.6307 5 51.25 5C49.8693 5 48.75 6.11929 48.75 7.5C48.75 8.88071 49.8693 10 51.25 10Z" fill="#00A6FB"/>
<path d="M40 10C41.3807 10 42.5 8.88071 42.5 7.5C42.5 6.11929 41.3807 5 40 5C38.6193 5 37.5 6.11929 37.5 7.5C37.5 8.88071 38.6193 10 40 10Z" fill="#00A6FB"/>
<path d="M28.75 10C30.1307 10 31.25 8.88071 31.25 7.5C31.25 6.11929 30.1307 5 28.75 5C27.3693 5 26.25 6.11929 26.25 7.5C26.25 8.88071 27.3693 10 28.75 10Z" fill="#00A6FB"/>
<path d="M20 6.25H15C14.3097 6.25 13.75 6.80969 13.75 7.5C13.75 8.19031 14.3097 8.75 15 8.75H20C20.6903 8.75 21.25 8.19031 21.25 7.5C21.25 6.80969 20.6903 6.25 20 6.25Z" fill="#00A6FB"/>
<path d="M34.375 40H42.5C43.1892 40 43.75 40.5608 43.75 41.25C43.75 41.9403 44.3097 42.5 45 42.5C45.6903 42.5 46.25 41.9403 46.25 41.25C46.25 39.1823 44.5678 37.5 42.5 37.5H34.375C34.0303 37.5 33.75 37.2197 33.75 36.875C33.75 36.5303 34.0303 36.25 34.375 36.25H36.25C39.007 36.25 41.25 34.007 41.25 31.25C41.25 30.5597 40.6903 30 40 30C39.3097 30 38.75 30.5597 38.75 31.25C38.75 32.6284 37.6284 33.75 36.25 33.75H34.375C32.6519 33.75 31.25 35.1519 31.25 36.875C31.25 38.5981 32.6519 40 34.375 40Z" fill="#00A6FB"/>
</svg>
