<svg width="32" height="31" viewBox="0 0 32 31" fill="none" xmlns="http://www.w3.org/2000/svg">
<g clip-path="url(#clip0)">
<path d="M24.604 30.7958C24.312 30.795 24.0209 30.7623 23.7357 30.6982C18.3062 29.5496 13.3041 26.8565 9.30527 22.9289C5.39175 18.9927 2.67752 13.981 1.49096 8.50025C1.35105 7.81718 1.38539 7.10879 1.59068 6.44322C1.79596 5.77766 2.16528 5.17732 2.66311 4.69996L6.13614 1.28149C6.31353 1.10993 6.5243 0.978555 6.7547 0.895936C6.9851 0.813318 7.22994 0.781313 7.47325 0.802011C7.72554 0.828926 7.96899 0.912035 8.1865 1.04549C8.40401 1.17895 8.59028 1.35952 8.73223 1.5745L13.0735 8.1362C13.2363 8.39081 13.3149 8.69213 13.2977 8.99582C13.2805 9.29952 13.1684 9.58955 12.978 9.82324L10.7987 12.487C11.6666 14.4515 12.8958 16.227 14.4193 17.7168C15.9329 19.2607 17.722 20.4935 19.6896 21.3484L22.3899 19.1552C22.6167 18.972 22.8927 18.8636 23.1811 18.8446C23.4696 18.8255 23.7569 18.8967 24.0049 19.0487L30.5602 23.3817C30.7852 23.5191 30.9768 23.7067 31.1208 23.9306C31.2648 24.1544 31.3574 24.4087 31.3916 24.6744C31.4258 24.94 31.4009 25.2101 31.3185 25.4645C31.2362 25.7188 31.0987 25.9509 30.9162 26.1432L27.53 29.5705C27.1453 29.9619 26.6888 30.2717 26.1866 30.482C25.6845 30.6923 25.1466 30.7989 24.604 30.7958ZM7.33433 2.56009L3.8613 5.97856C3.58125 6.24543 3.37394 6.58224 3.25976 6.95588C3.14559 7.32952 3.12847 7.72711 3.21011 8.10956C4.31342 13.2525 6.8496 17.9586 10.5122 21.6592C14.2753 25.3543 18.9825 27.8874 24.0917 28.9667C24.4784 29.0494 24.8792 29.0327 25.258 28.918C25.6368 28.8033 25.9819 28.5943 26.2623 28.3097L29.6485 24.8823L23.3189 20.7002L20.419 23.0621C20.3079 23.1519 20.1771 23.2127 20.0379 23.239C19.8987 23.2653 19.7553 23.2564 19.6202 23.213C17.2122 22.3057 15.0301 20.8655 13.2298 18.9954C11.3677 17.2171 9.92228 15.0318 9.00139 12.6024C8.96243 12.4554 8.96113 12.3005 8.99763 12.1528C9.03412 12.005 9.10718 11.8694 9.20977 11.7589L11.5541 8.89093L7.33433 2.56009Z" fill="black"/>
</g>
<defs>
<clipPath id="clip0">
<rect width="31" height="31" fill="white" transform="translate(0.5)"/>
</clipPath>
</defs>
</svg>
