<svg width="71" height="65" viewBox="0 0 71 65" fill="none" xmlns="http://www.w3.org/2000/svg">
<path d="M69.9462 39.3452C69.5166 38.2611 68.6404 37.3784 67.5091 36.8903C66.3778 36.4022 65.0836 36.3482 63.9094 36.7403L52.9918 40.4154C52.8698 39.9085 52.6447 39.4277 52.3284 38.9986C51.9734 38.5279 51.5215 38.1266 50.9986 37.8177C50.4757 37.5087 49.8921 37.2982 49.2812 37.1981L48.4445 37.0564H61.4843C62.4219 37.0564 63.3211 36.7119 63.984 36.0987C64.647 35.4855 65.0194 34.6539 65.0194 33.7867V29.4271C65.0194 29.1381 64.8953 28.8609 64.6743 28.6565C64.4533 28.4521 64.1536 28.3372 63.8411 28.3372H61.4843V3.26968C61.4843 2.40251 61.1119 1.57085 60.4489 0.957668C59.786 0.344483 58.8868 0 57.9492 0H15.528C14.5904 0 13.6912 0.344483 13.0283 0.957668C12.3653 1.57085 11.9929 2.40251 11.9929 3.26968V28.3372H9.63613C9.32361 28.3372 9.02388 28.4521 8.8029 28.6565C8.58191 28.8609 8.45776 29.1381 8.45776 29.4271V33.7867C8.45776 34.6539 8.83021 35.4855 9.49317 36.0987C10.1561 36.7119 11.0553 37.0564 11.9929 37.0564H22.6736C21.3094 37.6277 20.0049 38.314 18.7767 39.1065L15.079 41.5042L13.7274 39.7179C13.6387 39.6006 13.5259 39.5006 13.3953 39.4236C13.2648 39.3466 13.1192 39.2942 12.9667 39.2693C12.8143 39.2444 12.6581 39.2475 12.5069 39.2785C12.3558 39.3095 12.2128 39.3677 12.086 39.4498L0.502595 46.9515C0.24753 47.1167 0.0734981 47.3685 0.0185206 47.6519C-0.036457 47.9354 0.0320881 48.2275 0.209181 48.4643L12.3794 64.5348C12.4681 64.6521 12.5809 64.7521 12.7115 64.8291C12.842 64.9061 12.9876 64.9585 13.14 64.9834C13.2925 65.0083 13.4487 65.0052 13.5999 64.9742C13.751 64.9432 13.894 64.885 14.0208 64.8029L25.6042 57.3012C25.7309 57.219 25.839 57.1146 25.9221 56.9938C26.0052 56.8731 26.0618 56.7384 26.0886 56.5974C26.1154 56.4564 26.1119 56.3119 26.0783 56.1722C26.0447 56.0324 25.9817 55.9002 25.8929 55.7829L25.2236 54.8979C27.4979 53.4624 30.2902 52.9091 33.0008 53.3568L35.1042 53.6925C37.7533 54.1267 40.4794 53.9072 43.0075 53.056L67.1275 44.9363C67.7096 44.7405 68.2441 44.4404 68.7007 44.0534C69.1573 43.6663 69.5269 43.1998 69.7885 42.6806C70.05 42.1613 70.1984 41.5995 70.225 41.0272C70.2517 40.4549 70.1561 39.8833 69.9438 39.3452H69.9462ZM14.3496 3.26968C14.3496 2.98062 14.4738 2.70341 14.6947 2.49901C14.9157 2.29462 15.2154 2.17979 15.528 2.17979H57.9492C58.2618 2.17979 58.5615 2.29462 58.7825 2.49901C59.0034 2.70341 59.1276 2.98062 59.1276 3.26968V28.3372H14.3496V3.26968ZM33.2035 30.517H40.2737V31.6069H33.2035V30.517ZM10.8145 33.7867V30.517H30.8468V31.6069C30.8468 32.185 31.0951 32.7395 31.537 33.1483C31.979 33.5571 32.5784 33.7867 33.2035 33.7867H40.2737C40.8988 33.7867 41.4982 33.5571 41.9402 33.1483C42.3821 32.7395 42.6304 32.185 42.6304 31.6069V30.517H62.6627V33.7867C62.6627 34.0758 62.5386 34.353 62.3176 34.5574C62.0966 34.7618 61.7969 34.8766 61.4843 34.8766H11.9929C11.6803 34.8766 11.3806 34.7618 11.1596 34.5574C10.9386 34.353 10.8145 34.0758 10.8145 33.7867ZM13.6343 62.3921L2.81927 48.1068L12.4725 41.8519L23.2863 56.1404L13.6343 62.3921ZM67.8393 41.2176C67.7707 41.5958 67.5939 41.9502 67.3272 42.2438C67.0605 42.5374 66.7137 42.7596 66.3227 42.8873L42.2039 51.007C40.0635 51.7271 37.7558 51.9128 35.5131 51.5454L33.4085 51.2087C30.0827 50.6585 26.6564 51.3426 23.872 53.1127L16.4318 43.284L20.1295 40.8863C22.0429 39.644 24.1556 38.6877 26.3902 38.0526L26.6058 37.9981C29.982 37.0463 33.5531 36.8439 37.0297 37.4073L48.8652 39.3354C49.1719 39.385 49.4651 39.4901 49.7279 39.6445C49.9908 39.799 50.2182 39.9999 50.3971 40.2356C50.6067 40.5125 50.739 40.833 50.7824 41.1686C50.8483 41.4746 50.8313 41.791 50.7329 42.0895C50.5711 42.6109 50.2049 43.0577 49.7059 43.3427C49.2069 43.6277 48.6109 43.7303 48.0344 43.6306L35.2963 41.5489L34.8862 43.696L47.6208 45.7755C48.7605 45.9631 49.9349 45.7573 50.9214 45.1973C51.9079 44.6372 52.6379 43.7617 52.973 42.7369L64.7107 38.7861C65.2991 38.5896 65.9477 38.6169 66.5143 38.8621C67.0809 39.1072 67.5192 39.5502 67.7332 40.0939C67.8802 40.4521 67.9197 40.8404 67.8475 41.2176H67.8393Z" fill="#051923"/>
<path d="M36.7385 10.8989C35.8063 10.8989 34.895 11.1546 34.1198 11.6336C33.3447 12.1127 32.7406 12.7936 32.3838 13.5902C32.0271 14.3868 31.9337 15.2633 32.1156 16.109C32.2975 16.9547 32.7464 17.7315 33.4056 18.3412C34.0648 18.9509 34.9046 19.3661 35.819 19.5343C36.7333 19.7025 37.681 19.6162 38.5423 19.2862C39.4036 18.9563 40.1397 18.3975 40.6576 17.6805C41.1755 16.9636 41.452 16.1207 41.452 15.2585C41.452 14.1023 40.9554 12.9934 40.0714 12.1758C39.1875 11.3582 37.9886 10.8989 36.7385 10.8989ZM36.7385 17.4383C36.2724 17.4383 35.8167 17.3104 35.4292 17.0709C35.0416 16.8314 34.7395 16.491 34.5612 16.0927C34.3828 15.6944 34.3361 15.2561 34.427 14.8332C34.518 14.4104 34.7424 14.022 35.072 13.7172C35.4016 13.4123 35.8216 13.2047 36.2787 13.1206C36.7359 13.0365 37.2098 13.0797 37.6404 13.2446C38.071 13.4096 38.4391 13.689 38.6981 14.0475C38.957 14.4059 39.0952 14.8274 39.0952 15.2585C39.0952 15.8366 38.8469 16.3911 38.405 16.7998C37.963 17.2086 37.3636 17.4383 36.7385 17.4383Z" fill="#051923"/>
<path d="M46.0818 20.8627L45.0767 19.314C45.345 18.8437 45.5659 18.3515 45.7365 17.8437L47.629 17.4078C47.8844 17.3488 48.1112 17.2125 48.2731 17.0205C48.4349 16.8285 48.5227 16.5919 48.5222 16.3484V14.1686C48.5221 13.9255 48.4342 13.6894 48.2723 13.4978C48.1105 13.3063 47.884 13.1702 47.629 13.1114L45.7365 12.6755C45.5659 12.1676 45.345 11.6755 45.0767 11.2052L46.0818 9.65644C46.217 9.4479 46.273 9.20353 46.2407 8.96219C46.2085 8.72085 46.0899 8.49641 45.9039 8.32459L44.2377 6.7813C44.0519 6.60922 43.8092 6.49955 43.5483 6.46973C43.2874 6.43991 43.0232 6.49165 42.7977 6.61673L41.1232 7.54641C40.6148 7.29818 40.0827 7.09386 39.5336 6.93607L39.0623 5.1857C38.9986 4.94945 38.8512 4.73973 38.6436 4.59C38.436 4.44027 38.1801 4.35914 37.9169 4.35956H35.5602C35.2973 4.35963 35.042 4.44098 34.8349 4.59067C34.6278 4.74037 34.4807 4.94981 34.4171 5.1857L33.9458 6.93607C33.3967 7.09386 32.8646 7.29818 32.3562 7.54641L30.6817 6.61673C30.4562 6.49165 30.192 6.43991 29.9311 6.46973C29.6702 6.49955 29.4275 6.60922 29.2417 6.7813L27.5732 8.32241C27.3871 8.49423 27.2685 8.71867 27.2363 8.96001C27.2041 9.20135 27.26 9.44572 27.3952 9.65426L28.4004 11.203C28.132 11.6733 27.9111 12.1655 27.7405 12.6733L25.848 13.1092C25.5926 13.1682 25.3659 13.3045 25.204 13.4965C25.0421 13.6885 24.9544 13.9251 24.9548 14.1686V16.3484C24.9549 16.5915 25.0429 16.8276 25.2047 17.0192C25.3666 17.2107 25.593 17.3468 25.848 17.4056L27.7405 17.8416C27.9111 18.3494 28.132 18.8415 28.4004 19.3118L27.3952 20.8606C27.26 21.0691 27.2041 21.3135 27.2363 21.5548C27.2685 21.7962 27.3871 22.0206 27.5732 22.1924L29.2394 23.7335C29.4252 23.9056 29.6678 24.0153 29.9287 24.0451C30.1897 24.0749 30.4539 24.0232 30.6793 23.8981L32.3538 22.9684C32.8623 23.2166 33.3944 23.421 33.9434 23.5788L34.4148 25.3291C34.478 25.5658 34.6252 25.776 34.8329 25.9261C35.0405 26.0763 35.2966 26.1577 35.5602 26.1574H37.9169C38.1797 26.1574 38.435 26.076 38.6421 25.9263C38.8492 25.7766 38.9963 25.5672 39.0599 25.3313L39.5313 23.5809C40.0803 23.4231 40.6124 23.2188 41.1209 22.9706L42.7953 23.9003C43.0208 24.0254 43.285 24.0771 43.5459 24.0473C43.8069 24.0175 44.0495 23.9078 44.2353 23.7357L45.9015 22.1946C46.0879 22.023 46.207 21.7987 46.2396 21.5574C46.2723 21.316 46.2167 21.0715 46.0818 20.8627ZM43.6296 16.7015C43.453 17.4266 43.1429 18.1183 42.7128 18.7462C42.5962 18.9168 42.5332 19.1141 42.5307 19.316C42.5282 19.5178 42.5863 19.7164 42.6987 19.8895L43.5872 21.2584L43.2219 21.5962L41.7419 20.7745C41.5547 20.6705 41.3401 20.6167 41.1218 20.619C40.9036 20.6213 40.6903 20.6797 40.5058 20.7875C39.828 21.185 39.0814 21.4718 38.2987 21.6355C38.0858 21.6799 37.8905 21.7781 37.7345 21.9192C37.5784 22.0602 37.4678 22.2386 37.4149 22.4344L36.9966 23.9777H36.4805L36.0621 22.4311C36.0092 22.2353 35.8986 22.057 35.7426 21.9159C35.5865 21.7748 35.3912 21.6766 35.1784 21.6322C34.3944 21.4689 33.6466 21.182 32.9677 20.7843C32.7832 20.6764 32.57 20.6181 32.3517 20.6158C32.1334 20.6135 31.9188 20.6673 31.7316 20.7712L30.2516 21.593L29.8863 21.2551L30.7748 19.8862C30.887 19.7138 30.9454 19.516 30.9435 19.3148C30.9416 19.1136 30.8796 18.9168 30.7642 18.7462C30.3345 18.1193 30.0244 17.4288 29.8474 16.7048C29.7994 16.5079 29.6932 16.3273 29.5407 16.183C29.3882 16.0386 29.1954 15.9363 28.9837 15.8874L27.3116 15.4972V15.0198L28.9837 14.6329C29.1954 14.584 29.3882 14.4816 29.5407 14.3373C29.6932 14.193 29.7994 14.0123 29.8474 13.8155C30.024 13.0904 30.3341 12.3987 30.7642 11.7708C30.8808 11.6002 30.9439 11.4029 30.9464 11.201C30.9489 10.9992 30.8907 10.8006 30.7783 10.6275L29.8898 9.26408L30.2551 8.92622L31.7352 9.748C31.9221 9.85095 32.1362 9.90402 32.3538 9.90132C32.5713 9.89863 32.7838 9.84028 32.9677 9.73274C33.6455 9.33531 34.3921 9.04849 35.1748 8.8848C35.3877 8.84037 35.583 8.74216 35.739 8.6011C35.8951 8.46005 36.0057 8.28169 36.0586 8.08591L36.4805 6.53935H36.9966L37.4149 8.08591C37.4678 8.28169 37.5784 8.46005 37.7345 8.6011C37.8905 8.74216 38.0858 8.84037 38.2987 8.8848C39.0814 9.04849 39.828 9.33531 40.5058 9.73274C40.6903 9.84059 40.9036 9.89893 41.1218 9.90124C41.3401 9.90355 41.5547 9.84974 41.7419 9.74582L43.2219 8.92404L43.5872 9.2619L42.6987 10.6308C42.587 10.8035 42.5293 11.0015 42.5318 11.2027C42.5343 11.4039 42.5969 11.6005 42.7128 11.7708C43.1425 12.3977 43.4526 13.0882 43.6296 13.8122C43.6777 14.0091 43.7838 14.1897 43.9363 14.334C44.0889 14.4784 44.2817 14.5807 44.4934 14.6296L46.1655 15.0198V15.4972L44.4934 15.8841C44.2817 15.933 44.0889 16.0354 43.9363 16.1797C43.7838 16.324 43.6777 16.5047 43.6296 16.7015Z" fill="#051923"/>
<path d="M20.2415 14.1686H22.5982V16.3484H20.2415V14.1686Z" fill="#051923"/>
<path d="M20.5049 18.1531L22.7812 17.5886L23.3916 19.694L21.1152 20.2585L20.5049 18.1531Z" fill="#051923"/>
<path d="M21.8636 21.9396L23.9046 20.8497L25.083 22.7374L23.042 23.8273L21.8636 21.9396Z" fill="#051923"/>
<path d="M24.2336 25.2762L25.9001 23.7349L27.5666 25.2762L25.9001 26.8176L24.2336 25.2762Z" fill="#051923"/>
<path d="M45.8953 25.279L47.5617 23.7377L49.2282 25.279L47.5617 26.8203L45.8953 25.279Z" fill="#051923"/>
<path d="M48.3973 22.7478L49.5757 20.8601L51.6167 21.95L50.4383 23.8377L48.3973 22.7478Z" fill="#051923"/>
<path d="M50.1035 19.6971L50.7138 17.5917L52.9902 18.1562L52.3799 20.2616L50.1035 19.6971Z" fill="#051923"/>
<path d="M50.879 14.1686H53.2358V16.3484H50.879V14.1686Z" fill="#051923"/>
<path d="M50.0983 10.8119L52.3746 10.2474L52.9849 12.3528L50.7086 12.9173L50.0983 10.8119Z" fill="#051923"/>
<path d="M48.3918 7.77094L50.4328 6.68104L51.6111 8.56874L49.5702 9.65863L48.3918 7.77094Z" fill="#051923"/>
<path d="M45.8981 5.24512L47.5645 3.70378L49.231 5.24512L47.5645 6.78646L45.8981 5.24512Z" fill="#051923"/>
<path d="M24.2367 5.2424L25.9032 3.70106L27.5696 5.2424L25.9032 6.78374L24.2367 5.2424Z" fill="#051923"/>
<path d="M21.864 8.57574L23.0424 6.68805L25.0833 7.77794L23.9049 9.66564L21.864 8.57574Z" fill="#051923"/>
<path d="M20.5033 12.3622L21.1136 10.2567L23.39 10.8212L22.7796 12.9266L20.5033 12.3622Z" fill="#051923"/>
</svg>
