<svg width="65" height="65" viewBox="0 0 65 65" fill="none" xmlns="http://www.w3.org/2000/svg">
<path d="M41.1667 28.1667H46.5834C46.8707 28.1667 47.1462 28.0525 47.3494 27.8494C47.5526 27.6462 47.6667 27.3707 47.6667 27.0833C47.6667 26.796 47.5526 26.5205 47.3494 26.3173C47.1462 26.1141 46.8707 26 46.5834 26H41.1667C40.8794 26 40.6038 26.1141 40.4007 26.3173C40.1975 26.5205 40.0834 26.796 40.0834 27.0833C40.0834 27.3707 40.1975 27.6462 40.4007 27.8494C40.6038 28.0525 40.8794 28.1667 41.1667 28.1667Z" fill="#051923"/>
<path d="M63.9167 26C63.6294 26 63.3538 26.1141 63.1506 26.3173C62.9475 26.5205 62.8333 26.796 62.8333 27.0833V62.8333H7.58333C6.51202 62.8333 5.46476 62.5157 4.57399 61.9205C3.68323 61.3253 2.98896 60.4793 2.57899 59.4895C2.16901 58.4998 2.06174 57.4107 2.27075 56.3599C2.47975 55.3092 2.99564 54.344 3.75317 53.5865C4.51071 52.829 5.47586 52.3131 6.52659 52.1041C7.57732 51.8951 8.66644 52.0023 9.6562 52.4123C10.646 52.8223 11.4919 53.5166 12.0871 54.4073C12.6823 55.2981 13 56.3454 13 57.4167C13 57.704 13.1141 57.9795 13.3173 58.1827C13.5205 58.3859 13.796 58.5 14.0833 58.5C14.3707 58.5 14.6462 58.3859 14.8494 58.1827C15.0525 57.9795 15.1667 57.704 15.1667 57.4167V28.1667H18.4167C18.704 28.1667 18.9795 28.0525 19.1827 27.8494C19.3859 27.6462 19.5 27.3707 19.5 27.0833C19.5 26.796 19.3859 26.5205 19.1827 26.3173C18.9795 26.1141 18.704 26 18.4167 26H15.1667V22.75C15.1667 20.7388 14.3677 18.8099 12.9456 17.3878C11.5234 15.9656 9.59456 15.1667 7.58333 15.1667C5.57211 15.1667 3.64326 15.9656 2.22111 17.3878C0.798956 18.8099 0 20.7388 0 22.75V57.4167C0.00229381 59.4272 0.801987 61.3547 2.22364 62.7764C3.64529 64.198 5.57281 64.9977 7.58333 65H63.9167C64.204 65 64.4795 64.8859 64.6827 64.6827C64.8859 64.4795 65 64.204 65 63.9167V27.0833C65 26.796 64.8859 26.5205 64.6827 26.3173C64.4795 26.1141 64.204 26 63.9167 26ZM2.16667 22.75C2.16667 21.3134 2.73735 19.9357 3.75317 18.9198C4.76899 17.904 6.14674 17.3333 7.58333 17.3333C9.01992 17.3333 10.3977 17.904 11.4135 18.9198C12.4293 19.9357 13 21.3134 13 22.75V52.1083C12.2946 51.3865 11.4521 50.8129 10.5219 50.4214C9.59168 50.0298 8.5926 49.828 7.58333 49.828C6.57407 49.828 5.57499 50.0298 4.6448 50.4214C3.7146 50.8129 2.87205 51.3865 2.16667 52.1083V22.75Z" fill="#051923"/>
<path d="M49.9103 39.403L51.6436 43.7363L54.2436 50.2363C54.3238 50.4377 54.4626 50.6104 54.6421 50.7321C54.8215 50.8537 55.0333 50.9188 55.25 50.9188C55.4668 50.9188 55.6786 50.8537 55.858 50.7321C56.0374 50.6104 56.1762 50.4377 56.2565 50.2363L58.8565 43.7363L60.5898 39.403C60.6333 39.2872 60.6564 39.1648 60.658 39.0412C60.658 39.0271 60.6667 39.0152 60.6667 39V20.5833C60.6667 20.296 60.5526 20.0205 60.3494 19.8173C60.1462 19.6141 59.8707 19.5 59.5834 19.5C59.2961 19.5 59.0205 19.6141 58.8173 19.8173C58.6142 20.0205 58.5 20.296 58.5 20.5833V37.9167H56.3334V13H58.5V16.25C58.5 16.5373 58.6142 16.8129 58.8173 17.016C59.0205 17.2192 59.2961 17.3333 59.5834 17.3333C59.8707 17.3333 60.1462 17.2192 60.3494 17.016C60.5526 16.8129 60.6667 16.5373 60.6667 16.25V5.41667C60.6667 3.98008 60.096 2.60233 59.0802 1.58651C58.0644 0.570683 56.6866 0 55.25 0C53.8135 0 52.4357 0.570683 51.4199 1.58651C50.4041 2.60233 49.8334 3.98008 49.8334 5.41667V39C49.8334 39.0152 49.841 39.0271 49.842 39.0423C49.8438 39.1655 49.8669 39.2876 49.9103 39.403ZM54.2501 44.4167H56.25L55.25 46.917L54.2501 44.4167ZM57.1166 42.25H53.3835L52.5168 40.0833H57.9833L57.1166 42.25ZM54.1667 37.9167H52V13H54.1667V37.9167ZM52 10.8333V8.66667H58.5V10.8333H52ZM52 5.41667C52 4.55471 52.3425 3.72806 52.9519 3.11857C53.5614 2.50908 54.3881 2.16667 55.25 2.16667C56.112 2.16667 56.9386 2.50908 57.5481 3.11857C58.1576 3.72806 58.5 4.55471 58.5 5.41667V6.5H52V5.41667Z" fill="#051923"/>
<path d="M23.8333 21.3417V21.8628C23.2001 22.0834 22.6512 22.4956 22.2627 23.0422C21.8743 23.5889 21.6656 24.2428 21.6656 24.9134C21.6656 25.584 21.8743 26.238 22.2627 26.7846C22.6512 27.3313 23.2001 27.7435 23.8333 27.9641V28.1667C23.8353 29.5368 24.2698 30.8714 25.0747 31.9802C25.8797 33.089 27.014 33.9154 28.3162 34.3417C27.1591 35.5046 25.7059 36.3288 24.1139 36.725L22.4618 37.1389C21.1938 37.4522 20.0844 38.2193 19.3436 39.2951C18.6028 40.3709 18.2818 41.6809 18.4414 42.9773C18.6009 44.2737 19.23 45.4668 20.2095 46.3308C21.1891 47.1949 22.4513 47.6702 23.7575 47.6667H26C26.2873 47.6667 26.5629 47.5525 26.766 47.3494C26.9692 47.1462 27.0833 46.8707 27.0833 46.5834C27.0833 46.296 26.9692 46.0205 26.766 45.8173C26.5629 45.6142 26.2873 45.5 26 45.5H23.7575C22.983 45.4993 22.2355 45.2155 21.6556 44.7021C21.0758 44.1886 20.7036 43.481 20.609 42.7123C20.5145 41.9436 20.7042 41.1668 21.1424 40.5282C21.5806 39.8896 22.2371 39.4332 22.9883 39.2449L24.6404 38.8321C27.1504 38.2025 29.3635 36.72 30.901 34.6385C32.5194 34.4954 34.0256 33.7519 35.1235 32.5542C36.2213 31.3565 36.8313 29.7914 36.8333 28.1667V27.9673C37.4666 27.7467 38.0155 27.3345 38.4039 26.7879C38.7923 26.2412 39.001 25.5873 39.001 24.9167C39.001 24.2461 38.7923 23.5921 38.4039 23.0455C38.0155 22.4988 37.4666 22.0866 36.8333 21.866V21.3417C38.5151 19.8417 39.6234 17.8039 39.9687 15.577C40.3139 13.3501 39.8746 11.0724 38.7259 9.13359C38.5798 8.88607 38.3414 8.70672 38.063 8.63501C37.7847 8.56329 37.4893 8.60508 37.2417 8.75118C36.9942 8.89728 36.8149 9.13573 36.7432 9.41406C36.6714 9.6924 36.7132 9.98782 36.8593 10.2353C37.7899 11.8038 38.1215 13.656 37.7929 15.4499C37.4644 17.2438 36.4979 18.8582 35.0718 19.9951C34.9453 20.0966 34.8433 20.2253 34.7731 20.3715C34.703 20.5178 34.6666 20.6779 34.6667 20.8401V21.6667H33.7101L34.6602 13.1192C34.6802 12.9385 34.6545 12.7557 34.5853 12.5876C34.5162 12.4195 34.4058 12.2715 34.2645 12.1572C34.1231 12.043 33.9553 11.9661 33.7764 11.9337C33.5976 11.9013 33.4134 11.9145 33.241 11.9719L30.3333 12.9415L27.4257 11.9719C27.2532 11.9145 27.0691 11.9013 26.8902 11.9337C26.7114 11.9661 26.5435 12.043 26.4022 12.1572C26.2608 12.2715 26.1505 12.4195 26.0813 12.5876C26.0122 12.7557 25.9865 12.9385 26.0065 13.1192L26.9566 21.6667H26V20.8433C26 20.6812 25.9636 20.521 25.8935 20.3748C25.8234 20.2285 25.7213 20.0999 25.5948 19.9983C24.0942 18.8025 23.1033 17.0817 22.8222 15.1836C22.5411 13.2855 22.9907 11.3514 24.0803 9.77192C25.1699 8.19246 26.8183 7.08531 28.6926 6.67406C30.5668 6.26281 32.5273 6.5781 34.1781 7.55626C34.4256 7.70236 34.721 7.74415 34.9994 7.67243C35.2777 7.60072 35.5161 7.42137 35.6622 7.17384C35.8083 6.92632 35.8501 6.6309 35.7784 6.35256C35.7067 6.07422 35.5274 5.83578 35.2798 5.68968C33.1971 4.46354 30.7331 4.05521 28.3662 4.54397C25.9993 5.03274 23.8985 6.38372 22.4719 8.33454C21.0452 10.2854 20.3945 12.6968 20.6461 15.1005C20.8977 17.5042 22.0336 19.7286 23.8333 21.3417ZM30.3333 32.5C29.1841 32.5 28.0819 32.0435 27.2692 31.2308C26.4565 30.4182 26 29.316 26 28.1667H34.6667C34.6667 29.316 34.2101 30.4182 33.3975 31.2308C32.5848 32.0435 31.4826 32.5 30.3333 32.5ZM28.3476 14.5633L29.991 15.1114C30.2132 15.1854 30.4534 15.1854 30.6757 15.1114L32.3191 14.5633L31.5304 21.6667H29.1417L28.3476 14.5633ZM28.1667 23.8333H35.75C36.0373 23.8333 36.3129 23.9475 36.516 24.1506C36.7192 24.3538 36.8333 24.6294 36.8333 24.9167C36.8333 25.204 36.7192 25.4796 36.516 25.6827C36.3129 25.8859 36.0373 26 35.75 26H24.9167C24.6293 26 24.3538 25.8859 24.1506 25.6827C23.9475 25.4796 23.8333 25.204 23.8333 24.9167C23.8333 24.6294 23.9475 24.3538 24.1506 24.1506C24.3538 23.9475 24.6293 23.8333 24.9167 23.8333H28.1667Z" fill="#051923"/>
<path d="M17.3333 15.1667C17.9316 15.1667 18.4167 14.6816 18.4167 14.0833C18.4167 13.485 17.9316 13 17.3333 13C16.735 13 16.25 13.485 16.25 14.0833C16.25 14.6816 16.735 15.1667 17.3333 15.1667Z" fill="#051923"/>
<path d="M43.3333 15.1667C43.9316 15.1667 44.4167 14.6816 44.4167 14.0833C44.4167 13.485 43.9316 13 43.3333 13C42.735 13 42.25 13.485 42.25 14.0833C42.25 14.6816 42.735 15.1667 43.3333 15.1667Z" fill="#051923"/>
<path d="M30.3333 2.16667C30.9316 2.16667 31.4167 1.68164 31.4167 1.08333C31.4167 0.485025 30.9316 0 30.3333 0C29.735 0 29.25 0.485025 29.25 1.08333C29.25 1.68164 29.735 2.16667 30.3333 2.16667Z" fill="#051923"/>
<path d="M18.5337 8.52151C18.7193 8.62865 18.9324 8.67836 19.1462 8.66435C19.36 8.65034 19.5649 8.57325 19.7349 8.44282C19.9049 8.31238 20.0324 8.13447 20.1012 7.93158C20.1701 7.72869 20.1773 7.50992 20.1218 7.30296C20.0664 7.09599 19.9508 6.91012 19.7897 6.76885C19.6286 6.62757 19.4292 6.53724 19.2168 6.50927C19.0044 6.4813 18.7884 6.51696 18.5963 6.61172C18.4041 6.70649 18.2443 6.85612 18.1372 7.04168C17.9935 7.29049 17.9546 7.58619 18.029 7.86371C18.1033 8.14123 18.2849 8.37785 18.5337 8.52151Z" fill="#051923"/>
<path d="M41.0497 21.5215C41.2352 21.6286 41.4484 21.6783 41.6622 21.6643C41.876 21.6503 42.0809 21.5732 42.2509 21.4428C42.4209 21.3124 42.5483 21.1345 42.6172 20.9316C42.6861 20.7287 42.6933 20.5099 42.6378 20.3029C42.5824 20.096 42.4668 19.9101 42.3057 19.7688C42.1446 19.6276 41.9452 19.5372 41.7328 19.5093C41.5204 19.4813 41.3044 19.5169 41.1122 19.6117C40.9201 19.7065 40.7603 19.8561 40.6532 20.0417C40.5095 20.2905 40.4706 20.5862 40.545 20.8637C40.6193 21.1412 40.8009 21.3778 41.0497 21.5215Z" fill="#051923"/>
<path d="M37.1137 3.8723C37.6916 3.71744 38.0345 3.12341 37.8797 2.54549C37.7248 1.96757 37.1308 1.6246 36.5529 1.77946C35.975 1.93431 35.632 2.52834 35.7869 3.10626C35.9417 3.68419 36.5357 4.02715 37.1137 3.8723Z" fill="#051923"/>
<path d="M42.1331 8.5215C42.3186 8.41437 42.4682 8.25462 42.563 8.06245C42.6578 7.87028 42.6934 7.65433 42.6655 7.4419C42.6375 7.22947 42.5472 7.0301 42.4059 6.86901C42.2646 6.70791 42.0787 6.59233 41.8718 6.53688C41.6648 6.48143 41.446 6.48859 41.2432 6.55747C41.0403 6.62635 40.8623 6.75384 40.7319 6.92383C40.6015 7.09382 40.5244 7.29867 40.5104 7.51248C40.4964 7.72629 40.5461 7.93945 40.6532 8.125C40.7969 8.37381 41.0335 8.55537 41.311 8.62973C41.5885 8.70408 41.8842 8.66515 42.1331 8.5215Z" fill="#051923"/>
<path d="M20.0135 20.0417C19.9063 19.8561 19.7466 19.7065 19.5544 19.6117C19.3623 19.5169 19.1463 19.4813 18.9339 19.5093C18.7214 19.5372 18.5221 19.6276 18.361 19.7688C18.1999 19.9101 18.0843 20.096 18.0289 20.3029C17.9734 20.5099 17.9806 20.7287 18.0494 20.9316C18.1183 21.1345 18.2458 21.3124 18.4158 21.4428C18.5858 21.5732 18.7906 21.6503 19.0045 21.6643C19.2183 21.6783 19.4314 21.6286 19.617 21.5215C19.8658 21.3778 20.0473 21.1412 20.1217 20.8637C20.1961 20.5862 20.1571 20.2905 20.0135 20.0417Z" fill="#051923"/>
<path d="M24.375 3.76352C24.5606 3.65639 24.7102 3.49664 24.8049 3.30447C24.8997 3.1123 24.9354 2.89635 24.9074 2.68392C24.8794 2.47149 24.7891 2.27212 24.6478 2.11103C24.5065 1.94993 24.3207 1.83435 24.1137 1.7789C23.9067 1.72345 23.688 1.73061 23.4851 1.79949C23.2822 1.86836 23.1043 1.99586 22.9739 2.16585C22.8434 2.33584 22.7663 2.54069 22.7523 2.7545C22.7383 2.96831 22.788 3.18147 22.8952 3.36702C23.0388 3.61583 23.2754 3.79739 23.553 3.87175C23.8305 3.9461 24.1262 3.90717 24.375 3.76352Z" fill="#051923"/>
<path d="M35.75 56.3333H40.0833C40.3706 56.3333 40.6462 56.2192 40.8493 56.016C41.0525 55.8129 41.1666 55.5373 41.1666 55.25V53.4289C41.5344 53.2555 41.8873 53.0522 42.2218 52.8212L43.797 53.7312C44.0458 53.8748 44.3415 53.9137 44.619 53.8394C44.8965 53.765 45.1331 53.5835 45.2768 53.3347L47.4435 49.582C47.5871 49.3332 47.626 49.0375 47.5517 48.76C47.4773 48.4824 47.2958 48.2458 47.047 48.1022L45.474 47.1932C45.4913 46.9885 45.5 46.7859 45.5 46.5833C45.5 46.3807 45.4913 46.1782 45.474 45.9734L47.047 45.0645C47.2958 44.9208 47.4773 44.6842 47.5517 44.4067C47.626 44.1292 47.5871 43.8335 47.4435 43.5847L45.2768 39.832C45.1331 39.5832 44.8965 39.4016 44.619 39.3273C44.3415 39.2529 44.0458 39.2918 43.797 39.4355L42.2218 40.3455C41.8873 40.1144 41.5344 39.9112 41.1666 39.7377V37.9167C41.1666 37.6293 41.0525 37.3538 40.8493 37.1506C40.6462 36.9475 40.3706 36.8333 40.0833 36.8333H35.75C35.4626 36.8333 35.1871 36.9475 34.9839 37.1506C34.7808 37.3538 34.6666 37.6293 34.6666 37.9167V39.7377C34.2989 39.9112 33.946 40.1144 33.6115 40.3455L32.0363 39.4355C31.7875 39.2918 31.4918 39.2529 31.2143 39.3273C30.9367 39.4016 30.7001 39.5832 30.5565 39.832L28.3898 43.5847C28.2461 43.8335 28.2072 44.1292 28.2816 44.4067C28.3559 44.6842 28.5375 44.9208 28.7863 45.0645L30.3593 45.9734C30.342 46.1782 30.3333 46.3807 30.3333 46.5833C30.3333 46.7859 30.342 46.9885 30.3593 47.1932L28.7863 48.1022C28.6621 48.1728 28.5531 48.2673 28.4656 48.3802C28.378 48.4931 28.3137 48.6222 28.2763 48.7601C28.2388 48.898 28.229 49.0419 28.2474 49.1836C28.2659 49.3252 28.3121 49.4619 28.3836 49.5856C28.455 49.7093 28.5502 49.8177 28.6637 49.9045C28.7772 49.9913 28.9067 50.0548 29.0448 50.0913C29.183 50.1278 29.3269 50.1366 29.4685 50.1173C29.61 50.0979 29.7464 50.0508 29.8696 49.9785L32.0666 48.7067C32.2605 48.5949 32.4149 48.4259 32.5088 48.2228C32.6027 48.0197 32.6314 47.7925 32.591 47.5724C32.4638 46.9191 32.4638 46.2475 32.591 45.5942C32.6314 45.3742 32.6027 45.147 32.5088 44.9439C32.4149 44.7408 32.2605 44.5718 32.0666 44.46L30.8035 43.7298L31.8868 41.8535L33.15 42.5837C33.344 42.6957 33.568 42.7448 33.7911 42.7243C34.0142 42.7037 34.2255 42.6145 34.3958 42.4688C34.9009 42.0376 35.4812 41.703 36.1075 41.4819C36.3192 41.4079 36.5028 41.27 36.6328 41.0872C36.7628 40.9044 36.8328 40.6857 36.8333 40.4614V39H39V40.4614C39.0001 40.6852 39.0695 40.9035 39.1987 41.0862C39.3279 41.2689 39.5105 41.4072 39.7215 41.4819C40.3478 41.703 40.928 42.0376 41.4331 42.4688C41.6034 42.6145 41.8147 42.7037 42.0378 42.7243C42.2609 42.7448 42.4849 42.6957 42.679 42.5837L43.9421 41.8535L45.0255 43.7298L43.7666 44.46C43.5728 44.5718 43.4183 44.7408 43.3244 44.9439C43.2306 45.147 43.2019 45.3742 43.2423 45.5942C43.3694 46.2475 43.3694 46.9191 43.2423 47.5724C43.2019 47.7925 43.2306 48.0197 43.3244 48.2228C43.4183 48.4259 43.5728 48.5949 43.7666 48.7067L45.0298 49.4368L43.9465 51.3132L42.6833 50.583C42.4893 50.471 42.2652 50.4218 42.0421 50.4424C41.819 50.463 41.6077 50.5522 41.4375 50.6978C40.9323 51.1291 40.3521 51.4636 39.7258 51.6847C39.5149 51.7595 39.3322 51.8977 39.203 52.0805C39.0739 52.2632 39.0044 52.4815 39.0043 52.7052V54.1667H36.8333V52.7052C36.8332 52.4815 36.7637 52.2632 36.6345 52.0805C36.5053 51.8977 36.3227 51.7595 36.1118 51.6847C35.4855 51.4636 34.9053 51.1291 34.4001 50.6978C34.2298 50.5522 34.0186 50.463 33.7955 50.4424C33.5723 50.4218 33.3483 50.471 33.1543 50.583L30.953 51.8548C30.8288 51.9254 30.7198 52.0199 30.6322 52.1328C30.5447 52.2458 30.4803 52.3749 30.4429 52.5127C30.4055 52.6506 30.3957 52.7945 30.4141 52.9362C30.4325 53.0779 30.4788 53.2145 30.5502 53.3383C30.6217 53.462 30.7169 53.5704 30.8303 53.6572C30.9438 53.7439 31.0734 53.8074 31.2115 53.8439C31.3496 53.8805 31.4936 53.8893 31.6352 53.8699C31.7767 53.8506 31.913 53.8034 32.0363 53.7312L33.6115 52.8212C33.946 53.0522 34.2989 53.2555 34.6666 53.4289V55.25C34.6666 55.5373 34.7808 55.8129 34.9839 56.016C35.1871 56.2192 35.4626 56.3333 35.75 56.3333Z" fill="#051923"/>
<path d="M41.1667 46.5833C41.1667 45.9405 40.9761 45.3122 40.619 44.7777C40.2619 44.2433 39.7543 43.8267 39.1605 43.5807C38.5666 43.3347 37.9131 43.2704 37.2827 43.3958C36.6523 43.5212 36.0732 43.8307 35.6187 44.2852C35.1641 44.7398 34.8546 45.3188 34.7292 45.9493C34.6038 46.5797 34.6682 47.2332 34.9141 47.827C35.1601 48.4209 35.5767 48.9285 36.1111 49.2856C36.6456 49.6427 37.274 49.8333 37.9167 49.8333C38.7787 49.8333 39.6054 49.4909 40.2148 48.8814C40.8243 48.2719 41.1667 47.4453 41.1667 46.5833ZM36.8334 46.5833C36.8334 46.3691 36.897 46.1596 37.016 45.9815C37.135 45.8033 37.3042 45.6645 37.5022 45.5825C37.7001 45.5005 37.918 45.479 38.1281 45.5208C38.3382 45.5626 38.5313 45.6658 38.6828 45.8173C38.8343 45.9688 38.9375 46.1618 38.9793 46.372C39.0211 46.5821 38.9996 46.7999 38.9176 46.9979C38.8356 47.1959 38.6968 47.3651 38.5186 47.4841C38.3405 47.6031 38.131 47.6667 37.9167 47.6667C37.6294 47.6667 37.3539 47.5525 37.1507 47.3494C36.9476 47.1462 36.8334 46.8706 36.8334 46.5833Z" fill="#051923"/>
<path d="M39 60.6667H52C53.1492 60.6667 54.2514 60.2101 55.0641 59.3975C55.8768 58.5848 56.3333 57.4826 56.3333 56.3333V54.1667C56.3333 53.8793 56.2192 53.6038 56.016 53.4006C55.8128 53.1975 55.5373 53.0833 55.25 53.0833C54.9627 53.0833 54.6871 53.1975 54.4839 53.4006C54.2808 53.6038 54.1666 53.8793 54.1666 54.1667V56.3333C54.1666 56.908 53.9384 57.4591 53.532 57.8654C53.1257 58.2717 52.5746 58.5 52 58.5H39C38.7126 58.5 38.4371 58.6141 38.2339 58.8173C38.0308 59.0205 37.9166 59.296 37.9166 59.5833C37.9166 59.8706 38.0308 60.1462 38.2339 60.3494C38.4371 60.5525 38.7126 60.6667 39 60.6667Z" fill="#051923"/>
<path d="M19.5 56.3333C19.5 56.9761 19.6906 57.6045 20.0477 58.1389C20.4048 58.6734 20.9124 59.0899 21.5063 59.3359C22.1001 59.5819 22.7536 59.6463 23.384 59.5209C24.0145 59.3955 24.5936 59.0859 25.0481 58.6314C25.5026 58.1769 25.8121 57.5978 25.9375 56.9674C26.063 56.3369 25.9986 55.6835 25.7526 55.0896C25.5066 54.4957 25.0901 53.9882 24.5556 53.6311C24.0211 53.2739 23.3928 53.0833 22.75 53.0833C21.888 53.0833 21.0614 53.4257 20.4519 54.0352C19.8424 54.6447 19.5 55.4714 19.5 56.3333ZM23.8333 56.3333C23.8333 56.5476 23.7698 56.757 23.6508 56.9352C23.5317 57.1133 23.3625 57.2522 23.1646 57.3342C22.9666 57.4162 22.7488 57.4376 22.5386 57.3958C22.3285 57.354 22.1355 57.2509 21.984 57.0994C21.8325 56.9479 21.7293 56.7548 21.6875 56.5447C21.6457 56.3345 21.6671 56.1167 21.7491 55.9188C21.8311 55.7208 21.97 55.5516 22.1481 55.4326C22.3263 55.3135 22.5357 55.25 22.75 55.25C23.0373 55.25 23.3129 55.3641 23.516 55.5673C23.7192 55.7705 23.8333 56.046 23.8333 56.3333Z" fill="#051923"/>
</svg>
