<svg width="67" height="65" viewBox="0 0 67 65" fill="none" xmlns="http://www.w3.org/2000/svg">
<path d="M18.7807 25.3906H16.694V27.4219H18.7807V25.3906Z" fill="#051923"/>
<path d="M29.2144 25.3906H27.1277V27.4219H29.2144V25.3906Z" fill="#051923"/>
<path d="M63.794 36.5726L59.7175 36.0059C59.5236 35.451 59.2947 34.9083 59.032 34.3809L61.4985 31.1797C61.6492 30.9841 61.7223 30.7422 61.7045 30.4983C61.6867 30.2545 61.5791 30.0251 61.4015 29.8522L56.9745 25.5429C56.8044 25.3786 56.5808 25.2769 56.3422 25.2555V15.4791C57.3184 14.7183 58.1065 13.7537 58.6483 12.6566C59.1901 11.5595 59.4717 10.3579 59.4723 9.1406C59.4819 7.6014 59.0373 6.09187 58.1916 4.79131C57.3458 3.49076 56.1343 2.45384 54.701 1.80373C54.542 1.73064 54.3666 1.69785 54.191 1.70842C54.0155 1.71898 53.8456 1.77255 53.6971 1.86415C53.5485 1.95575 53.4262 2.08241 53.3414 2.23236C53.2566 2.38231 53.2121 2.55069 53.2121 2.72185V8.40935L51.1253 9.08677L49.0386 8.40935V2.72185C49.0378 2.55103 48.9928 2.38315 48.9077 2.23375C48.8227 2.08435 48.7002 1.95825 48.5518 1.86712C48.4034 1.776 48.2337 1.72279 48.0585 1.71241C47.8834 1.70204 47.7084 1.73485 47.5497 1.80779C46.117 2.45762 44.9059 3.4939 44.0602 4.79366C43.2145 6.09342 42.7696 7.60209 42.7783 9.1406C42.7789 10.3579 43.0606 11.5595 43.6023 12.6566C44.1441 13.7537 44.9322 14.7183 45.9084 15.4791V22.3437H42.7783C42.5272 22.3437 42.2846 22.4318 42.0948 22.5919C41.9051 22.7519 41.781 22.9732 41.7454 23.2151L41.0703 27.8149L43.1362 28.1023L43.6829 24.375H48.134L48.6807 28.1023C48.7092 28.2954 48.7942 28.4765 48.9255 28.6238C49.0569 28.7711 49.2291 28.8785 49.4215 28.9331C50.2911 29.1777 51.1308 29.5138 51.9256 29.9355C52.1014 30.0294 52.3013 30.0719 52.5014 30.058C52.7014 30.0442 52.8931 29.9745 53.0535 29.8573L56.1429 27.6026L59.2897 30.6658L56.9682 33.673C56.8478 33.8292 56.7763 34.0157 56.762 34.2105C56.7478 34.4052 56.7915 34.5998 56.8879 34.7709C57.3211 35.5446 57.6664 36.3619 57.9177 37.2084C57.9738 37.3957 58.0841 37.5633 58.2354 37.6912C58.3868 37.8191 58.5728 37.9018 58.7712 37.9295L62.6003 38.4617V42.7944L58.7712 43.3265C58.5728 43.3542 58.3868 43.437 58.2354 43.5649C58.0841 43.6927 57.9738 43.8603 57.9177 44.0476C57.6664 44.8941 57.3211 45.7115 56.8879 46.4851C56.7915 46.6563 56.7478 46.8509 56.762 47.0456C56.7763 47.2403 56.8478 47.4269 56.9682 47.583L59.2845 50.5903L56.1377 53.6534L53.0503 51.3906C52.8899 51.2734 52.6983 51.2038 52.4982 51.1899C52.2982 51.176 52.0983 51.2185 51.9225 51.3124C51.1277 51.7341 50.288 52.0702 49.4184 52.3148C49.2259 52.3694 49.0538 52.4768 48.9224 52.6241C48.791 52.7715 48.706 52.9525 48.6776 53.1456L48.134 56.875H43.8217V52.5799C43.8209 51.5069 43.6628 50.4396 43.3522 49.4101C45.3395 49.9765 47.4625 49.8956 49.3983 49.1797C51.3341 48.4639 52.9768 47.1523 54.0765 45.4444C55.1763 43.7365 55.673 41.7257 55.4912 39.7178C55.3093 37.7099 54.4587 35.8147 53.0689 34.3205C51.679 32.8263 49.8259 31.8147 47.7913 31.4397C45.7567 31.0647 43.6519 31.3466 41.7971 32.2427C39.9422 33.1389 38.4387 34.6001 37.5152 36.4042C36.5917 38.2084 36.2987 40.2567 36.6808 42.2378C36.6558 42.2276 36.6318 42.2154 36.6068 42.2063L28.1711 38.9218V37.3608C29.5653 36.6664 30.8002 35.7038 31.801 34.5312H34.4313C35.2615 34.5312 36.0576 34.2102 36.6447 33.6388C37.2317 33.0674 37.5615 32.2924 37.5615 31.4844V29.2662C38.1696 29.0569 38.6965 28.6698 39.0701 28.1579C39.4436 27.6459 39.6455 27.0341 39.6482 26.4062V23.3594C39.6455 22.7314 39.4436 22.1196 39.0701 21.6077C38.6965 21.0958 38.1696 20.7087 37.5615 20.4994V19.2969C37.5615 15.5258 36.0225 11.9092 33.2831 9.24268C30.5437 6.57614 26.8283 5.0781 22.9542 5.0781C19.0801 5.0781 15.3647 6.57614 12.6253 9.24268C9.88595 11.9092 8.34697 15.5258 8.34697 19.2969V20.4994C7.73878 20.7087 7.21188 21.0958 6.83835 21.6077C6.46481 22.1196 6.2629 22.7314 6.26023 23.3594V26.4062C6.26023 27.2143 6.59001 27.9893 7.17702 28.5607C7.76403 29.1321 8.56019 29.4531 9.39035 29.4531H11.4771C11.5439 29.4531 11.6086 29.4429 11.6743 29.4389C11.9951 31.1228 12.7085 32.7126 13.7596 34.086C14.8108 35.4594 16.1716 36.5797 17.7373 37.3608V38.9218L9.30166 42.2063C7.16752 43.0296 5.33769 44.4596 4.05072 46.31C2.76375 48.1604 2.07935 50.3453 2.08673 52.5799V61.9531C2.08673 62.2225 2.19666 62.4808 2.39233 62.6713C2.588 62.8617 2.85338 62.9687 3.1301 62.9687H42.7783C43.055 62.9687 43.3204 62.8617 43.5161 62.6713C43.7118 62.4808 43.8217 62.2225 43.8217 61.9531V58.9062H49.0386C49.2896 58.9063 49.5323 58.8182 49.722 58.6581C49.9118 58.498 50.0359 58.2767 50.0715 58.0348L50.6537 54.0668C51.2238 53.8781 51.7813 53.6552 52.3231 53.3995L55.6118 55.8004C55.8128 55.9471 56.0613 56.0183 56.3118 56.0009C56.5623 55.9836 56.7979 55.8788 56.9755 55.706L61.4025 51.3967C61.5801 51.2238 61.6877 50.9944 61.7055 50.7506C61.7234 50.5068 61.6502 50.2649 61.4996 50.0693L59.033 46.868C59.2957 46.3406 59.5247 45.7979 59.7185 45.243L63.795 44.6763C64.0432 44.6414 64.2701 44.5207 64.4343 44.3362C64.5985 44.1518 64.689 43.9159 64.6892 43.6719V37.5781C64.6892 37.3337 64.5987 37.0975 64.4343 36.9128C64.2698 36.7281 64.0425 36.6073 63.794 36.5726ZM52.3168 27.8504C52.2678 27.8271 52.2125 27.8118 52.1635 27.7895V15.2344H50.0819V23.2883L50.0715 23.2151C50.0359 22.9732 49.9118 22.7519 49.722 22.5919C49.5323 22.4318 49.2896 22.3437 49.0386 22.3437H47.9952V14.9703C47.9952 14.8065 47.9545 14.6451 47.8766 14.4999C47.7986 14.3547 47.6857 14.23 47.5476 14.1365C46.772 13.6108 46.1287 12.9211 45.666 12.119C45.2032 11.3169 44.9331 10.4232 44.8758 9.50496C44.8185 8.58673 44.9755 7.66778 45.335 6.81702C45.6945 5.96627 46.2473 5.2058 46.9518 4.59263V9.1406C46.9518 9.35385 47.0207 9.5617 47.1488 9.73469C47.2769 9.90769 47.4576 10.037 47.6655 10.1044L50.7956 11.1201C51.0096 11.1894 51.241 11.1894 51.455 11.1201L54.5851 10.1044C54.793 10.037 54.9738 9.90769 55.1019 9.73469C55.23 9.5617 55.2989 9.35385 55.2988 9.1406V4.59263C56.0039 5.20578 56.5572 5.96643 56.9171 6.81749C57.277 7.66855 57.4342 8.58791 57.3768 9.50656C57.3195 10.4252 57.0492 11.3193 56.5861 12.1217C56.123 12.9241 55.4792 13.6139 54.703 14.1395C54.5653 14.2328 54.4527 14.357 54.3748 14.5016C54.2969 14.6462 54.2559 14.807 54.2554 14.9703V26.4397L52.3168 27.8504ZM38.6048 40.625C38.5933 39.0369 39.1245 37.4902 40.1149 36.2282C41.1052 34.9662 42.4984 34.0605 44.0754 33.6535C45.6524 33.2465 47.3237 33.3615 48.8262 33.9802C50.3288 34.5989 51.5774 35.6863 52.3756 37.0713C53.1739 38.4563 53.4764 40.0603 53.2357 41.631C52.995 43.2017 52.2247 44.6499 51.0459 45.7478C49.8672 46.8458 48.3469 47.5311 46.7243 47.696C45.1016 47.8609 43.4687 47.4961 42.0824 46.6588C41.3611 45.5341 40.4384 44.5444 39.3581 43.7369C38.8618 42.7707 38.6038 41.7052 38.6048 40.625ZM34.4313 32.5H33.1647C33.6731 31.5361 34.0335 30.5047 34.2341 29.4389C34.2999 29.4389 34.3646 29.4531 34.4313 29.4531H35.4747V31.4844C35.4747 31.7537 35.3648 32.012 35.1691 32.2025C34.9734 32.393 34.708 32.5 34.4313 32.5ZM32.3446 21.3281C31.8589 21.3269 31.38 21.2163 30.9456 21.0048C30.5111 20.7934 30.1329 20.4869 29.8405 20.1094L27.9624 17.6719C27.8786 17.563 27.7731 17.4717 27.6523 17.4033C27.5315 17.3349 27.3978 17.2909 27.2592 17.2737C27.1205 17.2572 26.9798 17.2676 26.8453 17.3043C26.7108 17.3411 26.5851 17.4036 26.4756 17.488L22.974 20.2109C22.0501 20.9306 20.903 21.3244 19.7198 21.3281H13.5638V20.3125C13.5638 17.8882 14.5532 15.5633 16.3142 13.8491C18.0753 12.1349 20.4637 11.1719 22.9542 11.1719C25.4447 11.1719 27.8332 12.1349 29.5942 13.8491C31.3552 15.5633 32.3446 17.8882 32.3446 20.3125V21.3281ZM37.5615 26.4062C37.5615 26.6756 37.4515 26.9339 37.2559 27.1244C37.0602 27.3148 36.7948 27.4219 36.5181 27.4219H34.4313V22.3437H36.5181C36.7948 22.3437 37.0602 22.4507 37.2559 22.6412C37.4515 22.8317 37.5615 23.09 37.5615 23.3594V26.4062ZM22.9542 7.10935C26.2738 7.11285 29.4563 8.39801 31.8036 10.6828C34.1508 12.9677 35.4711 16.0656 35.4747 19.2969V20.3125H34.4313C34.4313 17.3495 33.2221 14.5079 31.0698 12.4128C28.9174 10.3176 25.9981 9.1406 22.9542 9.1406C19.9103 9.1406 16.991 10.3176 14.8387 12.4128C12.6863 14.5079 11.4771 17.3495 11.4771 20.3125H10.4337V19.2969C10.4373 16.0656 11.7576 12.9677 14.1049 10.6828C16.4521 8.39801 19.6347 7.11285 22.9542 7.10935ZM9.39035 27.4219C9.11363 27.4219 8.84824 27.3148 8.65257 27.1244C8.4569 26.9339 8.34697 26.6756 8.34697 26.4062V23.3594C8.34697 23.09 8.4569 22.8317 8.65257 22.6412C8.84824 22.4507 9.11363 22.3437 9.39035 22.3437H11.4771V27.4219H9.39035ZM13.5638 27.4219V23.3594H19.7198C21.3776 23.3572 22.9856 22.808 24.2814 21.8014L26.943 19.7285L28.1711 21.3281C28.6584 21.9573 29.2888 22.4682 30.0129 22.8206C30.737 23.173 31.535 23.3574 32.3446 23.3594V27.4219C32.3463 29.2307 31.7933 30.9988 30.7566 32.5H22.9542V34.5312H28.843C27.4651 35.6157 25.7999 36.2981 24.04 36.4995C22.2802 36.7009 20.4978 36.4129 18.8991 35.6691C17.3004 34.9252 15.9508 33.7558 15.0066 32.2962C14.0624 30.8367 13.5622 29.1467 13.5638 27.4219ZM22.9542 38.5937C24.0131 38.5912 25.0666 38.4456 26.0843 38.1611V39.6094C26.0843 40.4174 25.7546 41.1924 25.1675 41.7638C24.5805 42.3352 23.7844 42.6562 22.9542 42.6562C22.1241 42.6562 21.3279 42.3352 20.7409 41.7638C20.1539 41.1924 19.8241 40.4174 19.8241 39.6094V38.1611C20.8419 38.4456 21.8953 38.5912 22.9542 38.5937ZM41.7349 60.9375H35.4747V49.7656H33.388V60.9375H12.5205V49.7656H10.4337V60.9375H4.17348V52.5799C4.1674 50.7516 4.72739 48.9639 5.78042 47.4499C6.83346 45.9359 8.33068 44.7659 10.0769 44.0923L17.9679 41.0201C18.2761 42.0761 18.9296 43.0055 19.8295 43.6673C20.7293 44.3291 21.8264 44.6872 22.9542 44.6872C24.082 44.6872 25.1791 44.3291 26.0789 43.6673C26.9788 43.0055 27.6324 42.0761 27.9405 41.0201L35.8315 44.0923C37.5777 44.7659 39.075 45.9359 40.128 47.4499C41.181 48.9639 41.741 50.7516 41.7349 52.5799V60.9375Z" fill="#051923"/>
<path d="M46.9519 26.4062H44.8651V28.4375H46.9519V26.4062Z" fill="#051923"/>
<path d="M46.9519 52.8125H44.8651V54.8438H46.9519V52.8125Z" fill="#051923"/>
<path d="M55.4985 48.5249L54.0229 49.9612L55.4985 51.3975L56.9741 49.9612L55.4985 48.5249Z" fill="#051923"/>
<path d="M60.5157 39.6094H58.429V41.6406H60.5157V39.6094Z" fill="#051923"/>
<path d="M55.4991 29.8532L54.0236 31.2895L55.4991 32.7258L56.9747 31.2895L55.4991 29.8532Z" fill="#051923"/>
</svg>
