<svg width="81" height="80" viewBox="0 0 81 80" fill="none" xmlns="http://www.w3.org/2000/svg">
<g clip-path="url(#clip0)">
<path d="M79.1071 17.3333C79.8434 17.3333 80.4404 16.7363 80.4404 16V10.6667C80.4404 6.98503 77.4554 4 73.7738 4H7.1071C3.42546 4 0.44043 6.98503 0.44043 10.6667V53.3333C0.44043 57.015 3.42546 60 7.1071 60H28.7074L23.7074 68H19.1071C15.4255 68 12.4404 70.985 12.4404 74.6667C12.4404 75.403 13.0374 76 13.7738 76H67.1071C67.8434 76 68.4404 75.403 68.4404 74.6667C68.4404 70.985 65.4554 68 61.7738 68H57.1735L52.1735 60H73.7738C77.4554 60 80.4404 57.015 80.4404 53.3333V25.3333C80.4404 24.597 79.8434 24 79.1071 24C78.3708 24 77.7738 24.597 77.7738 25.3333V46.6667H16.4404C15.7041 46.6667 15.1071 47.2637 15.1071 48C15.1071 48.7363 15.7041 49.3333 16.4404 49.3333H77.7738V53.3333C77.7738 55.5423 75.9827 57.3333 73.7738 57.3333H7.1071C4.89811 57.3333 3.1071 55.5423 3.1071 53.3333V49.3333H9.33366C10.07 49.3333 10.667 48.7363 10.667 48C10.667 47.2637 10.07 46.6667 9.33366 46.6667H3.1071V10.6667C3.1071 8.45768 4.89811 6.66667 7.1071 6.66667H73.7738C75.9827 6.66667 77.7738 8.45768 77.7738 10.6667V16C77.7738 16.7363 78.3708 17.3333 79.1071 17.3333ZM65.5472 73.3333H15.3337C15.8988 71.7344 17.4111 70.666 19.1071 70.6667H61.7738C63.4697 70.666 64.9821 71.7344 65.5472 73.3333ZM49.0407 60L54.0407 68H26.8402L31.8402 60H49.0407Z" fill="black"/>
<path d="M69.7741 53.3333C69.7741 54.0697 69.1771 54.6667 68.4408 54.6667C67.7044 54.6667 67.1074 54.0697 67.1074 53.3333C67.1074 52.597 67.7044 52 68.4408 52C69.1771 52 69.7741 52.597 69.7741 53.3333Z" fill="black"/>
<path d="M64.4401 53.3333C64.4401 54.0697 63.8431 54.6667 63.1068 54.6667C62.3704 54.6667 61.7734 54.0697 61.7734 53.3333C61.7734 52.597 62.3704 52 63.1068 52C63.8431 52 64.4401 52.597 64.4401 53.3333Z" fill="black"/>
<path d="M25.7736 40C26.5099 40 27.1069 39.403 27.1069 38.6667V36.4264C27.5724 36.2168 28.0184 35.9668 28.4402 35.6797L30.3869 36.8001C31.0242 37.1621 31.8341 36.9414 32.2 36.3066L34.8667 31.6934C35.0464 31.3874 35.0958 31.0228 35.006 30.6803C34.9162 30.3379 34.6935 30.0449 34.3869 29.8665L32.4402 28.7467C32.4402 28.4935 32.4402 28.2533 32.4402 28C32.4402 27.7467 32.4402 27.5065 32.4402 27.2533L34.3738 26.1335C34.6798 25.9551 34.9025 25.6621 34.993 25.3197C35.0828 24.9772 35.0327 24.6126 34.8537 24.3066L32.187 19.6934C31.8205 19.0586 31.0112 18.8379 30.3738 19.1999L28.4402 20.3203C28.0184 20.0332 27.5724 19.7832 27.1069 19.5736V17.3333C27.1069 16.597 26.5099 16 25.7736 16H20.4402C19.7039 16 19.1069 16.597 19.1069 17.3333V19.5736C18.6414 19.7832 18.1955 20.0332 17.7736 20.3203L15.827 19.1999C15.1896 18.8379 14.3797 19.0586 14.0138 19.6934L11.3471 24.3066C11.1675 24.6126 11.118 24.9772 11.2078 25.3197C11.2977 25.6621 11.5203 25.9551 11.827 26.1335L13.7606 27.2533V28V28.7467L11.827 29.8665C11.5203 30.0449 11.2977 30.3379 11.2078 30.6803C11.118 31.0228 11.1675 31.3874 11.3471 31.6934L14.0138 36.3066C14.3797 36.9414 15.1896 37.1621 15.827 36.8001L17.7736 35.6797C18.1955 35.9668 18.6414 36.2168 19.1069 36.4264V38.6667C19.1069 39.403 19.7039 40 20.4402 40C21.1766 40 21.7736 39.403 21.7736 38.6667V35.5332C21.7716 34.9688 21.4136 34.4661 20.8804 34.2799C20.1108 34.0059 19.3973 33.5944 18.7736 33.0664C18.3452 32.6979 17.7306 32.6387 17.2404 32.9199L15.6935 33.8268L14.3602 31.5065L15.907 30.6667C16.4005 30.3867 16.6623 29.8249 16.56 29.2669C16.4005 28.4655 16.4005 27.6413 16.56 26.8398C16.7143 26.2474 16.4448 25.6257 15.907 25.3333L14.3602 24.4401L15.6935 22.1198L17.2404 23.0267C17.7306 23.3079 18.3452 23.2493 18.7736 22.8802C19.3973 22.3522 20.1108 21.9408 20.8804 21.6667C21.4136 21.4805 21.7716 20.9779 21.7736 20.4134V18.6667H24.4402V20.4668C24.4422 21.0312 24.8003 21.5339 25.3335 21.7201C26.103 21.9941 26.8165 22.4056 27.4402 22.9336C27.8686 23.3021 28.4832 23.3613 28.9734 23.0801L30.5203 22.1732L31.8537 24.4935L30.3068 25.3333C29.8133 25.6133 29.5516 26.1751 29.6538 26.7331C29.8133 27.5345 29.8133 28.3587 29.6538 29.1602C29.4995 29.7526 29.769 30.3743 30.3068 30.6667L31.8537 31.5599L30.5203 33.8802L28.9734 32.9733C28.4832 32.6921 27.8686 32.7507 27.4402 33.1198C26.8165 33.6478 26.103 34.0592 25.3335 34.3333C24.8003 34.5195 24.4422 35.0221 24.4402 35.5866V38.6667C24.4402 39.403 25.0373 40 25.7736 40Z" fill="black"/>
<path d="M27.1074 28C27.1074 25.791 25.3164 24 23.1074 24C20.8984 24 19.1074 25.791 19.1074 28C19.1074 30.209 20.8984 32 23.1074 32C25.3164 32 27.1074 30.209 27.1074 28ZM23.1074 29.3333C22.3711 29.3333 21.7741 28.7363 21.7741 28C21.7741 27.2637 22.3711 26.6667 23.1074 26.6667C23.8438 26.6667 24.4408 27.2637 24.4408 28C24.4408 28.7363 23.8438 29.3333 23.1074 29.3333Z" fill="black"/>
<path d="M52.4404 28.0001C52.4404 30.9454 54.8285 33.3334 57.7738 33.3334C60.7191 33.3334 63.1071 30.9454 63.1071 28.0001C63.1071 25.0548 60.7191 22.6667 57.7738 22.6667C54.8285 22.6667 52.4404 25.0548 52.4404 28.0001ZM60.4404 28.0001C60.4404 29.4727 59.2464 30.6667 57.7738 30.6667C56.3011 30.6667 55.1071 29.4727 55.1071 28.0001C55.1071 26.5274 56.3011 25.3334 57.7738 25.3334C59.2464 25.3334 60.4404 26.5274 60.4404 28.0001Z" fill="black"/>
<path d="M73.6276 23.4668L69.6276 16.5332C69.4583 16.2214 69.1719 15.9902 68.8314 15.89C68.4915 15.7897 68.125 15.8294 67.8138 16L64.4407 18.013C64.0117 17.7337 63.5664 17.4798 63.1074 17.2533V13.3333C63.1074 12.597 62.5104 12 61.7741 12H53.7741C53.0378 12 52.4407 12.597 52.4407 13.3333V17.2533C51.9818 17.4798 51.5364 17.7337 51.1074 18.013L47.7344 16C47.1003 15.6361 46.2917 15.8503 45.9206 16.4798L41.9206 23.4134C41.7103 23.7266 41.6426 24.1139 41.7344 24.4798C41.8255 24.8457 42.0677 25.1562 42.401 25.3333L45.7741 27.2533V28V28.7467L42.401 30.6667C41.7708 31.0371 41.5566 31.8464 41.9206 32.4798L45.9206 39.4134C46.2917 40.0436 47.1003 40.2572 47.7344 39.8932L51.1074 37.987C51.5364 38.2663 51.9818 38.5202 52.4407 38.7467V42.6667C52.4407 43.403 53.0378 44 53.7741 44H61.7741C62.5104 44 63.1074 43.403 63.1074 42.6667V38.7467C63.5664 38.5202 64.0117 38.2663 64.4407 37.987L67.8138 40C68.4479 40.3639 69.2565 40.1497 69.6276 39.5202C69.8066 39.2142 69.8568 38.8496 69.7669 38.5072C69.6764 38.1641 69.4538 37.8717 69.1471 37.6934L65.0006 35.3066C64.5306 35.0293 63.9394 35.0664 63.5071 35.3997C62.8294 35.9505 62.0749 36.3997 61.2676 36.7331C60.7695 36.9382 60.4433 37.4219 60.4407 37.9603V41.3333H55.1074V37.8802C55.1048 37.3418 54.7786 36.8581 54.2806 36.6536C53.4733 36.3197 52.7187 35.8704 52.041 35.3203C51.6087 34.9863 51.0176 34.9492 50.5475 35.2266L47.5605 36.9466L44.8939 32.3333L47.8809 30.6667C48.3542 30.3997 48.6178 29.8724 48.5475 29.3333C48.4049 28.4772 48.4049 27.6029 48.5475 26.7467C48.6178 26.2077 48.3542 25.6803 47.8809 25.4134L44.8939 23.6797L47.5605 19.0664L50.5475 20.7865C51.0176 21.0638 51.6087 21.0273 52.041 20.6934C52.7187 20.1426 53.4733 19.694 54.2806 19.36C54.7786 19.1556 55.1048 18.6719 55.1074 18.1335V14.6667H60.4407V18.1198C60.4433 18.6582 60.7695 19.1419 61.2676 19.3464C62.0749 19.6803 62.8294 20.1296 63.5071 20.6797C63.9394 21.0137 64.5306 21.0508 65.0006 20.7734L67.9876 19.0534L70.6543 23.6667L67.6673 25.3333C67.194 25.6003 66.9303 26.1276 67.0006 26.6667C67.1432 27.5228 67.1432 28.3971 67.0006 29.2533C66.9303 29.7923 67.194 30.3197 67.6673 30.5866L71.8138 32.987C72.4472 33.3177 73.2291 33.0911 73.5866 32.4727C73.944 31.8542 73.7506 31.0632 73.1471 30.6797L69.7741 28.7467C69.7741 28.4935 69.7741 28.2402 69.7741 28C69.7741 27.7598 69.7741 27.5065 69.7741 27.2533L73.1471 25.3333C73.4648 25.1549 73.6959 24.8548 73.7864 24.5026C73.8769 24.1497 73.8196 23.776 73.6276 23.4668Z" fill="black"/>
<path d="M31.1073 14.4531C31.3521 14.4518 31.5923 14.3821 31.8006 14.2532C35.4686 11.9784 39.9386 11.3951 44.0676 12.6536C44.4139 12.7688 44.7928 12.7376 45.1151 12.5663C45.438 12.3945 45.6756 12.0982 45.7739 11.7467C45.9803 11.0396 45.5741 10.2994 44.867 10.093C39.9998 8.61712 34.7323 9.31178 30.4139 11.9999C30.1105 12.1848 29.8937 12.483 29.811 12.8281C29.7284 13.1738 29.787 13.5377 29.9738 13.8398C30.2212 14.2252 30.6489 14.457 31.1073 14.4531Z" fill="black"/>
<path d="M30.4142 41.3332C33.2228 43.0584 36.4513 43.981 39.7475 43.9999C40.963 43.9959 42.174 43.8618 43.3608 43.6001C43.8556 43.5304 44.2697 43.1906 44.4344 42.7186C44.5991 42.2472 44.4865 41.7232 44.1421 41.3612C43.7977 40.9985 43.2801 40.8592 42.8009 40.9998C41.8068 41.2179 40.7918 41.3299 39.7742 41.3332C36.9506 41.3371 34.1811 40.5571 31.7742 39.0799C31.1479 38.6997 30.3321 38.8963 29.9474 39.52C29.5808 40.1502 29.7892 40.9582 30.4142 41.3332Z" fill="black"/>
</g>
<defs>
<clipPath id="clip0">
<rect width="80" height="80" fill="white" transform="translate(0.44043)"/>
</clipPath>
</defs>
</svg>
