<svg width="91" height="72" viewBox="0 0 91 72" fill="none" xmlns="http://www.w3.org/2000/svg">
<g filter="url(#filter0_f)">
<path d="M16.6237 58.175C17.4619 58.175 18.1414 57.0072 18.1414 55.5667C18.1414 54.1261 17.4619 52.9583 16.6237 52.9583C13.5245 52.9673 10.7335 49.7361 9.57388 44.7965C8.41422 39.8569 9.11894 34.2016 11.354 30.5115C13.589 26.8214 16.9051 25.8381 19.7304 28.0277C20.1124 28.3231 20.5484 28.3341 20.9353 28.058C21.3221 27.7818 21.6254 27.2432 21.7732 26.5696C22.7305 22.1795 24.7856 18.7619 27.3701 17.262C29.9546 15.7622 32.7946 16.3391 35.1044 18.8333C35.7619 19.5428 36.625 19.2851 37.1047 18.236C39.1123 13.8113 42.1948 11.2246 45.4595 11.2246C48.7242 11.2246 51.8066 13.8113 53.8143 18.236C54.294 19.2851 55.157 19.5428 55.8146 18.8333C58.1244 16.3391 60.9643 15.7622 63.5488 17.262C66.1334 18.7619 68.1885 22.1795 69.1458 26.5696C69.2936 27.2432 69.5969 27.7818 69.9837 28.058C70.3705 28.3341 70.8066 28.3231 71.1886 28.0277C74.0139 25.8381 77.33 26.8214 79.565 30.5115C81.8 34.2016 82.5047 39.8569 81.3451 44.7965C80.1854 49.7361 77.3945 52.9673 74.2952 52.9583C73.4571 52.9583 72.7776 54.1261 72.7776 55.5667C72.7776 57.0072 73.4571 58.175 74.2952 58.175C80.1626 58.175 84.9189 50.0005 84.9189 39.9166C84.9189 29.8327 80.1626 21.6581 74.2952 21.6581C73.3042 21.6561 72.318 21.8958 71.3661 22.3702C68.3307 12.4081 61.2381 8.3957 55.3532 13.3114C52.779 8.64371 49.2015 5.99996 45.4595 5.99996C41.7175 5.99996 38.14 8.64371 35.5658 13.3114C29.6821 8.39451 22.5899 12.4032 19.5528 22.3624C18.6008 21.8906 17.6146 21.6535 16.6237 21.6581C10.7564 21.6581 6.00002 29.8327 6.00002 39.9166C6.00002 50.0005 10.7564 58.175 16.6237 58.175V58.175Z" fill="#4BC2FF"/>
<path d="M58.5616 65.4089L75.256 41.9339C75.6853 41.3491 75.8979 40.4122 75.8124 39.4824C75.7269 38.5525 75.3564 37.774 74.8431 37.4454C74.3298 37.1168 73.7533 37.2891 73.3347 37.8962L56.6403 61.3712C56.0066 62.2901 55.9193 63.913 56.4442 65.016C56.969 66.119 57.9119 66.294 58.5616 65.4089V65.4089Z" fill="#4BC2FF"/>
<path d="M16.6238 37.3067C15.9821 37.3058 15.4094 37.9987 15.1935 39.0372C14.9775 40.0758 15.1649 41.2355 15.6616 41.9339L32.356 65.4089C33.0058 66.294 33.9486 66.119 34.4735 65.016C34.9984 63.913 34.9111 62.2901 34.2774 61.3712L17.583 37.8962C17.3127 37.5145 16.9737 37.3061 16.6238 37.3067V37.3067Z" fill="#4BC2FF"/>
<path d="M43.9422 29.4834V63.3917C43.9422 64.8322 44.6217 66 45.4599 66C46.2981 66 46.9775 64.8322 46.9775 63.3917V29.4834C46.9775 28.0429 46.2981 26.8751 45.4599 26.8751C44.6217 26.8751 43.9422 28.0429 43.9422 29.4834Z" fill="#4BC2FF"/>
<path d="M57.3838 43.8684L61.9368 30.8265C62.2279 30.027 62.2452 29.0198 61.9821 28.1921C61.719 27.3645 61.2164 26.8455 60.6677 26.8346C60.119 26.8238 59.6096 27.3229 59.3355 28.1399L54.7825 41.1818C54.4914 41.9812 54.4741 42.9885 54.7372 43.8161C55.0003 44.6438 55.5029 45.1628 56.0516 45.1737C56.6003 45.1845 57.1097 44.6854 57.3838 43.8684Z" fill="#4BC2FF"/>
<path d="M35.6176 44.7605C36.3358 44.0184 36.5681 42.4164 36.1366 41.1817L31.5836 28.1396C31.3095 27.3226 30.8001 26.8235 30.2514 26.8344C29.7027 26.8452 29.2001 27.3643 28.937 28.1919C28.6739 29.0195 28.6912 30.0268 28.9823 30.8263L33.5353 43.8684C33.9671 45.1028 34.8992 45.5021 35.6176 44.7605V44.7605Z" fill="#4BC2FF"/>
</g>
<path d="M17.7048 58.175C18.543 58.175 19.2225 57.0072 19.2225 55.5667C19.2225 54.1261 18.543 52.9583 17.7048 52.9583C14.6055 52.9673 11.8146 49.7361 10.6549 44.7965C9.49528 39.8569 10.2 34.2016 12.435 30.5115C14.6701 26.8214 17.9862 25.8381 20.8115 28.0277C21.1934 28.3231 21.6295 28.3341 22.0163 28.058C22.4032 27.7818 22.7064 27.2432 22.8542 26.5696C23.8115 22.1795 25.8667 18.7619 28.4512 17.262C31.0357 15.7622 33.8756 16.3391 36.1855 18.8333C36.843 19.5428 37.706 19.2851 38.1858 18.236C40.1934 13.8113 43.2758 11.2246 46.5405 11.2246C49.8053 11.2246 52.8877 13.8113 54.8953 18.236C55.375 19.2851 56.2381 19.5428 56.8956 18.8333C59.2054 16.3391 62.0454 15.7622 64.6299 17.262C67.2144 18.7619 69.2696 22.1795 70.2268 26.5696C70.3747 27.2432 70.6779 27.7818 71.0648 28.058C71.4516 28.3341 71.8876 28.3231 72.2696 28.0277C75.0949 25.8381 78.411 26.8214 80.6461 30.5115C82.8811 34.2016 83.5858 39.8569 82.4261 44.7965C81.2665 49.7361 78.4755 52.9673 75.3763 52.9583C74.5381 52.9583 73.8586 54.1261 73.8586 55.5667C73.8586 57.0072 74.5381 58.175 75.3763 58.175C81.2436 58.175 86 50.0005 86 39.9166C86 29.8327 81.2436 21.6581 75.3763 21.6581C74.3852 21.6561 73.399 21.8958 72.4472 22.3702C69.4117 12.4081 62.3191 8.3957 56.4342 13.3114C53.86 8.64371 50.2826 5.99996 46.5405 5.99996C42.7985 5.99996 39.221 8.64371 36.6468 13.3114C30.7631 8.39451 23.6709 12.4032 20.6339 22.3624C19.6818 21.8906 18.6956 21.6535 17.7048 21.6581C11.8375 21.6581 7.08108 29.8327 7.08108 39.9166C7.08108 50.0005 11.8375 58.175 17.7048 58.175V58.175Z" fill="#00A6FB"/>
<path d="M59.6427 65.4089L76.3371 41.9339C76.7664 41.3491 76.979 40.4122 76.8935 39.4824C76.8079 38.5525 76.4375 37.774 75.9242 37.4454C75.4109 37.1168 74.8344 37.2891 74.4157 37.8962L57.7213 61.3712C57.0876 62.2901 57.0003 63.913 57.5252 65.016C58.0501 66.119 58.9929 66.294 59.6427 65.4089V65.4089Z" fill="#00A6FB"/>
<path d="M17.7049 37.3067C17.0632 37.3058 16.4905 37.9987 16.2745 39.0372C16.0586 40.0758 16.246 41.2355 16.7427 41.9339L33.4371 65.4089C34.0869 66.294 35.0297 66.119 35.5546 65.016C36.0795 63.913 35.9921 62.2901 35.3584 61.3712L18.6641 37.8962C18.3938 37.5145 18.0547 37.3061 17.7049 37.3067V37.3067Z" fill="#00A6FB"/>
<path d="M45.0232 29.4834V63.3917C45.0232 64.8322 45.7027 66 46.5409 66C47.3791 66 48.0586 64.8322 48.0586 63.3917V29.4834C48.0586 28.0429 47.3791 26.8751 46.5409 26.8751C45.7027 26.8751 45.0232 28.0429 45.0232 29.4834Z" fill="#00A6FB"/>
<path d="M58.4649 43.8684L63.0179 30.8265C63.309 30.027 63.3263 29.0198 63.0632 28.1921C62.8001 27.3645 62.2975 26.8455 61.7488 26.8346C61.2001 26.8238 60.6907 27.3229 60.4166 28.1399L55.8636 41.1818C55.5725 41.9812 55.5552 42.9885 55.8183 43.8161C56.0814 44.6438 56.584 45.1628 57.1327 45.1737C57.6814 45.1845 58.1908 44.6854 58.4649 43.8684Z" fill="#00A6FB"/>
<path d="M36.6976 44.7605C37.4158 44.0184 37.6482 42.4164 37.2167 41.1817L32.6637 28.1396C32.3896 27.3226 31.8802 26.8235 31.3315 26.8344C30.7828 26.8452 30.2802 27.3643 30.0171 28.1919C29.754 29.0195 29.7713 30.0268 30.0624 30.8263L34.6154 43.8684C35.0472 45.1028 35.9793 45.5021 36.6976 44.7605V44.7605Z" fill="#00A6FB"/>
<defs>
<filter id="filter0_f" x="0" y="0" width="90.9189" height="71.9999" filterUnits="userSpaceOnUse" color-interpolation-filters="sRGB">
<feFlood flood-opacity="0" result="BackgroundImageFix"/>
<feBlend mode="normal" in="SourceGraphic" in2="BackgroundImageFix" result="shape"/>
<feGaussianBlur stdDeviation="3" result="effect1_foregroundBlur"/>
</filter>
</defs>
</svg>
