<svg width="81" height="80" viewBox="0 0 81 80" fill="none" xmlns="http://www.w3.org/2000/svg">
<g clip-path="url(#clip0)">
<path d="M74.0895 0C70.4092 0.0045573 67.4274 2.98633 67.4229 6.66667V78.6667C67.4229 79.403 68.0199 80 68.7562 80C75.3805 79.9928 80.749 74.6244 80.7562 68V54.6667C80.7542 52.972 79.6865 51.4616 78.0895 50.8945V48H79.4229C80.1592 48 80.7562 47.403 80.7562 46.6667V6.66667C80.7516 2.98633 77.7699 0.0045573 74.0895 0ZM74.0895 2.66667C76.2985 2.66667 78.0895 4.45768 78.0895 6.66667V29.3333H74.0895C73.3532 29.3333 72.7562 29.9303 72.7562 30.6667C72.7562 31.403 73.3532 32 74.0895 32H78.0895V34.6667H70.0895V6.66667C70.0895 4.45768 71.8805 2.66667 74.0895 2.66667ZM78.0895 40H70.0895V37.3333H78.0895V40ZM76.7562 53.3333C77.4925 53.3333 78.0895 53.9303 78.0895 54.6667V68C78.0837 72.6374 74.6787 76.5697 70.0895 77.2389V48H75.4229V52C75.4229 52.7363 76.0199 53.3333 76.7562 53.3333ZM76.7562 45.3333H70.0895V42.6667H78.0895V45.3333H76.7562Z" fill="black"/>
<path d="M74.0892 58.6667C73.3529 58.6667 72.7559 59.2638 72.7559 60.0001V68.0001C72.7559 68.7364 73.3529 69.3334 74.0892 69.3334C74.8255 69.3334 75.4225 68.7364 75.4225 68.0001V60.0001C75.4225 59.2638 74.8255 58.6667 74.0892 58.6667Z" fill="black"/>
<path d="M49.6623 61.453C48.603 61.6067 47.579 61.9465 46.6382 62.4557L34.2899 28.5331C34.7209 28.3756 35.1024 28.1067 35.3967 27.7545C35.6135 27.6002 35.7782 27.3841 35.87 27.1347L41.2033 12.4745C42.9598 7.63145 40.4644 2.28054 35.6245 0.512964C35.2918 0.393172 34.926 0.409448 34.605 0.557235C34.284 0.706974 34.0366 0.977157 33.9155 1.30919L30.5659 10.5091L27.217 1.30919C27.0965 0.976506 26.8485 0.705021 26.5282 0.554631C26.2072 0.404891 25.84 0.388615 25.5073 0.509058C20.6681 2.27664 18.1727 7.62754 19.9286 12.4706L26.3088 29.9999L14.5034 62.4557C13.562 61.9465 12.5386 61.6067 11.4793 61.453C6.65578 60.7389 2.09458 63.8586 1.0119 68.6132C-0.0707856 73.3678 2.68898 78.1549 7.34588 79.6002C8.20981 79.8658 9.1089 80.0006 10.0125 79.9999C14.049 79.9472 17.6226 77.3801 18.9605 73.5722L22.0458 65.0943L25.8062 66.4641C26.493 66.6991 27.2424 66.3411 27.4904 65.6588C27.7391 64.9758 27.3954 64.22 26.7183 63.9589L22.9579 62.5891L30.5581 41.6959L38.1577 62.5891L34.4006 63.9589C33.7287 64.2232 33.3895 64.9758 33.6362 65.6549C33.883 66.3333 34.6258 66.6926 35.3114 66.4641L39.0711 65.0956L42.1551 73.5722C43.4963 77.3847 47.0777 79.953 51.1193 79.9999C52.023 80.0006 52.9221 79.8658 53.786 79.6002C58.4435 78.1549 61.2033 73.3678 60.12 68.6132C59.0373 63.8586 54.4767 60.7389 49.6525 61.453H49.6623ZM35.9234 3.6002C38.62 5.26036 39.7795 8.58653 38.7007 11.5637L34.8264 22.2076L31.9885 14.4134L35.9234 3.6002ZM16.4618 72.6666C15.2652 76.0852 11.6317 77.9999 8.13559 77.0533C4.80552 76.0234 2.83091 72.6021 3.60565 69.2037C4.37974 65.8053 7.64145 63.5767 11.0887 64.0904C12.2808 64.2655 13.4012 64.7669 14.3264 65.5383C14.6603 65.8144 15.1069 65.9101 15.5249 65.7968C15.9429 65.6829 16.2788 65.3736 16.4273 64.9667L27.7326 33.8997L29.1551 37.804L16.4618 72.6666ZM57.174 73.3105C56.4019 75.1106 54.8771 76.4797 53.0047 77.0546C49.508 78.0006 45.8739 76.0859 44.6766 72.6666L41.1434 62.9557V62.9374L41.1369 62.9185L22.4396 11.5663C21.3589 8.58848 22.5191 5.26101 25.217 3.6002L33.3778 26.0266C31.9943 26.5312 31.2814 28.0618 31.786 29.4452L44.7196 64.9641C44.868 65.3704 45.204 65.6796 45.6213 65.7929C46.0386 65.9068 46.4852 65.8111 46.8192 65.5357C47.745 64.7636 48.8654 64.2629 50.0581 64.0878C52.4494 63.7271 54.8491 64.6907 56.3277 66.6047C57.8062 68.5188 58.1323 71.0833 57.1792 73.3066L57.174 73.3105Z" fill="black"/>
<path d="M53.0985 68.5148C52.4058 68.7648 52.0477 69.5298 52.299 70.2225C52.551 70.9146 52.1942 71.6802 51.5022 71.9328C50.8101 72.1847 50.0445 71.828 49.7919 71.1359C49.6708 70.8032 49.6871 70.4354 49.8368 70.1144C49.9872 69.7935 50.2587 69.5454 50.592 69.425C51.0484 69.2687 51.385 68.8781 51.4722 68.4035C51.5588 67.9289 51.3824 67.4445 51.0106 67.1366C50.6389 66.8293 50.1304 66.7459 49.6799 66.9198C47.6044 67.6756 46.5334 69.9705 47.2893 72.0467C48.0445 74.1229 50.3401 75.1932 52.4162 74.4373C54.4917 73.6821 55.562 71.3866 54.8068 69.3104C54.5542 68.6196 53.7899 68.2635 53.0985 68.5148Z" fill="black"/>
<path d="M13.0537 70.3386C12.721 70.2175 12.3538 70.2344 12.0328 70.3842C11.7125 70.5345 11.4645 70.806 11.344 71.1387C11.0934 71.8314 10.3284 72.1895 9.63634 71.9388C8.94363 71.6875 8.58686 70.9219 8.83816 70.2299C9.08946 69.5378 9.85444 69.1804 10.5465 69.4323C10.9951 69.5983 11.4983 69.5118 11.8655 69.2058C12.232 68.8991 12.4072 68.4193 12.3232 67.9486C12.2399 67.4779 11.9104 67.0879 11.4599 66.9265C9.38439 66.1713 7.08881 67.2416 6.33295 69.3171C5.57774 71.3933 6.64806 73.6888 8.72423 74.4441C10.7998 75.1999 13.0953 74.1296 13.8505 72.0534C13.9736 71.7201 13.9586 71.3523 13.8089 71.03C13.6591 70.7084 13.387 70.4597 13.0537 70.3386Z" fill="black"/>
</g>
<defs>
<clipPath id="clip0">
<rect width="80" height="80" fill="white" transform="translate(0.779297)"/>
</clipPath>
</defs>
</svg>
